<svg id="Layer_1" data-name="Layer 1" xmlns="http://www.w3.org/2000/svg" viewBox="0 0 269.85 53.32"><defs><style>.cls-1{fill:#231f20;}.cls-2{fill:#084e99;}.cls-3{fill:#fedc00;}.cls-4{fill:#fff;}</style></defs><path class="cls-1" d="M144.69,15.81h-4.34l-.14.14v2.1l.14.14h4.06l.14.14v1.4l-.14.14h-4.06l-.14.14v3.78l-.14.14h-1.68l-.14-.14V14.27l.14-.14h6.3l.14.14v1.4Z" transform="translate(-12.88 -14.03)"/><path class="cls-1" d="M151.69,23.93h-1.54l-.14-.14-.14-.28h-.14a2.29,2.29,0,0,1-1.54.56,2.22,2.22,0,0,1-2.52-2.24c0-2.1,2-2.38,3.08-2.38a3.42,3.42,0,0,1,1,.14l.14-.14v-.14c0-.7-.14-.84-1-.84-.42,0-.84,0-1,.42l-.14.14h-1.68l-.14-.14c0-.84.7-2.1,2.94-2.1s2.94,1.12,2.94,3.22v3.78Zm-2-2.94a2,2,0,0,0-.84-.14q-1.26,0-1.26.84c0,.42.28.7,1,.7a1.13,1.13,0,0,0,1.26-1v-.28Z" transform="translate(-12.88 -14.03)"/><path class="cls-1" d="M156.45,22.39c.7,0,1.12-.28,1.26-.7l.14-.14h1.68l.14.14a2.94,2.94,0,0,1-3.22,2.38,3.35,3.35,0,0,1-3.5-3.64,3.35,3.35,0,0,1,3.5-3.64,2.94,2.94,0,0,1,3.22,2.38l-.14.14h-1.68l-.14-.14c-.14-.42-.56-.7-1.26-.7-1,0-1.54.7-1.54,2S155.47,22.39,156.45,22.39Z" transform="translate(-12.88 -14.03)"/><path class="cls-1" d="M160.93,16.93h1.68l.14.14v4.06c0,.7.28,1.26,1.12,1.26s1.4-.7,1.4-1.68V17.07l.14-.14h1.68l.14.14v6.72l-.14.14h-1.54l-.14-.14-.14-.42h-.14a1.9,1.9,0,0,1-1.68.7,2.54,2.54,0,0,1-2.66-2.8v-4.2Z" transform="translate(-12.88 -14.03)"/><path class="cls-1" d="M170.73,23.93h-1.68l-.14-.14V14.27l.14-.14h1.68l.14.14v9.52Z" transform="translate(-12.88 -14.03)"/><path class="cls-1" d="M175.21,21.83a.37.37,0,0,0,.42.42h1.26l.14.14v1.4l-.14.14h-1.26c-1.26,0-2.38-.56-2.38-2.1V18.75l-.14-.14h-1l-.14-.14v-1.4l.14-.14h1l.14-.14V15.53l.14-.14h1.68l.14.14v1.26l.14.14h1.54l.14.14v1.4l-.14.14h-1.54l-.14.14Z" transform="translate(-12.88 -14.03)"/><path class="cls-1" d="M182.35,24.07c-.56,1.4-1.12,2.24-3.08,2.24h-.7l-.14-.14v-1.4l.14-.14h.7c.7,0,.84-.14,1-.56v-.14L178,18.47v-1.4l.14-.14h1.26l.14.14,1.68,4.76h.14l1.68-4.76.14-.14h1.26l.14.14v1.4Z" transform="translate(-12.88 -14.03)"/><path class="cls-1" d="M192.57,24.07a3.35,3.35,0,0,1-3.51-3.64,3.51,3.51,0,1,1,7,0A3.35,3.35,0,0,1,192.57,24.07Zm0-5.6c-1,0-1.54.7-1.54,2s.56,2,1.54,2,1.54-.7,1.54-2S193.55,18.47,192.57,18.47Z" transform="translate(-12.88 -14.03)"/><path class="cls-1" d="M201.81,14.27v1.4l-.14.14h-1.26a.37.37,0,0,0-.42.42v.56l.14.14h1.4l.14.14v1.4l-.14.14h-1.4l-.14.14v5l-.14.14h-1.68l-.15-.14v-5l-.13-.14h-1l-.14-.14v-1.4l.14-.14h1l.13-.14v-.56c0-1.54,1.13-2.1,2.39-2.1h1.26Z" transform="translate(-12.88 -14.03)"/><path class="cls-1" d="M213.57,23.93H207l-.14-.14V14.27l.14-.14h6.59l.14.14v1.4l-.14.14H209l-.14.14v2l.14.14h4.34l.14.14v1.4l-.14.14H209l-.14.14v2.24l.14.14h4.62l.14.14v1.4Z" transform="translate(-12.88 -14.03)"/><path class="cls-1" d="M221.83,23.93h-1.68l-.14-.14V19.73c0-.7-.28-1.26-1.12-1.26s-1.54.56-1.54,1.82v3.5l-.14.14h-1.69l-.13-.14V17.07l.13-.14h1.55l.14.14.14.42h.14a2.47,2.47,0,0,1,1.82-.7,2.54,2.54,0,0,1,2.66,2.8v4.2Z" transform="translate(-12.88 -14.03)"/><path class="cls-1" d="M230.09,23.23a3.27,3.27,0,0,1-3.5,3.64c-1.68,0-2.8-.84-2.94-2.1l.14-.14h1.68l.14.14c.14.28.42.42,1,.42,1,0,1.54-.56,1.54-1.82H228a2.36,2.36,0,0,1-1.82.7c-1.68,0-3.09-1.4-3.09-3.64s1.41-3.64,3.09-3.64a2.36,2.36,0,0,1,1.82.7h.14l.14-.42.14-.14H230l.14.14Zm-3.5-.84c1.12,0,1.54-.84,1.54-2s-.42-2-1.54-2-1.54.84-1.54,2S225.47,22.39,226.59,22.39Z" transform="translate(-12.88 -14.03)"/><path class="cls-1" d="M233.59,15.81H231.9l-.13-.14v-1.4l.13-.14h1.69l.14.14v1.4Zm0,8.12H231.9l-.13-.14V17.07l.13-.14h1.69l.14.14v6.72Z" transform="translate(-12.88 -14.03)"/><path class="cls-1" d="M241.85,23.93h-1.68l-.14-.14V19.73c0-.7-.28-1.26-1.12-1.26s-1.54.56-1.54,1.82v3.5l-.14.14h-1.69l-.14-.14V17.07l.14-.14h1.55l.14.14.14.42h.14a2.47,2.47,0,0,1,1.82-.7,2.54,2.54,0,0,1,2.66,2.8v4.2Z" transform="translate(-12.88 -14.03)"/><path class="cls-1" d="M249.83,21l-.14.14h-4.34l-.14.14a1.27,1.27,0,0,0,1.4,1.12,1.09,1.09,0,0,0,1-.42l.14-.14h1.68l.14.14c-.14.84-.84,2.1-2.94,2.1a3.35,3.35,0,0,1-3.51-3.64c0-2,1.13-3.64,3.37-3.64s3.36,1.68,3.36,3.64Zm-2.1-1.4a1.27,1.27,0,0,0-2.52,0l.14.14h2.24Z" transform="translate(-12.88 -14.03)"/><path class="cls-1" d="M257.39,21l-.14.14H252.9l-.13.14a1.27,1.27,0,0,0,1.4,1.12,1.09,1.09,0,0,0,1-.42l.14-.14H257l.14.14c-.14.84-.84,2.1-2.94,2.1a3.34,3.34,0,0,1-3.51-3.64c0-2,1.12-3.64,3.37-3.64s3.36,1.68,3.36,3.64Zm-2.1-1.4a1.27,1.27,0,0,0-2.52,0l.13.14h2.25Z" transform="translate(-12.88 -14.03)"/><path class="cls-1" d="M263.13,18.61h-1c-1.13,0-1.55.56-1.55,1.82v3.36l-.14.14h-1.68l-.14-.14V17.07l.14-.14h1.54l.14.14.14.42h.14s.28-.56,1.55-.56h.84l.14.14v1.4Z" transform="translate(-12.88 -14.03)"/><path class="cls-1" d="M266.2,15.81h-1.68l-.14-.14v-1.4l.14-.14h1.68l.15.14v1.4Zm0,8.12h-1.68l-.14-.14V17.07l.14-.14h1.68l.15.14v6.72Z" transform="translate(-12.88 -14.03)"/><path class="cls-1" d="M274.47,23.93h-1.68l-.14-.14V19.73c0-.7-.28-1.26-1.12-1.26S270,19,270,20.29v3.5l-.14.14h-1.68l-.14-.14V17.07l.14-.14h1.54l.14.14.14.42h.14a2.49,2.49,0,0,1,1.83-.7,2.54,2.54,0,0,1,2.66,2.8v4.2Z" transform="translate(-12.88 -14.03)"/><path class="cls-1" d="M282.73,23.23a3.27,3.27,0,0,1-3.5,3.64c-1.69,0-2.81-.84-3-2.1l.14-.14h1.68l.14.14c.15.28.42.42,1,.42,1,0,1.54-.56,1.54-1.82h-.14a2.36,2.36,0,0,1-1.82.7c-1.69,0-3.09-1.4-3.09-3.64s1.4-3.64,3.09-3.64a2.36,2.36,0,0,1,1.82.7h.14l.14-.42.14-.14h1.54l.14.14Zm-3.5-.84c1.12,0,1.54-.84,1.54-2s-.42-2-1.54-2-1.55.84-1.55,2S278.1,22.39,279.23,22.39Z" transform="translate(-12.88 -14.03)"/><path class="cls-1" d="M146.65,40.73H146l-.28-.14-.7-.7h-.14a4.75,4.75,0,0,1-3.08,1c-2.38,0-3.5-1.4-3.5-2.94a2.89,2.89,0,0,1,1.82-2.8V35a2.49,2.49,0,0,1-.84-1.82c0-1.26.84-2.38,2.8-2.38A2.28,2.28,0,0,1,144.55,33a2.71,2.71,0,0,1-1.4,2.38v.14l1.54,1.54h.14a3.57,3.57,0,0,0,.28-1.82l.14-.14h1.54l.14.14a5,5,0,0,1-.7,3.22v.14l.56.56v1.4Zm-3.08-2.24-2.1-2.1h-.14c-.84.42-1.12.84-1.12,1.54s.56,1.26,1.54,1.26a2.51,2.51,0,0,0,1.82-.56Zm-1.68-6c-.56,0-.84.28-.84.7s.28.7.7,1.12h.14c.42-.28.84-.56.84-1.12S142.31,32.47,141.89,32.47Z" transform="translate(-12.88 -14.03)"/><path class="cls-1" d="M159.81,40.73h-1.26l-.14-.14-.7-1.82-.28-.14h-3.5l-.28.14-.7,1.82-.14.14h-1.26l-.14-.14v-1.4l3.22-8.12.14-.14h1.82l.14.14L160,39.19v1.4Zm-4.06-7.28h-.14l-1.26,3.36.14.14h2.38l.14-.14Z" transform="translate(-12.88 -14.03)"/><path class="cls-1" d="M165.55,35.41h-1c-1.12,0-1.54.56-1.54,1.82v3.36l-.14.14h-1.68l-.14-.14V33.87l.14-.14h1.54l.14.14.14.42h.14s.28-.56,1.54-.56h.84l.14.14v1.4Z" transform="translate(-12.88 -14.03)"/><path class="cls-1" d="M169.47,39.19c.7,0,1.12-.28,1.26-.7l.14-.14h1.68l.14.14a2.94,2.94,0,0,1-3.22,2.38,3.35,3.35,0,0,1-3.5-3.64,3.35,3.35,0,0,1,3.5-3.64A2.94,2.94,0,0,1,172.69,36l-.14.14h-1.68l-.14-.14c-.14-.42-.56-.7-1.26-.7-1,0-1.54.7-1.54,2S168.49,39.19,169.47,39.19Z" transform="translate(-12.88 -14.03)"/><path class="cls-1" d="M180.39,40.73h-1.68l-.14-.14V36.53c0-.7-.28-1.26-1.12-1.26s-1.54.56-1.54,1.82v3.5l-.14.14h-1.68l-.14-.14V31.07l.14-.14h1.68l.14.14v3.22h.14a2.47,2.47,0,0,1,1.82-.7,2.54,2.54,0,0,1,2.66,2.8v4.2Z" transform="translate(-12.88 -14.03)"/><path class="cls-1" d="M184,32.61h-1.68l-.14-.14v-1.4l.14-.14H184l.14.14v1.4Zm0,8.12h-1.68l-.14-.14V33.87l.14-.14H184l.14.14v6.72Z" transform="translate(-12.88 -14.03)"/><path class="cls-1" d="M188.51,38.63a.37.37,0,0,0,.42.42h1.26l.14.14v1.4l-.14.14h-1.26c-1.26,0-2.38-.56-2.38-2.1V35.55l-.15-.14h-1l-.14-.14v-1.4l.14-.14h1l.15-.14V32.33l.14-.14h1.68l.14.14v1.26l.14.14h1.54l.14.14v1.4l-.14.14h-1.54l-.14.14Z" transform="translate(-12.88 -14.03)"/><path class="cls-1" d="M197.75,37.79l-.14.14h-4.34l-.14.14a1.27,1.27,0,0,0,1.4,1.12,1.09,1.09,0,0,0,1-.42l.14-.14h1.68l.14.14c-.14.84-.84,2.1-2.94,2.1A3.35,3.35,0,0,1,191,37.23c0-2,1.13-3.64,3.37-3.64s3.36,1.68,3.36,3.64Zm-2.1-1.4a1.27,1.27,0,0,0-2.52,0l.14.14h2.24Z" transform="translate(-12.88 -14.03)"/><path class="cls-1" d="M202.09,39.19c.7,0,1.12-.28,1.26-.7l.14-.14h1.68l.14.14a2.94,2.94,0,0,1-3.22,2.38,3.35,3.35,0,0,1-3.51-3.64,3.35,3.35,0,0,1,3.51-3.64A2.94,2.94,0,0,1,205.31,36l-.14.14h-1.68l-.14-.14c-.14-.42-.56-.7-1.26-.7-1,0-1.54.7-1.54,2S201.11,39.19,202.09,39.19Z" transform="translate(-12.88 -14.03)"/><path class="cls-1" d="M209.09,38.63a.37.37,0,0,0,.42.42h1.26l.14.14v1.4l-.14.14h-1.26c-1.26,0-2.38-.56-2.38-2.1V35.55l-.15-.14h-1l-.14-.14v-1.4l.14-.14h1l.15-.14V32.33l.14-.14H209l.14.14v1.26l.14.14h1.54l.14.14v1.4l-.14.14h-1.54l-.14.14Z" transform="translate(-12.88 -14.03)"/><path class="cls-1" d="M212.31,33.73H214l.14.14v4.06c0,.7.28,1.26,1.12,1.26s1.4-.7,1.4-1.68V33.87l.14-.14h1.68l.14.14v6.72l-.14.14h-1.54l-.14-.14-.14-.42h-.14a1.9,1.9,0,0,1-1.68.7,2.55,2.55,0,0,1-2.67-2.8v-4.2Z" transform="translate(-12.88 -14.03)"/><path class="cls-1" d="M224.77,35.41h-1c-1.12,0-1.54.56-1.54,1.82v3.36l-.15.14h-1.68l-.14-.14V33.87l.14-.14H222l.13.14.15.42h.14s.28-.56,1.54-.56h.84l.14.14v1.4Z" transform="translate(-12.88 -14.03)"/><path class="cls-1" d="M231.35,40.73h-1.54l-.14-.14-.14-.28h-.14a2.29,2.29,0,0,1-1.54.56c-1.55,0-2.53-.84-2.53-2.24,0-2.1,2-2.38,3.09-2.38a3.42,3.42,0,0,1,1,.14l.14-.14v-.14c0-.7-.14-.84-1-.84-.42,0-.84,0-1,.42l-.13.14h-1.69l-.14-.14c0-.84.7-2.1,3-2.1s2.94,1.12,2.94,3.22v3.78Zm-2-2.94a2,2,0,0,0-.84-.14c-.84,0-1.27.28-1.27.84s.28.7,1,.7a1.13,1.13,0,0,0,1.26-1v-.28Z" transform="translate(-12.88 -14.03)"/><path class="cls-1" d="M234.85,40.73h-1.69l-.14-.14V31.07l.14-.14h1.69l.14.14v9.52Z" transform="translate(-12.88 -14.03)"/><path class="cls-1" d="M141.75,57.67c-2.8,0-4.06-1.4-4.06-3.22l.14-.14h1.68l.14.14c0,1,.56,1.54,2.24,1.54,1.26,0,2-.42,2-1.26s-.56-1.26-2.52-1.54-3.5-1-3.5-2.94c0-1.4,1.12-2.66,3.78-2.66s3.78,1.26,3.78,2.94l-.14.14h-1.68l-.14-.14c0-.84-.42-1.26-2-1.26-1.26,0-1.68.42-1.68,1,0,.84.56,1.12,2.52,1.4s3.5,1.12,3.5,3.08C145.81,56.27,144.69,57.67,141.75,57.67Z" transform="translate(-12.88 -14.03)"/><path class="cls-1" d="M150.29,56c.7,0,1.12-.28,1.26-.7l.14-.14h1.68l.14.14a2.94,2.94,0,0,1-3.22,2.38,3.35,3.35,0,0,1-3.5-3.64,3.35,3.35,0,0,1,3.5-3.64,2.94,2.94,0,0,1,3.22,2.38l-.14.14h-1.68l-.14-.14c-.14-.42-.56-.7-1.26-.7-1,0-1.54.7-1.54,2S149.31,56,150.29,56Z" transform="translate(-12.88 -14.03)"/><path class="cls-1" d="M156.59,49.41h-1.68l-.14-.14v-1.4l.14-.14h1.68l.14.14v1.4Zm0,8.12h-1.68l-.14-.14V50.67l.14-.14h1.68l.14.14v6.72Z" transform="translate(-12.88 -14.03)"/><path class="cls-1" d="M164.71,54.59l-.14.14h-4.34l-.14.14a1.27,1.27,0,0,0,1.4,1.12,1.09,1.09,0,0,0,1-.42l.14-.14h1.68l.14.14c-.14.84-.84,2.1-2.94,2.1A3.34,3.34,0,0,1,158,54c0-2,1.12-3.64,3.36-3.64s3.36,1.68,3.36,3.64Zm-2.1-1.4a1.27,1.27,0,0,0-2.52,0l.14.14h2.24Z" transform="translate(-12.88 -14.03)"/><path class="cls-1" d="M172.41,57.53h-1.68l-.14-.14V53.33c0-.7-.28-1.26-1.12-1.26s-1.54.56-1.54,1.82v3.5l-.14.14h-1.68l-.14-.14V50.67l.14-.14h1.54l.14.14.14.42h.14a2.47,2.47,0,0,1,1.82-.7,2.54,2.54,0,0,1,2.66,2.8v4.2Z" transform="translate(-12.88 -14.03)"/><path class="cls-1" d="M177.17,56c.7,0,1.12-.28,1.26-.7l.14-.14h1.68l.14.14a2.94,2.94,0,0,1-3.22,2.38,3.35,3.35,0,0,1-3.5-3.64,3.35,3.35,0,0,1,3.5-3.64,2.94,2.94,0,0,1,3.22,2.38l-.14.14h-1.68l-.14-.14c-.14-.42-.56-.7-1.26-.7-1,0-1.54.7-1.54,2S176.19,56,177.17,56Z" transform="translate(-12.88 -14.03)"/><path class="cls-1" d="M188,54.59l-.14.14h-4.34l-.14.14a1.27,1.27,0,0,0,1.4,1.12,1.09,1.09,0,0,0,1-.42l.14-.14h1.68l.14.14c-.14.84-.84,2.1-2.94,2.1a3.34,3.34,0,0,1-3.5-3.64c0-2,1.12-3.64,3.36-3.64S188,52.07,188,54Zm-2.1-1.4a1.27,1.27,0,0,0-2.52,0l.14.14h2.24Z" transform="translate(-12.88 -14.03)"/><rect class="cls-2" y="8.88" width="104.33" height="44.44"/><rect class="cls-3" x="95.45" width="14.68" height="44.44"/><path class="cls-4" d="M29.29,37.29A3.48,3.48,0,0,0,32,33.77c0-2.31-1.58-3.69-4.23-3.69H21.9l-.14.14V42.3l.14.15H24l.15-.15V37.63l.15-.17h1.94l.31.18,3.57,4.64.34.17h1l.15-.15V40.57l-2.34-3.06v-.22Zm-1.53-1.86H24.28l-.14-.14v-3l.14-.15h3.48c1.27,0,1.84.51,1.84,1.66S29,35.43,27.76,35.43Z" transform="translate(-12.88 -14.03)"/><path class="cls-4" d="M34.61,46c2.55,0,3.21-1.64,3.87-3.29l2.85-7.12V33.79l-.15-.15H39.62l-.15.15L37.29,40h-.2L34.92,33.8l-.16-.16H33.21l-.15.15v1.75l2.85,7v.19c-.17.65-.38,1.26-1.3,1.23h-1l-.15.15V45.8l.15.15Z" transform="translate(-12.88 -14.03)"/><path class="cls-4" d="M50.48,38.88l.14-.14v-.69c0-3.38-2.27-4.58-4.22-4.58s-4.23,1.19-4.23,4.58c0,2.11,1.16,4.58,4.4,4.58,3,0,3.57-2,3.69-2.6l-.14-.14H48l-.15.15a1.44,1.44,0,0,1-1.3.56A1.66,1.66,0,0,1,44.73,39l.14-.15Zm-5.74-1.81a1.66,1.66,0,0,1,3.32,0l-.14.14h-3Z" transform="translate(-12.88 -14.03)"/><path class="cls-4" d="M54.48,34.45l-.22-.65-.15-.16H52.2l-.15.15V42.3l.15.15h2.09l.14-.15V38.05c0-1.69.59-2.38,2-2.38h1.23l.14-.14V33.79l-.14-.14h-1c-1.64,0-2,.8-2,.8Z" transform="translate(-12.88 -14.03)"/><path class="cls-4" d="M63.29,37.21l-.55-.08c-.88-.13-1.64-.23-1.64-.87s.5-.76,1.3-.76,1.29.17,1.3.56l.15.15h2.09l.14-.15c0-1.6-1.42-2.59-3.68-2.59s-3.69,1-3.69,2.61,1.12,2.43,3.34,2.8l.4.06c.86.13,1.43.22,1.43.89s-.84.77-1.48.77-1.47-.12-1.48-.93l-.14-.14h-2.1l-.14.14c0,1.82,1.49,2.95,3.86,2.95,1.87,0,3.87-.73,3.87-2.79S64.26,37.37,63.29,37.21Z" transform="translate(-12.88 -14.03)"/><path class="cls-4" d="M71.68,33.47a4.21,4.21,0,0,0-4.4,4.58,4.21,4.21,0,0,0,4.4,4.58c2.68,0,4.4-1.8,4.4-4.58S74.36,33.47,71.68,33.47Zm0,7.13c-1.28,0-2-.94-2-2.56s.74-2.55,2-2.55,2,.93,2,2.55S73,40.6,71.68,40.6Z" transform="translate(-12.88 -14.03)"/><path class="cls-4" d="M83.49,42.45h2.1l.14-.15V37a3.18,3.18,0,0,0-3.33-3.51,3.14,3.14,0,0,0-2.36,1h-.16l-.2-.63-.15-.16H77.61l-.14.15V42.3l.14.15H79.7l.15-.15V37.87c0-1.58.68-2.37,2-2.37,1,0,1.48.57,1.48,1.66V42.3Z" transform="translate(-12.88 -14.03)"/><path class="cls-4" d="M31.63,46.24l-.14-.15h-2.1l-.14.15V53.7c0,1.93-.86,2.91-2.56,2.91s-2.55-1-2.55-2.91V46.24L24,46.09H21.91l-.15.15V53.7c0,3.18,1.76,4.94,4.94,4.94s4.93-1.76,4.93-4.94V46.24Z" transform="translate(-12.88 -14.03)"/><polygon class="cls-4" points="30.72 32.06 30.58 32.21 30.58 33.95 30.72 34.09 32.81 34.09 32.96 33.95 32.96 32.21 32.81 32.06 30.72 32.06"/><polygon class="cls-4" points="32.81 44.43 32.96 44.28 32.96 35.77 32.81 35.63 30.72 35.63 30.58 35.77 30.58 44.28 30.72 44.43 32.81 44.43"/><polygon class="cls-4" points="40.95 35.63 40.8 35.78 38.61 41.43 38.43 41.43 36.25 35.78 36.09 35.63 34.53 35.63 34.39 35.77 34.39 37.52 37.41 44.27 37.56 44.43 39.48 44.43 39.63 44.27 42.66 37.52 42.66 35.77 42.51 35.63 40.95 35.63"/><path class="cls-4" d="M77.45,53.22l-.55-.08c-.88-.12-1.64-.23-1.64-.87s.5-.76,1.3-.76,1.29.17,1.3.56l.15.15H80.1l.15-.15c0-1.6-1.43-2.59-3.69-2.59s-3.69,1-3.69,2.62c0,1.48,1.13,2.43,3.34,2.79l.4.07c.86.13,1.43.21,1.43.88s-.84.77-1.48.77-1.47-.11-1.48-.93l-.14-.14H72.85l-.15.14c0,1.82,1.49,3,3.87,3,1.86,0,3.86-.74,3.86-2.8S78.42,53.38,77.45,53.22Z" transform="translate(-12.88 -14.03)"/><polygon class="cls-4" points="71.22 44.43 71.37 44.28 71.37 35.77 71.22 35.63 69.13 35.63 68.98 35.77 68.98 44.28 69.13 44.43 71.22 44.43"/><polygon class="cls-4" points="69.13 32.06 68.98 32.21 68.98 33.95 69.13 34.09 71.22 34.09 71.37 33.95 71.37 32.21 71.22 32.06 69.13 32.06"/><path class="cls-4" d="M90.08,58.46h1.58l.14-.15V56.58l-.14-.15H90.08a.52.52,0,0,1-.59-.59v-4l.14-.14h2l.15-.15V49.81l-.15-.15h-2l-.14-.14V47.85l-.15-.15H87.25l-.14.15v1.67l-.15.14H85.65l-.15.15v1.73l.15.15H87l.14.14v4C87.1,58.21,89.18,58.46,90.08,58.46Z" transform="translate(-12.88 -14.03)"/><path class="cls-4" d="M39.43,58.46h2.09l.15-.15V53a3.18,3.18,0,0,0-3.33-3.51,3.14,3.14,0,0,0-2.36,1h-.16l-.21-.63-.15-.15H33.55l-.15.14v8.51l.15.15h2.09l.14-.15V53.88c0-1.58.68-2.37,2-2.37,1,0,1.48.57,1.48,1.66v5.15Z" transform="translate(-12.88 -14.03)"/><path class="cls-4" d="M64.64,54.89l.14-.14v-.69c0-3.38-2.27-4.58-4.22-4.58s-4.23,1.2-4.23,4.58c0,2.11,1.16,4.58,4.41,4.58,3,0,3.56-2,3.68-2.6l-.14-.14H62.19l-.16.15a1.42,1.42,0,0,1-1.29.56A1.65,1.65,0,0,1,58.9,55l.13-.15Zm-5.74-1.8a1.66,1.66,0,0,1,3.32,0l-.13.14H59Z" transform="translate(-12.88 -14.03)"/><path class="cls-4" d="M68.65,50.46l-.22-.65-.15-.15H66.36l-.14.14v8.52l.14.14h2.09l.15-.14V54.06c0-1.69.58-2.37,2-2.37h1.22l.14-.15V49.8l-.14-.14h-1c-1.63,0-2,.8-2,.8Z" transform="translate(-12.88 -14.03)"/><path class="cls-4" d="M94.44,62c2.54,0,3.21-1.65,3.86-3.3l2.85-7.12V49.8l-.14-.14H99.45l-.15.15L97.12,56h-.21l-2.17-6.16-.15-.15H93l-.14.14v1.75l2.85,7v.2c-.21.65-.47,1.22-1.3,1.22h-.87l-.15.15v1.73l.15.15h.87Z" transform="translate(-12.88 -14.03)"/></svg>