<?xml version="1.0" encoding="UTF-8" standalone="no"?>
<svg
   xmlns:dc="http://purl.org/dc/elements/1.1/"
   xmlns:cc="http://creativecommons.org/ns#"
   xmlns:rdf="http://www.w3.org/1999/02/22-rdf-syntax-ns#"
   xmlns:svg="http://www.w3.org/2000/svg"
   xmlns="http://www.w3.org/2000/svg"
   xmlns:sodipodi="http://sodipodi.sourceforge.net/DTD/sodipodi-0.dtd"
   xmlns:inkscape="http://www.inkscape.org/namespaces/inkscape"
   inkscape:version="1.0 (4035a4fb49, 2020-05-01)"
   sodipodi:docname="fos_logo.svg"
   version="1.1"
   viewBox="0 0 188.93 53.32"
   data-name="Layer 1"
   id="Layer_1">
  <metadata
     id="metadata83">
    <rdf:RDF>
      <cc:Work
         rdf:about="">
        <dc:format>image/svg+xml</dc:format>
        <dc:type
           rdf:resource="http://purl.org/dc/dcmitype/StillImage" />
      </cc:Work>
    </rdf:RDF>
  </metadata>
  <sodipodi:namedview
     inkscape:current-layer="Layer_1"
     inkscape:window-maximized="1"
     inkscape:window-y="-8"
     inkscape:window-x="-8"
     inkscape:cy="26.66"
     inkscape:cx="94.464996"
     inkscape:zoom="5.5523212"
     showgrid="false"
     id="namedview81"
     inkscape:window-height="1377"
     inkscape:window-width="2560"
     inkscape:pageshadow="2"
     inkscape:pageopacity="0"
     guidetolerance="10"
     gridtolerance="10"
     objecttolerance="10"
     borderopacity="1"
     bordercolor="#666666"
     pagecolor="#ffffff" />
  <defs
     id="defs4">
    <style
       id="style2">.cls-1{fill:#231f20;}.cls-2{fill:#084e99;}.cls-3{fill:#fedc00;}.cls-4{fill:#fff;}</style>
  </defs>
  <path
     style="fill:#000012;fill-opacity:1"
     id="path6"
     transform="translate(-12.88 -14.03)"
     d="M144.69,15.71h-4.34l-.14.14V18l.14.14h4.06l.14.14v1.4l-.14.14h-4.06l-.14.14V23.7l-.14.14h-1.68l-.14-.14V14.17l.14-.14h6.3l.14.14v1.4Z"
     class="cls-1" />
  <path
     style="fill:#000012;fill-opacity:1"
     id="path8"
     transform="translate(-12.88 -14.03)"
     d="M151.69,23.84h-1.54L150,23.7l-.14-.28h-.14a2.29,2.29,0,0,1-1.54.56,2.22,2.22,0,0,1-2.52-2.25c0-2.1,2-2.38,3.08-2.38a3.42,3.42,0,0,1,1,.14l.14-.14v-.14c0-.7-.14-.84-1-.84-.42,0-.84,0-1,.42l-.14.14h-1.68l-.14-.14c0-.84.7-2.1,2.94-2.1s2.94,1.12,2.94,3.22V23.7Zm-2-2.95a2,2,0,0,0-.84-.14q-1.26,0-1.26.84c0,.43.28.71,1,.71a1.13,1.13,0,0,0,1.26-1V21Z"
     class="cls-1" />
  <path
     style="fill:#000012;fill-opacity:1"
     id="path10"
     transform="translate(-12.88 -14.03)"
     d="M156.45,22.3c.7,0,1.12-.28,1.26-.71l.14-.14h1.68l.14.14A2.94,2.94,0,0,1,156.45,24a3.35,3.35,0,0,1-3.5-3.65,3.35,3.35,0,0,1,3.5-3.64,2.94,2.94,0,0,1,3.22,2.38l-.14.14h-1.68l-.14-.14c-.14-.42-.56-.7-1.26-.7-1,0-1.54.7-1.54,2S155.47,22.3,156.45,22.3Z"
     class="cls-1" />
  <path
     style="fill:#000012;fill-opacity:1"
     id="path12"
     transform="translate(-12.88 -14.03)"
     d="M160.93,16.83h1.68l.14.14V21c0,.7.28,1.27,1.12,1.27s1.4-.71,1.4-1.69V17l.14-.14h1.68l.14.14V23.7l-.14.14h-1.54l-.14-.14-.14-.42h-.14a1.9,1.9,0,0,1-1.68.7,2.54,2.54,0,0,1-2.66-2.81V17Z"
     class="cls-1" />
  <path
     style="fill:#000012;fill-opacity:1"
     id="path14"
     transform="translate(-12.88 -14.03)"
     d="M170.73,23.84h-1.68l-.14-.14V14.17l.14-.14h1.68l.14.14V23.7Z"
     class="cls-1" />
  <path
     style="fill:#000012;fill-opacity:1"
     id="path16"
     transform="translate(-12.88 -14.03)"
     d="M175.21,21.73a.37.37,0,0,0,.42.42h1.26l.14.15v1.4l-.14.14h-1.26c-1.26,0-2.38-.56-2.38-2.11V18.65l-.14-.14h-1l-.14-.14V17l.14-.14h1l.14-.14V15.43l.14-.14h1.68l.14.14v1.26l.14.14h1.54L177,17v1.4l-.14.14h-1.54l-.14.14Z"
     class="cls-1" />
  <path
     style="fill:#000012;fill-opacity:1"
     id="path18"
     transform="translate(-12.88 -14.03)"
     d="M182.35,24c-.56,1.4-1.12,2.24-3.08,2.24h-.7l-.14-.14v-1.4l.14-.14h.7c.7,0,.84-.14,1-.56v-.14L178,18.37V17l.14-.14h1.26l.14.14,1.68,4.76h.14L183.05,17l.14-.14h1.26l.14.14v1.4Z"
     class="cls-1" />
  <path
     style="fill:#000012;fill-opacity:1"
     id="path20"
     transform="translate(-12.88 -14.03)"
     d="M192.57,24a3.36,3.36,0,0,1-3.51-3.65,3.51,3.51,0,1,1,7,0A3.35,3.35,0,0,1,192.57,24Zm0-5.61c-1,0-1.54.7-1.54,2s.56,2,1.54,2,1.54-.71,1.54-2S193.55,18.37,192.57,18.37Z"
     class="cls-1" />
  <path
     style="fill:#000012;fill-opacity:1"
     id="path22"
     transform="translate(-12.88 -14.03)"
     d="M201.81,14.17v1.4l-.14.14h-1.26a.37.37,0,0,0-.42.42v.56l.14.14h1.4l.14.14v1.4l-.14.14h-1.4l-.14.14V23.7l-.14.14h-1.68L198,23.7V18.65l-.13-.14h-1l-.14-.14V17l.14-.14h1l.13-.14v-.56c0-1.54,1.13-2.1,2.39-2.1h1.26Z"
     class="cls-1" />
  <path
     style="fill:#000012;fill-opacity:1"
     id="path24"
     transform="translate(-12.88 -14.03)"
     d="M141.75,40.78c-2.8,0-4.06-1.4-4.06-3.23l.14-.14h1.68l.14.14c0,1,.56,1.55,2.24,1.55,1.26,0,2-.42,2-1.27s-.56-1.26-2.52-1.54-3.5-1-3.5-2.94c0-1.4,1.12-2.66,3.78-2.66s3.78,1.26,3.78,2.94l-.14.14h-1.68l-.14-.14c0-.84-.42-1.26-2-1.26-1.26,0-1.68.42-1.68,1,0,.84.56,1.12,2.52,1.4s3.5,1.12,3.5,3.08C145.81,39.38,144.69,40.78,141.75,40.78Z"
     class="cls-1" />
  <path
     style="fill:#000012;fill-opacity:1"
     id="path26"
     transform="translate(-12.88 -14.03)"
     d="M150.29,39.1c.7,0,1.12-.28,1.26-.7l.14-.15h1.68l.14.15a2.94,2.94,0,0,1-3.22,2.38,3.35,3.35,0,0,1-3.5-3.65,3.35,3.35,0,0,1,3.5-3.64,2.94,2.94,0,0,1,3.22,2.38l-.14.14h-1.68l-.14-.14c-.14-.42-.56-.7-1.26-.7-1,0-1.54.7-1.54,2S149.31,39.1,150.29,39.1Z"
     class="cls-1" />
  <path
     style="fill:#000012;fill-opacity:1"
     id="path28"
     transform="translate(-12.88 -14.03)"
     d="M156.59,32.51h-1.68l-.14-.14V31l.14-.14h1.68l.14.14v1.4Zm0,8.13h-1.68l-.14-.14V33.77l.14-.14h1.68l.14.14V40.5Z"
     class="cls-1" />
  <path
     style="fill:#000012;fill-opacity:1"
     id="path30"
     transform="translate(-12.88 -14.03)"
     d="M164.71,37.69l-.14.14h-4.34l-.14.14a1.27,1.27,0,0,0,1.4,1.13,1.09,1.09,0,0,0,1-.42l.14-.15h1.68l.14.15c-.14.84-.84,2.1-2.94,2.1a3.34,3.34,0,0,1-3.5-3.65c0-2,1.12-3.64,3.36-3.64s3.36,1.68,3.36,3.64Zm-2.1-1.4a1.27,1.27,0,0,0-2.52,0l.14.14h2.24Z"
     class="cls-1" />
  <path
     style="fill:#000012;fill-opacity:1"
     id="path32"
     transform="translate(-12.88 -14.03)"
     d="M172.41,40.64h-1.68l-.14-.14V36.43c0-.7-.28-1.26-1.12-1.26s-1.54.56-1.54,1.82V40.5l-.14.14h-1.68L166,40.5V33.77l.14-.14h1.54l.14.14.14.42h.14a2.47,2.47,0,0,1,1.82-.7,2.54,2.54,0,0,1,2.66,2.8V40.5Z"
     class="cls-1" />
  <path
     style="fill:#000012;fill-opacity:1"
     id="path34"
     transform="translate(-12.88 -14.03)"
     d="M177.17,39.1c.7,0,1.12-.28,1.26-.7l.14-.15h1.68l.14.15a2.94,2.94,0,0,1-3.22,2.38,3.35,3.35,0,0,1-3.5-3.65,3.35,3.35,0,0,1,3.5-3.64,2.94,2.94,0,0,1,3.22,2.38l-.14.14h-1.68l-.14-.14c-.14-.42-.56-.7-1.26-.7-1,0-1.54.7-1.54,2S176.19,39.1,177.17,39.1Z"
     class="cls-1" />
  <path
     style="fill:#000012;fill-opacity:1"
     id="path36"
     transform="translate(-12.88 -14.03)"
     d="M188,37.69l-.14.14h-4.34l-.14.14a1.27,1.27,0,0,0,1.4,1.13,1.09,1.09,0,0,0,1-.42l.14-.15h1.68l.14.15c-.14.84-.84,2.1-2.94,2.1a3.34,3.34,0,0,1-3.5-3.65c0-2,1.12-3.64,3.36-3.64S188,35.17,188,37.13Zm-2.1-1.4a1.27,1.27,0,0,0-2.52,0l.14.14h2.24Z"
     class="cls-1" />
  <rect
     id="rect38"
     height="44.44"
     width="104.33"
     y="8.88"
     class="cls-2" />
  <rect
     id="rect40"
     height="44.44"
     width="14.68"
     x="95.45"
     class="cls-3" />
  <path
     id="path42"
     transform="translate(-12.88 -14.03)"
     d="M29.29,37.29A3.48,3.48,0,0,0,32,33.77c0-2.31-1.58-3.69-4.23-3.69H21.9l-.14.14V42.3l.14.15H24l.15-.15V37.63l.15-.17h1.94l.31.18,3.57,4.64.34.17h1l.15-.15V40.57l-2.34-3.06v-.22Zm-1.53-1.86H24.28l-.14-.14v-3l.14-.15h3.48c1.27,0,1.84.51,1.84,1.66S29,35.43,27.76,35.43Z"
     class="cls-4" />
  <path
     id="path44"
     transform="translate(-12.88 -14.03)"
     d="M34.61,46c2.55,0,3.21-1.64,3.87-3.29l2.85-7.12V33.79l-.15-.15H39.62l-.15.15L37.29,40h-.2L34.92,33.8l-.16-.16H33.21l-.15.15v1.75l2.85,7v.19c-.17.65-.38,1.26-1.3,1.23h-1l-.15.15V45.8l.15.15Z"
     class="cls-4" />
  <path
     id="path46"
     transform="translate(-12.88 -14.03)"
     d="M50.48,38.88l.14-.14v-.69c0-3.38-2.27-4.58-4.22-4.58s-4.23,1.19-4.23,4.58c0,2.11,1.16,4.58,4.4,4.58,3,0,3.57-2,3.69-2.6l-.14-.14H48l-.15.15a1.44,1.44,0,0,1-1.3.56A1.66,1.66,0,0,1,44.73,39l.14-.15Zm-5.74-1.81a1.66,1.66,0,0,1,3.32,0l-.14.14h-3Z"
     class="cls-4" />
  <path
     id="path48"
     transform="translate(-12.88 -14.03)"
     d="M54.48,34.45l-.22-.65-.15-.16H52.2l-.15.15V42.3l.15.15h2.09l.14-.15V38.05c0-1.69.59-2.38,2-2.38h1.23l.14-.14V33.79l-.14-.14h-1c-1.64,0-2,.8-2,.8Z"
     class="cls-4" />
  <path
     id="path50"
     transform="translate(-12.88 -14.03)"
     d="M63.29,37.21l-.55-.08c-.88-.13-1.64-.23-1.64-.87s.5-.76,1.3-.76,1.29.17,1.3.56l.15.15h2.09l.14-.15c0-1.6-1.42-2.59-3.68-2.59s-3.69,1-3.69,2.61,1.12,2.43,3.34,2.8l.4.06c.86.13,1.43.22,1.43.89s-.84.77-1.48.77-1.47-.12-1.48-.93l-.14-.14h-2.1l-.14.14c0,1.82,1.49,2.95,3.86,2.95,1.87,0,3.87-.73,3.87-2.79S64.26,37.37,63.29,37.21Z"
     class="cls-4" />
  <path
     id="path52"
     transform="translate(-12.88 -14.03)"
     d="M71.68,33.47a4.21,4.21,0,0,0-4.4,4.58,4.21,4.21,0,0,0,4.4,4.58c2.68,0,4.4-1.8,4.4-4.58S74.36,33.47,71.68,33.47Zm0,7.13c-1.28,0-2-.94-2-2.56s.74-2.55,2-2.55,2,.93,2,2.55S73,40.6,71.68,40.6Z"
     class="cls-4" />
  <path
     id="path54"
     transform="translate(-12.88 -14.03)"
     d="M83.49,42.45h2.1l.14-.15V37a3.18,3.18,0,0,0-3.33-3.51,3.14,3.14,0,0,0-2.36,1h-.16l-.2-.63-.15-.16H77.61l-.14.15V42.3l.14.15H79.7l.15-.15V37.87c0-1.58.68-2.37,2-2.37,1,0,1.48.57,1.48,1.66V42.3Z"
     class="cls-4" />
  <path
     id="path56"
     transform="translate(-12.88 -14.03)"
     d="M31.63,46.24l-.14-.15h-2.1l-.14.15V53.7c0,1.93-.86,2.91-2.56,2.91s-2.55-1-2.55-2.91V46.24L24,46.09H21.91l-.15.15V53.7c0,3.18,1.76,4.94,4.94,4.94s4.93-1.76,4.93-4.94V46.24Z"
     class="cls-4" />
  <polygon
     id="polygon58"
     points="30.72 32.06 30.58 32.21 30.58 33.95 30.72 34.09 32.81 34.09 32.96 33.95 32.96 32.21 32.81 32.06 30.72 32.06"
     class="cls-4" />
  <polygon
     id="polygon60"
     points="32.81 44.43 32.96 44.28 32.96 35.77 32.81 35.63 30.72 35.63 30.58 35.77 30.58 44.28 30.72 44.43 32.81 44.43"
     class="cls-4" />
  <polygon
     id="polygon62"
     points="40.95 35.63 40.8 35.78 38.61 41.43 38.43 41.43 36.25 35.78 36.09 35.63 34.53 35.63 34.39 35.77 34.39 37.52 37.41 44.27 37.56 44.43 39.48 44.43 39.63 44.27 42.66 37.52 42.66 35.77 42.51 35.63 40.95 35.63"
     class="cls-4" />
  <path
     id="path64"
     transform="translate(-12.88 -14.03)"
     d="M77.45,53.22l-.55-.08c-.88-.12-1.64-.23-1.64-.87s.5-.76,1.3-.76,1.29.17,1.3.56l.15.15H80.1l.15-.15c0-1.6-1.43-2.59-3.69-2.59s-3.69,1-3.69,2.62c0,1.48,1.13,2.43,3.34,2.79l.4.07c.86.13,1.43.21,1.43.88s-.84.77-1.48.77-1.47-.11-1.48-.93l-.14-.14H72.85l-.15.14c0,1.82,1.49,3,3.87,3,1.86,0,3.86-.74,3.86-2.8S78.42,53.38,77.45,53.22Z"
     class="cls-4" />
  <polygon
     id="polygon66"
     points="71.22 44.43 71.37 44.28 71.37 35.77 71.22 35.63 69.13 35.63 68.98 35.77 68.98 44.28 69.13 44.43 71.22 44.43"
     class="cls-4" />
  <polygon
     id="polygon68"
     points="69.13 32.06 68.98 32.21 68.98 33.95 69.13 34.09 71.22 34.09 71.37 33.95 71.37 32.21 71.22 32.06 69.13 32.06"
     class="cls-4" />
  <path
     id="path70"
     transform="translate(-12.88 -14.03)"
     d="M90.08,58.46h1.58l.14-.15V56.58l-.14-.15H90.08a.52.52,0,0,1-.59-.59v-4l.14-.14h2l.15-.15V49.81l-.15-.15h-2l-.14-.14V47.85l-.15-.15H87.25l-.14.15v1.67l-.15.14H85.65l-.15.15v1.73l.15.15H87l.14.14v4C87.1,58.21,89.18,58.46,90.08,58.46Z"
     class="cls-4" />
  <path
     id="path72"
     transform="translate(-12.88 -14.03)"
     d="M39.43,58.46h2.09l.15-.15V53a3.18,3.18,0,0,0-3.33-3.51,3.14,3.14,0,0,0-2.36,1h-.16l-.21-.63-.15-.15H33.55l-.15.14v8.51l.15.15h2.09l.14-.15V53.88c0-1.58.68-2.37,2-2.37,1,0,1.48.57,1.48,1.66v5.15Z"
     class="cls-4" />
  <path
     id="path74"
     transform="translate(-12.88 -14.03)"
     d="M64.64,54.89l.14-.14v-.69c0-3.38-2.27-4.58-4.22-4.58s-4.23,1.2-4.23,4.58c0,2.11,1.16,4.58,4.41,4.58,3,0,3.56-2,3.68-2.6l-.14-.14H62.19l-.16.15a1.42,1.42,0,0,1-1.29.56A1.65,1.65,0,0,1,58.9,55l.13-.15Zm-5.74-1.8a1.66,1.66,0,0,1,3.32,0l-.13.14H59Z"
     class="cls-4" />
  <path
     id="path76"
     transform="translate(-12.88 -14.03)"
     d="M68.65,50.46l-.22-.65-.15-.15H66.36l-.14.14v8.52l.14.14h2.09l.15-.14V54.06c0-1.69.58-2.37,2-2.37h1.22l.14-.15V49.8l-.14-.14h-1c-1.63,0-2,.8-2,.8Z"
     class="cls-4" />
  <path
     id="path78"
     transform="translate(-12.88 -14.03)"
     d="M94.44,62c2.54,0,3.21-1.65,3.86-3.3l2.85-7.12V49.8l-.14-.14H99.45l-.15.15L97.12,56h-.21l-2.17-6.16-.15-.15H93l-.14.14v1.75l2.85,7v.2c-.21.65-.47,1.22-1.3,1.22h-.87l-.15.15v1.73l.15.15h.87Z"
     class="cls-4" />
</svg>
