<svg xmlns="http://www.w3.org/2000/svg" height="154.4" width="584.6" viewBox="0 0 584.59998 154.39999">
    <!-- Border -->
    <path fill="none" stroke="#fff" stroke-width="3" d="M53.1 34.1H.5v119.8h119.4V76.5"/>

    <!-- Logo N -->
    <path fill="#e52025" d="M 92.7,28.4 C 77,62.9 35.1,120.2 27.3,122 19.2,123.8 51.7,53 55.1,45.9 58.5,39 61.6,24.6 39.6,41 17.4,57.3 1.5,89.1 1.5,101.7 l 3.8,28.9 c 3.8,-26.4 6,-36.5 13.9,-52.4 8.1,-15.9 19,-27.3 17.5,-13.9 -1.8,13.2 -21.1,56.4 -24,68.1 -3.1,11.4 3.6,13.4 12.1,4.5 l 99,-123.6 z"/>

    <!-- Logo W -->
    <path fill="#fff" d="M 22.9,147.7 130.4,9 148.8,0 38.1,139.8 c 3.6,-0.2 37.4,-26.9 40.5,-35.8 3.1,-9 11.4,-3.4 5.6,7.2 -5.8,10.8 -10.5,20.4 -10.5,20.4 0,0 14.1,-0.4 28.4,-18.4 11.6,-14.1 15.2,-27.5 16.3,-41.7 0.5,-4.9 0,-9.4 -1.8,-15 2.2,3.6 5.6,15.7 3.4,25.8 -2,10.1 -7.2,24.9 -20.4,38.5 -13.4,13.7 -27.3,21.9 -30.9,22.2 -3.4,0.4 -4.7,-6.5 -0.2,-14.3 4.5,-7.8 7.2,-16.3 7.2,-16.3 0,0 -13.9,13.7 -21.1,20.6 -7.2,6.9 -20.4,18.4 -24.9,20.4 -4.3,1.9 -10.2,-1.5 -6.8,-5.7"/>

	<!-- NEURONIC -->
    <path fill="#e52025" d="m 233.5,57 26.9,0 0,6.6 -26.9,0 z m -37.8,-14.9 0,24.7 -31.5,-24.7 -6.3,0 0,37.2 8.3,0 0,-25.1 31.4,25.1 6.3,0 0,-37.2 z m 24.8,0 0,37.2 40.4,0 0,-7 -31.2,0 0,-23.7 30.7,0 0,-6.5 z m 88.4,0 0,30.2 -25.9,0 0,-30.2 -9,0 0,28.4 c 0,3.4 0.7,5.7 2,7 1.3,1.2 3.9,1.8 7.7,1.8 l 24.6,0 c 3.8,0 6.4,-0.6 7.8,-1.9 1.4,-1.2 2,-3.6 2,-6.9 l 0,-28.4 z m 25.7,0 0,6.4 29.6,0 c 1.6,0 2.7,0.2 3.2,0.7 0.6,0.5 0.9,1.2 0.9,2.3 l 0,4.3 c 0,1.1 -0.3,1.9 -0.9,2.3 -0.6,0.5 -1.7,0.7 -3.2,0.7 l -29.6,0 0,20.5 8.9,0 0,-14.1 8.6,0 15.6,14.1 13,0 -17.7,-14.1 5.1,0 c 3.1,0 5.3,-0.6 6.7,-1.7 1.4,-1.1 2.1,-2.9 2.1,-5.5 l 0,-8.8 c 0,-2.5 -0.7,-4.4 -2.1,-5.5 -1.4,-1.1 -3.6,-1.7 -6.7,-1.7 l -33.5,0 z m 65.4,6.8 30,0 0,23.2 -30,0 z m 0.6,-6.8 c -3.8,0 -6.4,0.6 -7.7,1.9 -1.3,1.2 -2,3.5 -2,6.9 l 0,19.6 c 0,3.4 0.7,5.7 2,7 1.3,1.2 3.9,1.8 7.7,1.8 l 28.8,0 c 3.8,0 6.3,-0.6 7.7,-1.8 1.3,-1.2 2,-3.6 2,-7 l 0,-19.7 c 0,-3.4 -0.7,-5.7 -2,-6.9 -1.3,-1.2 -3.9,-1.9 -7.7,-1.9 l -28.8,0 z m 91.9,0 0,24.7 -31.6,-24.7 -6.2,0 0,37.2 8.2,0 0,-25.1 31.5,25.1 6.3,0 0,-37.2 z m 59.2,0 c -3.8,0 -6.3,0.6 -7.7,1.9 -1.3,1.2 -2,3.5 -2,6.9 l 0,19.6 c 0,3.4 0.7,5.7 2,7 1.4,1.2 3.9,1.8 7.7,1.8 l 23.2,0 c 3.8,0 6.4,-0.6 7.7,-1.9 1.3,-1.2 2,-3.6 2,-6.9 l 0,-4.4 -9.1,-1.8 0,7.9 -24.4,0 0,-23.3 24.4,0 0,6.9 9.1,-1.3 0,-3.6 c 0,-3.4 -0.7,-5.7 -2,-6.9 -1.3,-1.2 -3.9,-1.9 -7.8,-1.9 z m -34.4,0 0,5.5 9,3.3 0,-8.8 z m 0,37.2 9,0 0,-23.6 -9,-3.3 z"/>

    <!-- WORKS -->
    <path fill="#fff" d="m 246.7,91.5 -15.2,41.9 -16.8,-41.9 -10.2,0 -16.6,41.9 -15.8,-41.9 -15,0 24,62.5 10,0 17.5,-43.2 17.2,43.2 9.8,0 24.1,-62.5 z m 36.2,11.2 47.9,0 0,39.5 -47.9,0 z m 0.9,-11.2 c -6.1,0 -10.2,1 -12.3,3.1 -2.1,2.1 -3.2,6 -3.2,11.6 l 0,32.9 c 0,5.7 1.1,9.6 3.2,11.7 2.1,2.1 6.2,3.1 12.3,3.1 l 46,0 c 6.1,0 10.2,-1 12.3,-3.1 2.1,-2.1 3.2,-6 3.2,-11.7 l 0,-32.9 c 0,-5.7 -1.1,-9.6 -3.2,-11.6 -2.1,-2.1 -6.2,-3.1 -12.3,-3.1 z m 70.8,0 0,10.8 47,0 c 2.5,0 4.2,0.4 5.2,1.1 0.9,0.7 1.4,2 1.4,3.8 l 0,7.5 c 0,1.8 -0.5,3.1 -1.4,3.9 -0.9,0.7 -2.7,1.1 -5.2,1.1 l -47,0 0,34.3 14.3,0 0,-23.6 13.8,0 25.2,23.6 20.9,0 -28.8,-23.6 8.2,0 c 5,0 8.6,-1 10.8,-2.9 2.2,-1.9 3.3,-5 3.3,-9.2 l 0,-14.6 c 0,-4.3 -1.1,-7.3 -3.3,-9.2 -2.2,-1.9 -5.8,-2.9 -10.8,-2.9 l -53.6,0 z m 128.6,0 -34.6,26.1 0,-26.1 -14.7,0 0,62.5 14.7,0 0,-27.5 37.4,27.5 23.3,0 -46.4,-33 41.3,-29.5 z m 48.6,0 c -6.1,0 -10.2,1 -12.3,3.1 -2.1,2.1 -3.2,6 -3.2,11.6 l 0,6.9 c 0,5.7 1.1,9.6 3.2,11.6 2.1,2.1 6.2,3.1 12.3,3.1 l 38.9,0 0,14.2 -44.1,0 0,-7.4 -12.8,2.7 0,1.7 c 0,5.7 1.1,9.5 3.2,11.6 2.1,2.1 6.3,3.1 12.4,3.1 l 38.6,0 c 6.1,0 10.2,-1 12.4,-3.1 2.1,-2.1 3.2,-6 3.2,-11.6 l 0,-8.6 c 0,-5.7 -1.1,-9.5 -3.2,-11.6 -2.1,-2.1 -6.3,-3.1 -12.4,-3.1 l -38.9,0 0,-13.2 40.9,0 0,7.1 12.8,-3 0,-1.3 c 0,-5.1 -1.1,-8.7 -3.3,-10.7 -2.2,-2 -6.3,-3 -12.1,-3 l -35.6,0 z"/>
</svg>