<?xml version="1.0" encoding="UTF-8" standalone="no"?>
<svg
   xmlns:dc="http://purl.org/dc/elements/1.1/"
   xmlns:cc="http://creativecommons.org/ns#"
   xmlns:rdf="http://www.w3.org/1999/02/22-rdf-syntax-ns#"
   xmlns:svg="http://www.w3.org/2000/svg"
   xmlns="http://www.w3.org/2000/svg"
   xmlns:sodipodi="http://sodipodi.sourceforge.net/DTD/sodipodi-0.dtd"
   xmlns:inkscape="http://www.inkscape.org/namespaces/inkscape"
   inkscape:version="1.0 (4035a4fb49, 2020-05-01)"
   sodipodi:docname="nvidia_logo.svg"
   xml:space="preserve"
   style="enable-background:new 0 0 351.5 258.8;"
   viewBox="0 0 351.5 258.8"
   y="0px"
   x="0px"
   id="svg2"
   version="1.1"><metadata
   id="metadata11"><rdf:RDF><cc:Work
       rdf:about=""><dc:format>image/svg+xml</dc:format><dc:type
         rdf:resource="http://purl.org/dc/dcmitype/StillImage" /><dc:title>generated by pstoedit version:3.44 from NVBadge_2D.eps</dc:title></cc:Work></rdf:RDF></metadata><defs
   id="defs9" /><sodipodi:namedview
   inkscape:current-layer="svg2"
   inkscape:window-maximized="0"
   inkscape:window-y="0"
   inkscape:window-x="-7"
   inkscape:cy="129.39999"
   inkscape:cx="175.75"
   inkscape:zoom="2.9843528"
   showgrid="false"
   id="namedview7"
   inkscape:window-height="1368"
   inkscape:window-width="1278"
   inkscape:pageshadow="2"
   inkscape:pageopacity="0"
   guidetolerance="10"
   gridtolerance="10"
   objecttolerance="10"
   borderopacity="1"
   bordercolor="#666666"
   pagecolor="#ffffff" />
<title
   id="title4">generated by pstoedit version:3.44 from NVBadge_2D.eps</title>
<path
   d="M349,250.6c0,3.8-2.8,6.3-6,6.3v0c-3.4,0-6.1-2.5-6.1-6.3c0-3.8,2.7-6.3,6.1-6.3  C346.2,244.3,349,246.8,349,250.6z M351.5,250.6c0-5.2-4-8.2-8.5-8.2c-4.5,0-8.5,3-8.5,8.2c0,5.2,4,8.2,8.5,8.2  C347.4,258.8,351.5,255.8,351.5,250.6 M341.6,251.3h0.9l2.1,3.7h2.3l-2.3-3.9c1.2-0.1,2.2-0.7,2.2-2.3c0-2-1.4-2.7-3.8-2.7h-3.4v8.8  h2L341.6,251.3 M341.6,249.8v-2.1h1.4c0.7,0,1.8,0.1,1.8,1c0,1-0.5,1.2-1.4,1.2H341.6"
   id="path17" />
<path
   d="M294.2,205.5l10.6,29h-21.5L294.2,205.5z M282.9,194.2l-24.4,61.9h17.2l3.9-10.9h28.9l3.7,10.9h18.7l-24.6-61.9  L282.9,194.2z M233.8,256.1h17.5v-61.9l-17.5,0L233.8,256.1z M112.4,194.2l-14.6,49.1l-14-49.1l-18.9,0l20,61.9h25.2l20.1-61.9  H112.4z M183.1,207.7h7.5c10.9,0,18,4.9,18,17.6c0,12.7-7.1,17.6-18,17.6h-7.5V207.7z M165.7,194.2v61.9h28.4  c15.1,0,20-2.5,25.4-8.1c3.8-4,6.2-12.6,6.2-22.1c0-8.7-2.1-16.5-5.7-21.3c-6.5-8.6-15.8-10.3-29.8-10.3L165.7,194.2L165.7,194.2z   M0,194.1v62h17.6V209l13.7,0c4.5,0,7.8,1.1,9.9,3.5c2.8,2.9,3.9,7.7,3.9,16.4v27.2h17.1v-34.3c0-24.5-15.6-27.8-30.8-27.8H0z   M137.6,194.2l0,61.9h17.5v-61.9H137.6z"
   id="path19" />
<path
   style="fill:#77b900;fill-opacity:1"
   d="M47,70.9c0,0,22.5-33.2,67.4-36.6v-12c-49.8,4-92.9,46.1-92.9,46.1s24.4,70.6,92.9,77v-12.8  C64.2,126.3,47,70.9,47,70.9z M114.5,107.1v11.7C76.5,112.1,66,72.6,66,72.6s18.2-20.2,48.5-23.5V62c0,0,0,0-0.1,0  c-15.9-1.9-28.3,12.9-28.3,12.9S93.1,99.9,114.5,107.1 M114.5,0v22.2c1.5-0.1,2.9-0.2,4.4-0.3c56.6-1.9,93.4,46.4,93.4,46.4  s-42.3,51.5-86.5,51.5c-4,0-7.8-0.4-11.4-1v13.7c3,0.4,6.2,0.6,9.5,0.6c41.1,0,70.7-21,99.5-45.8c4.8,3.8,24.3,13.1,28.3,17.2  c-27.3,22.9-91,41.3-127.1,41.3c-3.5,0-6.8-0.2-10.1-0.5v19.3h156V0H114.5z M114.5,49.1V34.3c1.4-0.1,2.9-0.2,4.4-0.2  c40.7-1.3,67.4,35,67.4,35s-28.8,40-59.7,40c-4.4,0-8.4-0.7-12-1.9V62c15.8,1.9,19,8.9,28.6,24.8l21.2-17.9c0,0-15.5-20.3-41.5-20.3  C119.8,48.7,117.1,48.9,114.5,49.1"
   id="path21" />
</svg>
