<?xml version="1.0" encoding="UTF-8" standalone="no"?>
<svg
   xmlns:dc="http://purl.org/dc/elements/1.1/"
   xmlns:cc="http://creativecommons.org/ns#"
   xmlns:rdf="http://www.w3.org/1999/02/22-rdf-syntax-ns#"
   xmlns:svg="http://www.w3.org/2000/svg"
   xmlns="http://www.w3.org/2000/svg"
   xmlns:sodipodi="http://sodipodi.sourceforge.net/DTD/sodipodi-0.dtd"
   xmlns:inkscape="http://www.inkscape.org/namespaces/inkscape"
   inkscape:version="1.0 (4035a4fb49, 2020-05-01)"
   sodipodi:docname="protocase_logo.svg"
   viewBox="0 0 221.01698 116.75357"
   height="116.75357"
   width="221.01698"
   version="1.1"
   id="svg">
  <metadata
     id="metadata865">
    <rdf:RDF>
      <cc:Work
         rdf:about="">
        <dc:format>image/svg+xml</dc:format>
        <dc:type
           rdf:resource="http://purl.org/dc/dcmitype/StillImage" />
      </cc:Work>
    </rdf:RDF>
  </metadata>
  <defs
     id="defs863" />
  <sodipodi:namedview
     inkscape:current-layer="svgg"
     inkscape:window-maximized="1"
     inkscape:window-y="-8"
     inkscape:window-x="-8"
     inkscape:cy="76.89981"
     inkscape:cx="118.6348"
     inkscape:zoom="3.7087751"
     showgrid="false"
     id="namedview861"
     inkscape:window-height="1377"
     inkscape:window-width="2560"
     inkscape:pageshadow="2"
     inkscape:pageopacity="0"
     guidetolerance="10"
     gridtolerance="10"
     objecttolerance="10"
     borderopacity="1"
     bordercolor="#666666"
     pagecolor="#ffffff"
     inkscape:document-rotation="0" />
  <g
     transform="translate(-89.377745,-54.279)"
     id="svgg">
    <path
       fill-rule="evenodd"
       fill="#271d07"
       stroke="none"
       d="m 186.375,72.747 -13.061,13.062 3.261,3.266 c 1.794,1.797 3.366,3.267 3.493,3.267 0.128,0 4.614,-4.386 9.969,-9.747 l 9.738,-9.747 v -6.582 c 0,-3.62 -0.077,-6.581 -0.17,-6.581 -0.093,0 -6.047,5.878 -13.23,13.062 m 71.395,0.676 -6.979,6.982 22.296,-0.01 22.296,-0.01 3.423,-3.312 c 1.882,-1.821 5.049,-4.876 7.038,-6.788 1.988,-1.912 3.615,-3.559 3.615,-3.66 0,-0.101 -10.059,-0.184 -22.355,-0.184 H 264.75 l -6.98,6.982 M 107.992,70.552 c -0.068,0.279 -0.096,2.432 -0.06,4.786 l 0.063,4.279 13.848,0.058 13.848,0.058 4.564,-4.56 c 2.511,-2.509 4.565,-4.688 4.565,-4.844 0,-0.226 -3.75,-0.284 -18.352,-0.284 h -18.351 l -0.125,0.507 m 107.357,31.328 -15.618,15.62 -0.093,6.509 c -0.051,3.58 -0.131,8.004 -0.178,9.831 -0.061,2.41 -0.013,3.322 0.176,3.322 0.143,0 7.327,-7.073 15.965,-15.718 l 15.705,-15.719 v -9.732 c 0,-5.352 -0.076,-9.732 -0.169,-9.732 -0.093,0 -7.198,7.029 -15.788,15.619 m -114.223,12.37 c -1.672,1.639 -4.839,4.723 -7.038,6.855 -2.199,2.131 -3.998,3.93 -3.998,3.997 0,0.068 10.081,0.123 22.402,0.123 h 22.402 l 6.877,-6.881 c 3.783,-3.785 6.878,-6.927 6.878,-6.982 0,-0.056 -10.009,-0.099 -22.241,-0.097 l -22.241,0.004 -3.041,2.981 m 157.937,2.475 c -2.507,2.51 -4.558,4.638 -4.558,4.73 0,0.265 36.936,0.206 36.942,-0.059 0.003,-0.123 0.005,-2.151 0.005,-4.504 0,-2.354 -0.002,-4.381 -0.005,-4.505 -0.004,-0.147 -4.796,-0.225 -13.915,-0.225 h -13.91 l -4.559,4.563 M 89.921,136.861 c -0.171,0.069 -0.281,0.546 -0.281,1.221 v 1.107 l 50.619,-0.004 50.619,-0.005 -1.275,-1.234 -1.275,-1.234 -49.063,0.017 c -26.984,0.01 -49.189,0.069 -49.344,0.132 m 120.356,0.109 c -0.512,0.298 -2.169,1.887 -2.169,2.08 0,0.077 22.86,0.139 50.8,0.139 h 50.8 l -0.068,-1.182 -0.068,-1.183 -49.437,-0.049 c -35.263,-0.036 -49.557,0.02 -49.858,0.195 m -61.741,12.149 c -11.99,1.733 -12.116,19.779 -0.151,21.695 5.692,0.911 10.714,-2.16 12.119,-7.413 2.198,-8.215 -3.867,-15.452 -11.968,-14.282 m 49.887,0.009 c -11.777,1.635 -11.777,19.807 0.001,21.692 7.167,1.148 12.453,-3.436 12.453,-10.797 0,-7.319 -5.234,-11.897 -12.454,-10.895 m 26.69,0.27 c -6.299,1.61 -9.255,8.549 -6.588,15.467 1.781,4.62 5.94,6.819 11.308,5.977 3.541,-0.556 7.329,-3.931 7.329,-6.531 0,-0.271 -2.422,-1.192 -2.576,-0.98 -0.028,0.039 -0.276,0.637 -0.551,1.33 -1.802,4.537 -8.527,5.506 -11.621,1.674 -2.026,-2.509 -2.48,-7.806 -0.955,-11.155 2.167,-4.759 9.673,-5.271 12,-0.819 0.717,1.373 0.903,1.452 2.382,1.009 1.01,-0.303 1.073,-0.601 0.399,-1.882 -1.826,-3.472 -6.633,-5.239 -11.127,-4.09 m 48.536,0.063 c -3.846,1.029 -5.692,4.376 -4.137,7.497 1.022,2.051 2.192,2.643 8.218,4.163 4.36,1.099 5.599,2.091 5.309,4.251 -0.624,4.654 -10.409,4.225 -11.987,-0.526 l -0.385,-1.159 -1.112,0.106 c -1.482,0.143 -1.584,0.289 -1.207,1.72 2.043,7.741 17.428,7.17 17.457,-0.648 0.012,-3.531 -1.752,-4.994 -7.854,-6.508 -4.452,-1.105 -5.475,-1.556 -5.992,-2.646 -1.147,-2.417 0.93,-4.231 4.843,-4.23 3.32,0.001 4.77,0.815 5.441,3.054 0.365,1.218 2.895,1.318 2.89,0.114 -0.018,-3.894 -6.084,-6.635 -11.484,-5.188 m -183.873,0.22 c -0.21,0.547 -0.155,20.436 0.057,20.771 0.126,0.199 0.583,0.272 1.405,0.225 l 1.217,-0.069 0.113,-4.279 0.112,-4.279 4.505,-0.127 c 5.056,-0.142 6.32,-0.442 7.762,-1.844 2.889,-2.811 2.261,-8.086 -1.166,-9.797 -1.951,-0.975 -13.668,-1.478 -14.005,-0.601 m 24.634,-0.098 c -0.004,0.26 -10e-4,20.493 0.003,20.969 0.001,0.093 0.61,0.169 1.353,0.169 h 1.351 v -4.73 c 0,-4.347 0.032,-4.731 0.394,-4.75 6.008,-0.303 6.523,-0.003 10.725,6.26 l 2.084,3.107 1.76,0.066 c 2.117,0.08 2.161,0.371 -0.545,-3.565 -2.564,-3.728 -2.997,-4.253 -4.373,-5.303 l -1.104,-0.843 1.16,-0.296 c 5.836,-1.494 6.784,-8.596 1.428,-10.697 -1.606,-0.63 -14.227,-0.973 -14.236,-0.387 m 52.348,0.053 c -0.067,0.174 -0.089,0.707 -0.05,1.185 l 0.071,0.868 3.604,0.113 3.603,0.112 0.059,9.404 0.059,9.403 h 1.349 c 0.925,0 1.351,-0.089 1.356,-0.282 0.004,-0.155 0.004,-4.285 0,-9.178 -0.005,-4.893 0.072,-9.02 0.171,-9.172 0.126,-0.193 1.246,-0.294 3.773,-0.338 l 3.594,-0.062 v -1.126 -1.126 l -8.734,-0.059 c -7.336,-0.05 -8.753,-0.008 -8.855,0.258 m 83.714,0.635 c -0.898,1.973 -8.13,19.984 -8.13,20.249 0,0.315 2.615,0.241 2.872,-0.081 0.123,-0.155 0.556,-1.194 0.962,-2.308 0.406,-1.115 0.922,-2.458 1.147,-2.985 l 0.409,-0.957 h 4.719 4.718 l 0.269,0.62 c 0.147,0.34 0.738,1.784 1.313,3.209 l 1.046,2.59 1.521,0.067 c 1.773,0.077 1.806,0.016 0.981,-1.806 -0.296,-0.654 -0.859,-1.949 -1.249,-2.878 -0.391,-0.929 -0.914,-2.145 -1.163,-2.703 -0.249,-0.557 -1.689,-3.902 -3.201,-7.432 l -2.749,-6.419 -1.512,-0.067 -1.512,-0.066 -0.441,0.967 m 43.222,9.751 v 10.704 l 8.277,-0.059 8.277,-0.059 0.068,-1.07 c 0.085,-1.324 1.046,-1.146 -6.938,-1.286 l -6.869,-0.121 v -3.604 -3.604 l 6.137,-0.06 6.138,-0.059 v -1.123 -1.122 l -5.912,-0.004 c -3.252,-0.002 -6.042,-0.086 -6.201,-0.186 -0.216,-0.138 -0.272,-0.961 -0.225,-3.319 l 0.063,-3.136 6.532,-0.112 6.531,-0.113 v -1.126 -1.126 l -7.939,-0.059 -7.939,-0.059 v 10.703 m -140.12,-8.01 c 5.881,3 5.976,12.913 0.151,15.966 -1.6,0.838 -5.327,0.88 -6.844,0.076 -6.589,-3.489 -5.774,-14.652 1.205,-16.506 1.29,-0.342 4.427,-0.077 5.488,0.464 m 50.066,0.001 c 4.919,2.322 6.045,10.627 1.98,14.611 -3.675,3.603 -10.129,2.412 -12.29,-2.266 -1.18,-2.554 -0.917,-7.417 0.526,-9.741 1.792,-2.886 6.521,-4.145 9.784,-2.604 m -77.042,-0.091 c 3.099,1.094 3.569,4.629 0.823,6.201 -0.916,0.524 -1.159,0.551 -5.63,0.621 l -4.674,0.072 v -3.469 c 0,-1.909 0.068,-3.538 0.15,-3.62 0.329,-0.329 8.319,-0.162 9.331,0.195 m -24.432,0.457 c 2.165,1.618 2.24,4.921 0.144,6.321 -1.343,0.896 -8.733,1.454 -9.472,0.714 -0.302,-0.301 -0.397,-7.185 -0.104,-7.479 0.43,-0.43 8.789,-0.037 9.432,0.444 m 150.462,0.042 c 0.075,0.217 0.882,2.328 1.794,4.691 0.913,2.363 1.659,4.416 1.659,4.561 0,0.191 -1.024,0.264 -3.716,0.264 -2.044,0 -3.716,-0.066 -3.716,-0.146 0,-0.081 0.651,-1.829 1.447,-3.886 0.796,-2.056 1.569,-4.22 1.716,-4.808 0.278,-1.108 0.58,-1.358 0.816,-0.676"
       id="path0" />
    <path
       fill-rule="evenodd"
       fill="#0b7fc5"
       stroke="none"
       d="m 188.062,70.89 -11.373,11.43 11.375,-11.318 c 6.256,-6.224 11.452,-11.317 11.546,-11.317 0.094,0 0.145,2.942 0.112,6.537 l -0.06,6.538 9.801,9.791 c 5.39,5.385 9.905,9.791 10.032,9.791 0.128,0 1.693,-1.473 3.479,-3.274 l 3.246,-3.274 -13.166,-13.167 c -7.241,-7.242 -13.267,-13.168 -13.392,-13.168 -0.125,0 -5.345,5.144 -11.6,11.431 M 307.17,68.985 c -1.32,1.264 -4.496,4.326 -7.056,6.803 l -4.654,4.505 -22.336,0.114 -22.336,0.114 22.241,0.055 22.241,0.055 0.001,22.241 10e-4,22.241 7.206,-7.215 7.207,-7.214 V 88.675 c 0,-12.104 -0.026,-22.004 -0.057,-21.999 -0.031,0.006 -1.137,1.044 -2.458,2.309 m -210.27,4.949 -7.04,7.042 0.001,21.618 c 10e-4,11.89 0.002,21.833 0.003,22.096 10e-4,0.548 -0.783,1.261 8.3,-7.556 3.264,-3.168 6,-5.785 6.081,-5.816 0.206,-0.079 0.068,-44.426 -0.138,-44.426 -0.093,0 -3.336,3.169 -7.207,7.042 m 47.92,-3.65 c 0,0.18 -2.053,2.379 -4.561,4.885 l -4.561,4.556 0.113,13.91 0.112,13.91 h 4.618 4.617 l 0.057,-18.568 c 0.038,-12.228 -0.019,-18.646 -0.169,-18.796 -0.152,-0.151 -0.226,-0.118 -0.226,0.103 m 30.954,12.88 -0.661,0.732 0.732,-0.661 c 0.402,-0.364 0.732,-0.693 0.732,-0.732 0,-0.174 -0.186,-0.021 -0.803,0.661 m -1.687,1.69 -0.776,0.844 0.844,-0.776 c 0.787,-0.722 0.949,-0.913 0.777,-0.913 -0.038,0 -0.418,0.38 -0.845,0.845 m 80.117,-0.47 c -0.208,0.209 -0.19,36.969 0.019,37.055 0.25,0.103 9.696,-9.504 9.477,-9.639 -0.103,-0.063 -0.186,-6.291 -0.186,-13.84 V 84.234 h -4.58 c -2.519,0 -4.647,0.068 -4.73,0.15 m -31.345,9.816 -8.107,8.165 8.165,-8.107 c 4.49,-4.459 8.164,-8.133 8.164,-8.164 0,-0.159 -0.687,0.518 -8.222,8.106 m -54.616,2.136 v 10.075 l 15.482,15.488 c 8.515,8.519 15.541,15.488 15.613,15.488 0.071,0 0.159,-3.572 0.194,-7.939 0.035,-4.366 0.13,-8.918 0.21,-10.114 0.081,-1.196 0.089,-2.139 0.02,-2.096 -0.07,0.043 -7.114,-6.909 -15.653,-15.449 -8.54,-8.54 -15.603,-15.528 -15.696,-15.528 -0.093,0 -0.17,4.534 -0.17,10.075 m 45.594,6.873 -0.661,0.732 0.732,-0.661 c 0.402,-0.364 0.732,-0.693 0.732,-0.732 0,-0.174 -0.186,-0.021 -0.803,0.661 m 77.698,13.683 c 0,2.292 0.033,3.229 0.074,2.083 0.041,-1.146 0.041,-3.021 0,-4.166 -0.041,-1.146 -0.074,-0.209 -0.074,2.083"
       id="path2" />
    <path
       sodipodi:nodetypes="cccccscccccsccccscccssscccccccccccccccccscccccsccccccccsscccccccccccccccccscccccccccccccccscccsscccccccccccsscccccccsccccccccccccccsccssccccc"
       fill-rule="evenodd"
       fill="#97b5dd"
       stroke="none"
       d="m 183.839,70.102 -15.821,15.823 v 10.247 l 0.001,10.247 15.543,15.597 c 8.548,8.578 15.668,15.597 15.822,15.597 0.154,0 7.45,-7.171 16.213,-15.936 l 15.935,-15.935 v -9.91 -9.91 L 215.709,70.101 c -8.703,-8.702 -15.873,-15.822 -15.935,-15.822 -0.062,0 -7.233,7.12 -15.935,15.823 m 29.215,2.525 13.166,13.167 -3.246,3.274 c -1.786,1.801 -3.352,3.274 -3.481,3.274 -0.129,0 -4.618,-4.383 -9.976,-9.74 l -9.742,-9.74 -9.742,9.74 c -5.358,5.357 -9.842,9.74 -9.964,9.74 -0.289,0 -6.646,-6.345 -6.646,-6.634 0,-0.294 25.942,-26.249 26.236,-26.249 0.127,0 6.154,5.926 13.395,13.168 m 44.43,0.636 -7.036,7.049 0.058,22.4 0.057,22.401 22.504,0.057 22.505,0.057 7.17,-7.189 7.17,-7.189 -0.057,-22.26 -0.058,-22.26 -22.639,-0.058 -22.638,-0.057 -7.036,7.049 m -160.52,0.274 c -3.896,3.902 -7.189,7.29 -7.317,7.53 -0.43,0.803 -0.312,43.821 0.121,44.255 0.317,0.317 2.685,0.354 22.684,0.354 h 22.331 l 7.05,-7.04 7.049,-7.04 -0.006,-22.377 c -0.003,-12.307 -0.062,-22.467 -0.13,-22.577 -0.071,-0.115 -9.639,-0.201 -22.411,-0.201 h -22.287 l -7.084,7.096 m 212.665,15.081 0.058,22.064 -7.207,7.215 -7.208,7.216 -10e-4,-22.241 -0.001,-22.241 h -22.184 c -12.202,0 -22.185,-0.076 -22.185,-0.168 0,-0.092 3.116,-3.285 6.925,-7.096 l 6.926,-6.928 22.41,0.058 22.41,0.057 0.057,22.064 m -205.295,0.402 0.058,22.129 22.172,0.112 22.173,0.113 -6.922,6.926 -6.921,6.925 H 112.379 89.865 l -10e-4,-0.507 C 89.863,124.44 89.862,114.484 89.861,102.594 L 89.86,80.976 96.9,73.934 c 3.871,-3.873 7.115,-7.042 7.208,-7.042 0.093,0 0.195,9.958 0.226,22.128 m 40.824,-0.169 v 18.694 h -4.617 -4.618 l -0.112,-13.851 -0.113,-13.852 -13.851,-0.112 -13.852,-0.113 -0.061,-4.498 c -0.033,-2.474 -0.011,-4.628 0.05,-4.787 0.089,-0.233 3.722,-0.278 18.642,-0.232 l 18.532,0.058 V 88.851 M 209.591,83 c 5.254,5.267 9.553,9.651 9.553,9.742 0,0.091 -4.358,4.523 -9.685,9.848 l -9.684,9.683 -9.685,-9.683 c -5.326,-5.325 -9.685,-9.782 -9.685,-9.903 0,-0.341 18.986,-19.264 19.329,-19.264 0.167,0 4.603,4.31 9.857,9.577 m -74.118,10.806 v 13.739 h -13.739 -13.739 l -0.058,-13.513 c -0.032,-7.433 -0.01,-13.641 0.05,-13.797 0.086,-0.224 2.966,-0.271 13.797,-0.225 l 13.689,0.058 v 13.738 m 128.041,4.122 c 0,10.35 0.066,13.76 0.27,13.964 0.204,0.204 3.638,0.27 14.076,0.27 h 13.807 v 4.731 4.731 l -18.75,-0.057 -18.75,-0.058 -0.059,-18.356 c -0.032,-10.096 -0.009,-18.482 0.05,-18.637 0.081,-0.213 1.239,-0.282 4.731,-0.282 h 4.625 v 13.694 m 28.04,0.158 v 13.738 l -13.795,0.058 -13.795,0.058 V 98.086 84.231 l 13.795,0.058 13.795,0.058 v 13.739 m -60.248,-2.077 v 9.72 l -15.822,15.829 c -8.702,8.706 -15.924,15.829 -16.049,15.829 -0.125,0 -7.195,-6.969 -15.71,-15.488 L 168.243,106.411 V 96.336 c 0,-5.541 0.076,-10.075 0.169,-10.075 0.092,0 7.178,7.01 15.747,15.578 l 15.578,15.577 15.589,-15.685 c 8.573,-8.627 15.676,-15.631 15.784,-15.564 0.108,0.066 0.196,4.495 0.196,9.842"
       id="path3" />
  </g>
</svg>
