<?xml version="1.0" encoding="UTF-8" standalone="no"?>
<svg
   xmlns:dc="http://purl.org/dc/elements/1.1/"
   xmlns:cc="http://creativecommons.org/ns#"
   xmlns:rdf="http://www.w3.org/1999/02/22-rdf-syntax-ns#"
   xmlns:svg="http://www.w3.org/2000/svg"
   xmlns="http://www.w3.org/2000/svg"
   xmlns:sodipodi="http://sodipodi.sourceforge.net/DTD/sodipodi-0.dtd"
   xmlns:inkscape="http://www.inkscape.org/namespaces/inkscape"
   id="svg"
   version="1.1"
   width="400"
   height="225.2"
   viewBox="0, 0, 400,225.2"
   sodipodi:docname="protocase_logo.svg"
   inkscape:version="1.0 (4035a4fb49, 2020-05-01)">
  <metadata
     id="metadata865">
    <rdf:RDF>
      <cc:Work
         rdf:about="">
        <dc:format>image/svg+xml</dc:format>
        <dc:type
           rdf:resource="http://purl.org/dc/dcmitype/StillImage" />
      </cc:Work>
    </rdf:RDF>
  </metadata>
  <defs
     id="defs863" />
  <sodipodi:namedview
     inkscape:document-rotation="0"
     pagecolor="#ffffff"
     bordercolor="#666666"
     borderopacity="1"
     objecttolerance="10"
     gridtolerance="10"
     guidetolerance="10"
     inkscape:pageopacity="0"
     inkscape:pageshadow="2"
     inkscape:window-width="2560"
     inkscape:window-height="1377"
     id="namedview861"
     showgrid="false"
     inkscape:zoom="3.7087751"
     inkscape:cx="208.01255"
     inkscape:cy="131.17881"
     inkscape:window-x="-8"
     inkscape:window-y="-8"
     inkscape:window-maximized="1"
     inkscape:current-layer="svgg" />
  <g
     id="svgg">
    <path
       id="path0"
       d="M186.375 72.747 L 173.314 85.809 176.575 89.075 C 178.369 90.872,179.941 92.342,180.068 92.342 C 180.196 92.342,184.682 87.956,190.037 82.595 L 199.775 72.848 199.775 66.266 C 199.775 62.646,199.698 59.685,199.605 59.685 C 199.512 59.685,193.558 65.563,186.375 72.747 M257.770 73.423 L 250.791 80.405 273.087 80.395 L 295.383 80.385 298.806 77.073 C 300.688 75.252,303.855 72.197,305.844 70.285 C 307.832 68.373,309.459 66.726,309.459 66.625 C 309.459 66.524,299.400 66.441,287.104 66.441 L 264.750 66.441 257.770 73.423 M107.992 70.552 C 107.924 70.831,107.896 72.984,107.932 75.338 L 107.995 79.617 121.843 79.675 L 135.691 79.733 140.255 75.173 C 142.766 72.664,144.820 70.485,144.820 70.329 C 144.820 70.103,141.070 70.045,126.468 70.045 L 108.117 70.045 107.992 70.552 M215.349 101.880 L 199.731 117.500 199.638 124.009 C 199.587 127.589,199.507 132.013,199.460 133.840 C 199.399 136.250,199.447 137.162,199.636 137.162 C 199.779 137.162,206.963 130.089,215.601 121.444 L 231.306 105.725 231.306 95.993 C 231.306 90.641,231.230 86.261,231.137 86.261 C 231.044 86.261,223.939 93.290,215.349 101.880 M101.126 114.250 C 99.454 115.889,96.287 118.973,94.088 121.105 C 91.889 123.236,90.090 125.035,90.090 125.102 C 90.090 125.170,100.171 125.225,112.492 125.225 L 134.894 125.225 141.771 118.344 C 145.554 114.559,148.649 111.417,148.649 111.362 C 148.649 111.306,138.640 111.263,126.408 111.265 L 104.167 111.269 101.126 114.250 M259.063 116.725 C 256.556 119.235,254.505 121.363,254.505 121.455 C 254.505 121.720,291.441 121.661,291.447 121.396 C 291.450 121.273,291.452 119.245,291.452 116.892 C 291.452 114.538,291.450 112.511,291.447 112.387 C 291.443 112.240,286.651 112.162,277.532 112.162 L 263.622 112.162 259.063 116.725 M89.921 136.861 C 89.750 136.930,89.640 137.407,89.640 138.082 L 89.640 139.189 140.259 139.185 L 190.878 139.180 189.603 137.946 L 188.328 136.712 139.265 136.729 C 112.281 136.739,90.076 136.798,89.921 136.861 M210.277 136.970 C 209.765 137.268,208.108 138.857,208.108 139.050 C 208.108 139.127,230.968 139.189,258.908 139.189 L 309.708 139.189 309.640 138.007 L 309.572 136.824 260.135 136.775 C 224.872 136.739,210.578 136.795,210.277 136.970 M148.536 149.119 C 136.546 150.852,136.420 168.898,148.385 170.814 C 154.077 171.725,159.099 168.654,160.504 163.401 C 162.702 155.186,156.637 147.949,148.536 149.119 M198.423 149.128 C 186.646 150.763,186.646 168.935,198.424 170.820 C 205.591 171.968,210.877 167.384,210.877 160.023 C 210.877 152.704,205.643 148.126,198.423 149.128 M225.113 149.398 C 218.814 151.008,215.858 157.947,218.525 164.865 C 220.306 169.485,224.465 171.684,229.833 170.842 C 233.374 170.286,237.162 166.911,237.162 164.311 C 237.162 164.040,234.740 163.119,234.586 163.331 C 234.558 163.370,234.310 163.968,234.035 164.661 C 232.233 169.198,225.508 170.167,222.414 166.335 C 220.388 163.826,219.934 158.529,221.459 155.180 C 223.626 150.421,231.132 149.909,233.459 154.361 C 234.176 155.734,234.362 155.813,235.841 155.370 C 236.851 155.067,236.914 154.769,236.240 153.488 C 234.414 150.016,229.607 148.249,225.113 149.398 M273.649 149.461 C 269.803 150.490,267.957 153.837,269.512 156.958 C 270.534 159.009,271.704 159.601,277.730 161.121 C 282.090 162.220,283.329 163.212,283.039 165.372 C 282.415 170.026,272.630 169.597,271.052 164.846 L 270.667 163.687 269.555 163.793 C 268.073 163.936,267.971 164.082,268.348 165.513 C 270.391 173.254,285.776 172.683,285.805 164.865 C 285.817 161.334,284.053 159.871,277.951 158.357 C 273.499 157.252,272.476 156.801,271.959 155.711 C 270.812 153.294,272.889 151.480,276.802 151.481 C 280.122 151.482,281.572 152.296,282.243 154.535 C 282.608 155.753,285.138 155.853,285.133 154.649 C 285.115 150.755,279.049 148.014,273.649 149.461 M89.776 149.681 C 89.566 150.228,89.621 170.117,89.833 170.452 C 89.959 170.651,90.416 170.724,91.238 170.677 L 92.455 170.608 92.568 166.329 L 92.680 162.050 97.185 161.923 C 102.241 161.781,103.505 161.481,104.947 160.079 C 107.836 157.268,107.208 151.993,103.781 150.282 C 101.830 149.307,90.113 148.804,89.776 149.681 M114.410 149.583 C 114.406 149.843,114.409 170.076,114.413 170.552 C 114.414 170.645,115.023 170.721,115.766 170.721 L 117.117 170.721 117.117 165.991 C 117.117 161.644,117.149 161.260,117.511 161.241 C 123.519 160.938,124.034 161.238,128.236 167.501 L 130.320 170.608 132.080 170.674 C 134.197 170.754,134.241 171.045,131.535 167.109 C 128.971 163.381,128.538 162.856,127.162 161.806 L 126.058 160.963 127.218 160.667 C 133.054 159.173,134.002 152.071,128.646 149.970 C 127.040 149.340,114.419 148.997,114.410 149.583 M166.758 149.636 C 166.691 149.810,166.669 150.343,166.708 150.821 L 166.779 151.689 170.383 151.802 L 173.986 151.914 174.045 161.318 L 174.104 170.721 175.453 170.721 C 176.378 170.721,176.804 170.632,176.809 170.439 C 176.813 170.284,176.813 166.154,176.809 161.261 C 176.804 156.368,176.881 152.241,176.980 152.089 C 177.106 151.896,178.226 151.795,180.753 151.751 L 184.347 151.689 184.347 150.563 L 184.347 149.437 175.613 149.378 C 168.277 149.328,166.860 149.370,166.758 149.636 M250.472 150.271 C 249.574 152.244,242.342 170.255,242.342 170.520 C 242.342 170.835,244.957 170.761,245.214 170.439 C 245.337 170.284,245.770 169.245,246.176 168.131 C 246.582 167.016,247.098 165.673,247.323 165.146 L 247.732 164.189 252.451 164.189 L 257.169 164.189 257.438 164.809 C 257.585 165.149,258.176 166.593,258.751 168.018 L 259.797 170.608 261.318 170.675 C 263.091 170.752,263.124 170.691,262.299 168.869 C 262.003 168.215,261.440 166.920,261.050 165.991 C 260.659 165.062,260.136 163.846,259.887 163.288 C 259.638 162.731,258.198 159.386,256.686 155.856 L 253.937 149.437 252.425 149.370 L 250.913 149.304 250.472 150.271 M293.694 160.022 L 293.694 170.726 301.971 170.667 L 310.248 170.608 310.316 169.538 C 310.401 168.214,311.362 168.392,303.378 168.252 L 296.509 168.131 296.509 164.527 L 296.509 160.923 302.646 160.863 L 308.784 160.804 308.784 159.681 L 308.784 158.559 302.872 158.555 C 299.620 158.553,296.830 158.469,296.671 158.369 C 296.455 158.231,296.399 157.408,296.446 155.050 L 296.509 151.914 303.041 151.802 L 309.572 151.689 309.572 150.563 L 309.572 149.437 301.633 149.378 L 293.694 149.319 293.694 160.022 M153.574 152.012 C 159.455 155.012,159.550 164.925,153.725 167.978 C 152.125 168.816,148.398 168.858,146.881 168.054 C 140.292 164.565,141.107 153.402,148.086 151.548 C 149.376 151.206,152.513 151.471,153.574 152.012 M203.640 152.013 C 208.559 154.335,209.685 162.640,205.620 166.624 C 201.945 170.227,195.491 169.036,193.330 164.358 C 192.150 161.804,192.413 156.941,193.856 154.617 C 195.648 151.731,200.377 150.472,203.640 152.013 M126.598 151.922 C 129.697 153.016,130.167 156.551,127.421 158.123 C 126.505 158.647,126.262 158.674,121.791 158.744 L 117.117 158.816 117.117 155.347 C 117.117 153.438,117.185 151.809,117.267 151.727 C 117.596 151.398,125.586 151.565,126.598 151.922 M102.166 152.379 C 104.331 153.997,104.406 157.300,102.310 158.700 C 100.967 159.596,93.577 160.154,92.838 159.414 C 92.536 159.113,92.441 152.229,92.734 151.935 C 93.164 151.505,101.523 151.898,102.166 152.379 M252.628 152.421 C 252.703 152.638,253.510 154.749,254.422 157.112 C 255.335 159.475,256.081 161.528,256.081 161.673 C 256.081 161.864,255.057 161.937,252.365 161.937 C 250.321 161.937,248.649 161.871,248.649 161.791 C 248.649 161.710,249.300 159.962,250.096 157.905 C 250.892 155.849,251.665 153.685,251.812 153.097 C 252.090 151.989,252.392 151.739,252.628 152.421 "
       stroke="none"
       fill="#271d07"
       fill-rule="evenodd" />
    <path
       id="path2"
       d="M188.062 70.890 L 176.689 82.320 188.064 71.002 C 194.320 64.778,199.516 59.685,199.610 59.685 C 199.704 59.685,199.755 62.627,199.722 66.222 L 199.662 72.760 209.463 82.551 C 214.853 87.936,219.368 92.342,219.495 92.342 C 219.623 92.342,221.188 90.869,222.974 89.068 L 226.220 85.794 213.054 72.627 C 205.813 65.385,199.787 59.459,199.662 59.459 C 199.537 59.459,194.317 64.603,188.062 70.890 M307.170 68.985 C 305.850 70.249,302.674 73.311,300.114 75.788 L 295.460 80.293 273.124 80.407 L 250.788 80.521 273.029 80.576 L 295.270 80.631 295.271 102.872 L 295.272 125.113 302.478 117.898 L 309.685 110.684 309.685 88.675 C 309.685 76.571,309.659 66.671,309.628 66.676 C 309.597 66.682,308.491 67.720,307.170 68.985 M96.900 73.934 L 89.860 80.976 89.861 102.594 C 89.862 114.484,89.863 124.427,89.864 124.690 C 89.865 125.238,89.081 125.951,98.164 117.134 C 101.428 113.966,104.164 111.349,104.245 111.318 C 104.451 111.239,104.313 66.892,104.107 66.892 C 104.014 66.892,100.771 70.061,96.900 73.934 M144.820 70.284 C 144.820 70.464,142.767 72.663,140.259 75.169 L 135.698 79.725 135.811 93.635 L 135.923 107.545 140.541 107.545 L 145.158 107.545 145.215 88.977 C 145.253 76.749,145.196 70.331,145.046 70.181 C 144.894 70.030,144.820 70.063,144.820 70.284 M175.774 83.164 L 175.113 83.896 175.845 83.235 C 176.247 82.871,176.577 82.542,176.577 82.503 C 176.577 82.329,176.391 82.482,175.774 83.164 M174.087 84.854 L 173.311 85.698 174.155 84.922 C 174.942 84.200,175.104 84.009,174.932 84.009 C 174.894 84.009,174.514 84.389,174.087 84.854 M254.204 84.384 C 253.996 84.593,254.014 121.353,254.223 121.439 C 254.473 121.542,263.919 111.935,263.700 111.800 C 263.597 111.737,263.514 105.509,263.514 97.960 L 263.514 84.234 258.934 84.234 C 256.415 84.234,254.287 84.302,254.204 84.384 M222.859 94.200 L 214.752 102.365 222.917 94.258 C 227.407 89.799,231.081 86.125,231.081 86.094 C 231.081 85.935,230.394 86.612,222.859 94.200 M168.243 96.336 L 168.243 106.411 183.725 121.899 C 192.240 130.418,199.266 137.387,199.338 137.387 C 199.409 137.387,199.497 133.815,199.532 129.448 C 199.567 125.082,199.662 120.530,199.742 119.334 C 199.823 118.138,199.831 117.195,199.762 117.238 C 199.692 117.281,192.648 110.329,184.109 101.789 C 175.569 93.249,168.506 86.261,168.413 86.261 C 168.320 86.261,168.243 90.795,168.243 96.336 M213.837 103.209 L 213.176 103.941 213.908 103.280 C 214.310 102.916,214.640 102.587,214.640 102.548 C 214.640 102.374,214.454 102.527,213.837 103.209 M291.535 116.892 C 291.535 119.184,291.568 120.121,291.609 118.975 C 291.650 117.829,291.650 115.954,291.609 114.809 C 291.568 113.663,291.535 114.600,291.535 116.892 "
       stroke="none"
       fill="#0b7fc5"
       fill-rule="evenodd" />
    <path
       id="path3"
       d="m 183.839,70.102 -15.821,15.823 v 10.247 l 0.001,10.247 15.543,15.597 c 8.548,8.578 15.668,15.597 15.822,15.597 0.154,0 7.45,-7.171 16.213,-15.936 l 15.935,-15.935 v -9.91 -9.91 L 215.709,70.101 c -8.703,-8.702 -15.873,-15.822 -15.935,-15.822 -0.062,0 -7.233,7.12 -15.935,15.823 m 29.215,2.525 13.166,13.167 -3.246,3.274 c -1.786,1.801 -3.352,3.274 -3.481,3.274 -0.129,0 -4.618,-4.383 -9.976,-9.74 l -9.742,-9.74 -9.742,9.74 c -5.358,5.357 -9.842,9.74 -9.964,9.74 -0.289,0 -6.646,-6.345 -6.646,-6.634 0,-0.294 25.942,-26.249 26.236,-26.249 0.127,0 6.154,5.926 13.395,13.168 m 44.43,0.636 -7.036,7.049 0.058,22.4 0.057,22.401 22.504,0.057 22.505,0.057 7.17,-7.189 7.17,-7.189 -0.057,-22.26 -0.058,-22.26 -22.639,-0.058 -22.638,-0.057 -7.036,7.049 m -160.52,0.274 c -3.896,3.902 -7.189,7.29 -7.317,7.53 -0.43,0.803 -0.312,43.821 0.121,44.255 0.317,0.317 2.685,0.354 22.684,0.354 h 22.331 l 7.05,-7.04 7.049,-7.04 -0.006,-22.377 c -0.003,-12.307 -0.062,-22.467 -0.13,-22.577 -0.071,-0.115 -9.639,-0.201 -22.411,-0.201 h -22.287 l -7.084,7.096 m 212.665,15.081 0.058,22.064 -7.207,7.215 -7.208,7.216 -10e-4,-22.241 -0.001,-22.241 h -22.184 c -12.202,0 -22.185,-0.076 -22.185,-0.168 0,-0.092 3.116,-3.285 6.925,-7.096 l 6.926,-6.928 22.41,0.058 22.41,0.057 0.057,22.064 m -205.295,0.402 0.058,22.129 22.172,0.112 22.173,0.113 -6.922,6.926 -6.921,6.925 H 112.379 89.865 l -10e-4,-0.507 C 89.863,124.44 89.862,114.484 89.861,102.594 L 89.86,80.976 96.9,73.934 c 3.871,-3.873 7.115,-7.042 7.208,-7.042 0.093,0 0.195,9.958 0.226,22.128 m 40.824,-0.169 v 18.694 h -4.617 -4.618 l -0.112,-13.851 -0.113,-13.852 -13.851,-0.112 -13.852,-0.113 -0.061,-4.498 c -0.033,-2.474 -0.011,-4.628 0.05,-4.787 0.089,-0.233 3.722,-0.278 18.642,-0.232 l 18.532,0.058 V 88.851 M 209.591,83 c 5.254,5.267 9.553,9.651 9.553,9.742 0,0.091 -4.358,4.523 -9.685,9.848 l -9.684,9.683 -9.685,-9.683 c -5.326,-5.325 -9.685,-9.782 -9.685,-9.903 0,-0.341 18.986,-19.264 19.329,-19.264 0.167,0 4.603,4.31 9.857,9.577 m -74.118,10.806 v 13.739 h -13.739 -13.739 l -0.058,-13.513 c -0.032,-7.433 -0.01,-13.641 0.05,-13.797 0.086,-0.224 2.966,-0.271 13.797,-0.225 l 13.689,0.058 v 13.738 m 128.041,4.122 c 0,10.35 0.066,13.76 0.27,13.964 0.204,0.204 3.638,0.27 14.076,0.27 h 13.807 v 4.731 4.731 l -18.75,-0.057 -18.75,-0.058 -0.059,-18.356 c -0.032,-10.096 -0.009,-18.482 0.05,-18.637 0.081,-0.213 1.239,-0.282 4.731,-0.282 h 4.625 v 13.694 m 28.04,0.158 v 13.738 l -13.795,0.058 -13.795,0.058 V 98.086 84.231 l 13.795,0.058 13.795,0.058 v 13.739 m -60.248,-2.077 v 9.72 l -15.822,15.829 c -8.702,8.706 -15.924,15.829 -16.049,15.829 -0.125,0 -7.195,-6.969 -15.71,-15.488 L 168.243,106.411 V 96.336 c 0,-5.541 0.076,-10.075 0.169,-10.075 0.092,0 7.178,7.01 15.747,15.578 l 15.578,15.577 15.589,-15.685 c 8.573,-8.627 15.676,-15.631 15.784,-15.564 0.108,0.066 0.196,4.495 0.196,9.842"
       stroke="none"
       fill="#97b5dd"
       fill-rule="evenodd"
       sodipodi:nodetypes="cccccscccccsccccscccssscccccccccccccccccscccccsccccccccsscccccccccccccccccscccccccccccccccscccsscccccccccccsscccccccsccccccccccccccsccssccccc" />
  </g>
</svg>
