<svg id="Layer_1" data-name="Layer 1" xmlns="http://www.w3.org/2000/svg" viewBox="0 0 1245.69 402.07"><defs><style>.cls-1{fill:#5e2d76;}.cls-2{fill:#454545;}.cls-3{fill:#fefefe;}</style></defs><path class="cls-1" d="M232.35.67A157.58,157.58,0,0,1,261.8,5.45,202,202,0,0,1,403.29,132.56a194.23,194.23,0,0,1,11.43,54.6c3.27,51.65-10.91,98-42.83,138.68C345.33,359.7,311,382.47,269.72,394.69a179.57,179.57,0,0,1-36.64,7c-7.2.57-14.48.14-21.72.24-47.12.69-88.52-15.09-124.86-44.31-37-29.74-60.2-68.23-70.41-114.49a194,194,0,0,1-4.19-35.92,199,199,0,0,1,18.86-91.59A195.89,195.89,0,0,1,64.81,64.93q43.85-47.39,107-61c7.4-1.59,15-2.21,22.53-3.27,2.36-1.14,5,.29,7.36-.8H225C227.33,1,230-.44,232.35.67Z" transform="translate(-11.79 0.11)"/><path class="cls-1" d="M467,0V401.84h-2.36v-2.63q0-198.3,0-396.6c0-.87.07-1.74.11-2.61Z" transform="translate(-11.79 0.11)"/><path class="cls-2" d="M1033.93,97.79c-3.77,0-7.26.15-10.72-.09a5,5,0,0,1-2.9-1.91q-12.79-15.65-25.47-31.37L977.4,42.88c-.46,5.13-.2,9.5-.24,13.86,0,4.61,0,9.23,0,13.84v27h-10.6V27.8c3.62,0,7.21-.14,10.78.1a4.87,4.87,0,0,1,2.88,1.93Q993,45.47,1005.66,61.22q8,9.9,16,19.81a8,8,0,0,1,.8,1.7l1-.62V28h10.5Z" transform="translate(-11.79 0.11)"/><path class="cls-2" d="M1248.14,180.49c-5.71,6.22-12.05,9.75-19.61,10.77-8.66,1.17-17.22.66-25.24-3.17-10.66-5.09-16.18-14-18.16-25.34a44.68,44.68,0,0,1,.71-17.8,33.11,33.11,0,0,1,27-25.79,49.79,49.79,0,0,1,24,1.44c10.45,3.28,17.49,11.12,19.35,21.44h-11c-.15-.35-.32-.79-.5-1.23a19.51,19.51,0,0,0-15.21-12.43,34.77,34.77,0,0,0-17.4.65c-8.06,2.64-13.15,8.3-15.51,16.39a35.79,35.79,0,0,0-.11,19.92,21.8,21.8,0,0,0,14.85,15.54,31.94,31.94,0,0,0,22.36-.43c8.34-3.34,13.11-9.51,14.4-18.76h-22.46v-9.24h31.8v37.33H1250C1249.42,186.92,1248.85,184.05,1248.14,180.49Z" transform="translate(-11.79 0.11)"/><path class="cls-2" d="M752.68,142.1h-11c-.18-.39-.46-.91-.68-1.45-3.29-8-9.54-11.94-17.88-12.64a42.91,42.91,0,0,0-11.55.3c-10.19,1.95-16.4,8.4-18.93,18.37a35.9,35.9,0,0,0-.07,17.39c1.9,8,6.56,13.62,14.3,16.45,8.58,3.12,17.18,3,25.42-1.07,7.1-3.51,11-9.45,12.21-17.74H721.9v-9.18h31.81v37.32H746.3l-1.69-8.72c-.5.16-.9.16-1.09.37-6.75,7.13-15.15,10.19-24.84,10.26-7.08.05-14-.87-20.27-4.24-10-5.33-15.16-14.06-17-25a43.34,43.34,0,0,1,1.2-19.22c3.57-12.59,11.85-20.54,24.56-23.62,10.89-2.64,21.59-1.85,31.64,3.33C746.43,127,750.78,133.55,752.68,142.1Z" transform="translate(-11.79 0.11)"/><path class="cls-2" d="M792.43,120.05c3.57,0,6.93.06,10.28,0,1.66,0,2.37,1.1,3.24,2.16q17.5,21.67,35,43.33c2.5,3.08,5,6.16,8,9.86V120.27h10.51V190c-3.65,0-7.24.14-10.81-.1-1-.06-2.13-1.1-2.85-2q-15.36-18.84-30.62-37.76l-10.58-13.09c-.44-.54-.94-1.05-2-2.21v54.93h-9.94C792,187.23,791.68,127.91,792.43,120.05Z" transform="translate(-11.79 0.11)"/><path class="cls-2" d="M669.92,120.27V190c-3.64,0-7.13.18-10.57-.11-1.12-.09-2.37-1.22-3.17-2.19-5.95-7.22-11.79-14.52-17.67-21.79q-11.89-14.69-23.8-29.35l-1.61-2v55.3H602.9V120.06c3.51,0,7.1-.12,10.67.09a4.47,4.47,0,0,1,2.63,1.77q13.13,16.1,26.14,32.27l17.14,21.17V120.27Z" transform="translate(-11.79 0.11)"/><path class="cls-2" d="M1163.34,175.57V120.28h10.27V190c-3.58,0-7.06.18-10.5-.1a5.63,5.63,0,0,1-3.18-2.15c-5.88-7.11-11.67-14.3-17.47-21.48q-11.52-14.24-23-28.51c-.62-.75-1.28-1.47-2.39-2.75v54.73h-10.47V120.06c3.57,0,7.16-.12,10.74.09a4.54,4.54,0,0,1,2.61,1.8q14.64,18,29.18,36C1153.64,163.6,1158.18,169.2,1163.34,175.57Z" transform="translate(-11.79 0.11)"/><path class="cls-2" d="M939.22,267.65v-55h10.29v69.55c-3.71,0-7.42.12-11.11-.09a4.52,4.52,0,0,1-2.55-1.81q-12.63-15.52-25.18-31.12l-17.9-22.08V282H882.32V212.49c3.66,0,7.36-.13,11,.09.88,0,1.85,1.11,2.51,1.92q12.3,15.08,24.52,30.21,8.36,10.33,16.69,20.67C937.59,266,938.19,266.57,939.22,267.65Z" transform="translate(-11.79 0.11)"/><path class="cls-2" d="M591.59,129.51H546.31v19.65h43.87v9.31H546.37V180.6c3.71.21,7.53.06,11.34.09s7.75,0,11.62,0h23.3v9.1H535.55V120.26h56Z" transform="translate(-11.79 0.11)"/><path class="cls-2" d="M928.26,149.16v9.42h-43.9v21.94h46.2v9.3H873.7V120.34h56v8.95H884.42v19.87Z" transform="translate(-11.79 0.11)"/><path class="cls-2" d="M786.8,305h56v9.12c-14.92.1-29.94,0-45.23.06v19.68h43.93v9.1H797.53v22.37h46.18v9.2H786.8Z" transform="translate(-11.79 0.11)"/><path class="cls-2" d="M589.22,324.83h-10a2.37,2.37,0,0,1-.48-.76c-1.3-5.87-5.1-9.22-10.79-10.66-5.9-1.49-11.83-2-17.65.23a16.11,16.11,0,0,0-5.09,3c-4.83,4.45-3.77,11.5,2.23,14.06a46.28,46.28,0,0,0,9.38,2.4c5.75,1.12,11.55,2,17.3,3.08a27.07,27.07,0,0,1,11.61,4.89,14.09,14.09,0,0,1,5.81,10.44c.88,10.7-4,18.78-14.22,22.33a47.93,47.93,0,0,1-33.7-.58c-8.89-3.4-13.51-10.26-14.12-19.76a10.11,10.11,0,0,1,.26-1.93h10a20.63,20.63,0,0,1,.59,2.44,12.81,12.81,0,0,0,6.75,9.78A25.59,25.59,0,0,0,558.86,367c4.89.26,9.73.21,14.38-1.59,3.38-1.31,6.37-3.26,7.36-6.9,1.27-4.64.36-8.68-5-11a40.71,40.71,0,0,0-8.61-2.33c-5.88-1.12-11.8-1.95-17.67-3.08a35.5,35.5,0,0,1-6.76-2.09c-11.78-4.92-14.77-19.36-6.08-28.78,4.39-4.77,10.06-6.9,16.21-7.69,7.48-1,15-.73,22.17,1.94s12.08,7.3,14,14.85a18.72,18.72,0,0,1,.41,2.58A17.91,17.91,0,0,1,589.22,324.83Z" transform="translate(-11.79 0.11)"/><path class="cls-2" d="M732.31,28.05v9.1H686.89V56.91h43.85v9.28h-43.8V88.36h46.35v9.21h-57V28.05Z" transform="translate(-11.79 0.11)"/><path class="cls-2" d="M529.82,259.29h9.86c.19.38.39.59.41.81.58,7.74,5.38,11.74,12.35,13.58a34.65,34.65,0,0,0,18.49.09,21.38,21.38,0,0,0,7.16-3.79c4.43-3.47,4.37-12.29-2.37-14.73a79.89,79.89,0,0,0-11.54-2.91c-5.61-1.14-11.28-2-16.89-3.1a24.2,24.2,0,0,1-5.28-1.8c-10.45-4.76-13.74-17.18-7.12-26.64,3.91-5.6,9.63-8.12,16-9.33a46,46,0,0,1,22.53,1.2c7.58,2.38,13.16,7,15.21,15,.39,1.53.5,3.13.78,4.94H578.93c-1.28-7.6-6.52-11-13.6-12.15-5.34-.85-10.69-1-15.84,1.08-3.38,1.39-6,3.54-6.94,7.26-1,3.93.22,7.51,4,9A65.2,65.2,0,0,0,558,241c5.48,1.14,11,2,16.53,3a23.66,23.66,0,0,1,4,1c6.59,2.46,12.23,5.95,13,13.79.89,8.95-2,16.35-10.15,20.77a35.23,35.23,0,0,1-10.51,3.62c-10.11,1.77-20.14,1.37-29.53-3.36-7.88-4-11.43-10.74-11.79-19.37A4.94,4.94,0,0,1,529.82,259.29Z" transform="translate(-11.79 0.11)"/><path class="cls-2" d="M940.71,189.8V120.28h55.9v9H951.32v19.94h43.89v9.42H951.29v22.13h46.23v9.07Z" transform="translate(-11.79 0.11)"/><path class="cls-2" d="M811.85,74.89h10.31a20.57,20.57,0,0,1,.62,2.4,12.57,12.57,0,0,0,7.87,10.18,34.78,34.78,0,0,0,25.54.78,13,13,0,0,0,3.53-2.06c5.7-4.38,5-12.81-1.58-15.52-4.2-1.73-8.87-2.33-13.37-3.26-5.24-1.09-10.52-2-15.78-3a10.23,10.23,0,0,1-1.1-.23c-8.4-2.53-13.3-7.95-13.82-15.3-.6-8.66,3.61-16.28,11.55-19.57a41.85,41.85,0,0,1,34.48.52c7.43,3.36,11.17,9.54,11.73,17.94H861.55a4.94,4.94,0,0,1-.41-.86c-1.69-6.88-6.62-9.88-13.13-11-5.1-.88-10.23-1.19-15.12.76A16.83,16.83,0,0,0,827,40.46a8,8,0,0,0,2.66,13.27,46.09,46.09,0,0,0,9.36,2.4c5.75,1.11,11.55,2,17.29,3.09a34.55,34.55,0,0,1,6.75,2.11c9.49,4,12.53,10.93,10.41,20.84-1.54,7.2-6.22,11.73-12.86,14.41-7.35,3-15,3.4-22.82,2.61a38,38,0,0,1-14.29-4C815.54,90.92,812.17,84.06,811.85,74.89Z" transform="translate(-11.79 0.11)"/><path class="cls-2" d="M870.94,212.66v8.84H825.65v20.09h44.07v9.12H825.57V273H872v9H815.05V212.66Z" transform="translate(-11.79 0.11)"/><path class="cls-2" d="M751.74,330H741.48a16.18,16.18,0,0,1-.7-1.88c-2-8.24-7.59-12.93-15.52-15a31.56,31.56,0,0,0-18.79.89c-9.05,3.2-13.62,10.15-15.13,19.22-1,6.19-1,12.42,1.29,18.43,3.31,8.74,9.77,13.64,18.86,15.07A31.07,31.07,0,0,0,726,365.9c7.14-2.3,11.81-7.16,14.2-14.23.43-1.29.87-2.58,1.29-3.85h10.37A29.32,29.32,0,0,1,742.33,367c-8.52,7.87-18.86,10.43-30.12,9.17a47.31,47.31,0,0,1-12.57-3.3c-9.64-4-15.55-11.42-18.11-21.42a45.89,45.89,0,0,1-.23-22.19c3.43-14.58,14.37-24.31,30.1-25.91,8.94-.91,17.67.14,25.82,4.35A26.19,26.19,0,0,1,751.74,330Z" transform="translate(-11.79 0.11)"/><path class="cls-2" d="M714.43,212.62h10.28c.08,1,.23,1.95.23,2.9,0,13.58.09,27.17-.05,40.76a40.67,40.67,0,0,1-1.25,10c-2.36,8.9-8.53,14.12-17.26,16.33a51.15,51.15,0,0,1-26.23-.09c-11.45-3.11-17.91-11.16-18.24-23-.3-10.59-.14-21.19-.17-31.78,0-4.86,0-9.72,0-14.87h10.62v3.63c0,13.34.18,26.68-.06,40-.17,9.73,4.59,16.54,15.84,18.11a32.71,32.71,0,0,0,14.8-1c7.06-2.3,11-7.15,11.34-14.54.26-6.59.14-13.21.15-19.81C714.45,230.48,714.43,221.76,714.43,212.62Z" transform="translate(-11.79 0.11)"/><path class="cls-2" d="M848,314.15v-9.09h63v9h-26v60.54H874.29V314.15Z" transform="translate(-11.79 0.11)"/><path class="cls-2" d="M1019.19,212.69v8.79H992.86v60.59H982.31V221.78h-26.1V213C958.65,212.23,1012.51,211.93,1019.19,212.69Z" transform="translate(-11.79 0.11)"/><path class="cls-2" d="M639.5,97.49a13.28,13.28,0,0,1-1.75.29c-2.73,0-5.47,0-8.47,0-.11-1.11-.28-2.05-.28-3,0-7.61-.08-15.22,0-22.83a8.28,8.28,0,0,0-1.79-5.46c-8.57-11.34-17-22.75-25.54-34.14-1-1.28-1.86-2.6-3.24-4.53,4.61,0,8.64-.18,12.63.13,1,.08,2,1.63,2.81,2.69,6.51,9,13,18,19.43,27,.35.49.75.94,1.29,1.61,4.66-6.39,9.22-12.61,13.77-18.85,2.65-3.62,5.32-7.23,7.91-10.89a3.59,3.59,0,0,1,3.39-1.78c3.36.12,6.73,0,10.54,0-.7,1.1-1.14,1.95-1.71,2.7-9,11.82-17.89,23.67-26.94,35.43a9.69,9.69,0,0,0-2.12,6.5c.12,7.11,0,14.22,0,21.33Z" transform="translate(-11.79 0.11)"/><path class="cls-2" d="M954.83,374.61H944.57c-.09-1-.24-2-.24-2.92,0-7.36-.1-14.71,0-22.06a9.83,9.83,0,0,0-2.16-6.49c-9-11.82-17.77-23.73-26.62-35.62-.58-.78-1-1.63-1.73-2.73,3.86,0,7.34.1,10.81-.05a4.2,4.2,0,0,1,4,2.13c6,8.55,12.16,17,18.26,25.53.79,1.11,1.61,2.2,2.76,3.76.89-1.12,1.65-2,2.34-3,6.24-8.54,12.54-17.06,18.68-25.68,1.45-2,3-3,5.54-2.79,2.83.24,5.7.06,9.12.06-.82,1.31-1.31,2.25-2,3.09-8.81,11.62-17.61,23.24-26.51,34.79a9.26,9.26,0,0,0-2.1,6.12C954.91,357.26,954.83,365.73,954.83,374.61Z" transform="translate(-11.79 0.11)"/><path class="cls-2" d="M655.57,212.71v8.86h-26v60.36H618.84V221.69H592.63v-9Z" transform="translate(-11.79 0.11)"/><path class="cls-2" d="M767.74,120.19h10.08v69.67h-9.71C767.35,187.18,767,130.26,767.74,120.19Z" transform="translate(-11.79 0.11)"/><path class="cls-2" d="M772.6,374.64H762.51V305h9.72C773,307.66,773.32,364.91,772.6,374.64Z" transform="translate(-11.79 0.11)"/><path class="cls-2" d="M1092,190h-9.65c-.82-2.79-1.18-59.3-.41-69.91H1092Z" transform="translate(-11.79 0.11)"/><path class="cls-3" d="M133.39,144.4v-9.65l87-.12v4.27s3.39-1.25,5.07-1.91c20.47-8.05,40.34-8.32,59.19,4.56a86.26,86.26,0,0,1,6.32,6.07,26.4,26.4,0,0,0,2.41-2.38c9.57-10.23,22.1-13.34,35.34-13.68,18.09-.46,36.2-.14,54.3-.1h4.68c1.26,4.4,3.95,13.37,5.27,17.76a182.15,182.15,0,0,1,7.33,57.5,179,179,0,0,1-20.84,80.12q-33.69,63.51-101.17,89a174.91,174.91,0,0,1-42.71,10.21,191.21,191.21,0,0,1-45.17-.37,182.72,182.72,0,0,1-92.06-38.82A185,185,0,0,1,28.18,210.7a190,190,0,0,1,12-75.94h69.4C123.74,134.76,132.43,143.73,133.39,144.4Z" transform="translate(-11.79 0.11)"/><path class="cls-3" d="M140.87,69c3.53,2.75,7.15,5.36,10.71,8.06,1,.74,1.87,1.58,3.16,2.67l-15.13,3.66C144.41,90.06,156,106,156,106s-36.35-26-37.22-26.68l15.48-4.51c-4.4-6.9-9.91-15.46-14.15-22.1C120.15,52.75,134.81,64.27,140.87,69Z" transform="translate(-11.79 0.11)"/><path class="cls-2" d="M1007.72,120.24c.73-.08,1.22-.18,1.7-.18,13.73,0,27.47-.06,41.2,0,4.67,0,9.15,1,13,3.93,9.12,7,9,26-2.86,31.09a17,17,0,0,0-1.59,1c6.11,2,8.37,6.73,9,12.39.44,3.83.38,7.72.84,11.54.4,3.29,1.22,6.54,1.87,9.91h-10.65a41.79,41.79,0,0,1-1.11-4.93c-.5-4.44-.58-9-1.32-13.35-1.31-7.8-4-10.68-11.7-11.08-9.06-.47-18.17-.11-27.65-.11v29.39H1008.1C1007.31,187.22,1007,130.2,1007.72,120.24Zm11.2,30.78c10.21,0,20.41.29,30.61,0a9.5,9.5,0,0,0,9.06-6.11c3.05-7.46-1.26-14.72-9.27-15.45-.74-.06-1.49-.08-2.24-.08q-12.88,0-25.79,0c-.94,0-1.88.17-2.8.26v21.07C1018.71,150.89,1018.82,151,1018.92,151Z" transform="translate(-11.79 0.11)"/><path class="cls-2" d="M795.3,63.7c6.82,3.11,8.52,8.75,8.93,15.11.22,3.23.28,6.47.68,9.68.38,3,1.11,6,1.74,9.3-2.79,0-5.87,0-8.94,0a2.2,2.2,0,0,1-2.33-2c-.39-1.94-.61-3.92-.85-5.89-.53-4.44-.65-9-1.64-13.3-1.27-5.54-4.72-8.24-10.45-8.4-8.11-.24-16.23-.09-24.34-.1h-4V97.55H743.64V27.8h3.1c13.23,0,26.46,0,39.69,0a27.11,27.11,0,0,1,6.66.81,15.33,15.33,0,0,1,10.31,8,20.73,20.73,0,0,1,.3,19.06C802.17,58.94,800.85,60.12,795.3,63.7ZM757.46,59c8.75,0,17.49,0,26.23,0a14.92,14.92,0,0,0,2.94-.49c5.6-1.18,8.81-5.28,8.59-11s-3.76-9.51-9.48-10.2a31,31,0,0,0-3.74-.17c-5.49,0-11,0-16.48,0H754.16V59Z" transform="translate(-11.79 0.11)"/><path class="cls-2" d="M587.41,63.64c7.13,3,8.82,8.52,9.24,14.76.27,4,.36,8,.84,11.92a59.61,59.61,0,0,0,1.89,7.46h-9.23c-1.58,0-2.22-1.11-2.42-2.39-.37-2.46-.54-4.94-.84-7.41-.46-3.82-.61-7.72-1.53-11.43-1.37-5.45-4.58-8.14-10.15-8.3-9.46-.25-18.94-.07-28.72-.07V97.59h-10.4V28.11a9.18,9.18,0,0,1,1.69-.29c14,0,28-.1,42,0,11.33.09,18.34,7.35,18.42,18.62C598.23,54.14,595.2,59.91,587.41,63.64Zm-10.67-4.73c4.24-.1,8.13-1.71,10-6,2.52-6,.64-15-9.31-15.6-3.72-.22-7.47-.1-11.2-.1-6.46,0-12.92,0-19.56,0V59C556.85,59,566.8,59.16,576.74,58.91Z" transform="translate(-11.79 0.11)"/><path class="cls-2" d="M917.1,99.43A45.17,45.17,0,0,1,901,96.84a31.82,31.82,0,0,1-20.25-20.49,40.5,40.5,0,0,1,.89-29.54,31.23,31.23,0,0,1,20-18.3,49.81,49.81,0,0,1,31.24-.06c11,3.55,18.13,11,21.56,22a40.36,40.36,0,0,1,.1,24.27c-4.26,13.93-14,21.53-28.13,24a46.4,46.4,0,0,1-4.82.63C920.1,99.51,918.6,99.43,917.1,99.43Zm.33-9.23c1.87-.12,3.76-.1,5.6-.39,10.3-1.65,17.79-6.92,21.16-17.08a32.76,32.76,0,0,0,.69-17.32A23.75,23.75,0,0,0,934.56,40c-9.61-6.36-25.22-6.25-34.77.35-8.89,6.14-11.35,15.18-10.61,25.24.84,11.32,6.36,19.55,17.58,23.06,3.39,1.07,7,1.32,10.58,2Z" transform="translate(-11.79 0.11)"/><path class="cls-2" d="M634.89,302.82a54.37,54.37,0,0,1,15.83,2.6c9.91,3.4,16.88,9.94,20.52,19.74a40.2,40.2,0,0,1,0,29.2c-4.76,12.42-14.29,19.06-27.1,21.33a54,54,0,0,1-21.15-.6,33.79,33.79,0,0,1-26.28-27.82,42,42,0,0,1,1.8-21.7C603,313.46,612,306.5,624.51,304,627.91,303.33,631.42,303.2,634.89,302.82Zm5.33,64c10.31-1.55,18-6.65,21.43-16.78a31.81,31.81,0,0,0,.52-18.78c-2.4-9.08-8.2-14.88-17.14-17.58a34.11,34.11,0,0,0-21.35.37c-8.09,2.78-13.49,8.28-15.81,16.6a33.27,33.27,0,0,0,0,18.06,23.39,23.39,0,0,0,13.66,15.85A33,33,0,0,0,635,367.17C636.74,367.05,638.5,367.06,640.22,366.8Z" transform="translate(-11.79 0.11)"/><path class="cls-2" d="M738.47,282V213c.28-.17.47-.4.67-.4,12.23,0,24.46-.19,36.69.08,14.47.33,23.66,7.57,27.11,21.58,2.71,11,2.23,22.06-2.55,32.52-4.51,9.84-12.56,15.1-23.3,15.41-12.47.37-25,.09-37.44.08A6.66,6.66,0,0,1,738.47,282Zm36.81-8.92c8.47-.24,14.05-4.49,16.61-12.58a42.84,42.84,0,0,0,.41-25c-2.14-7.55-7.15-12.51-15-13.15-9.16-.74-18.41-.46-27.63-.6-.19,0-.38.26-.61.43v51C758.07,273.12,766.68,273.31,775.28,273.06Z" transform="translate(-11.79 0.11)"/><path class="cls-1" d="M84.77,213.83v46.36H58.25V147.08c1-.09,1.94-.24,2.89-.24,13.74,0,27.48-.11,41.21,0a52.63,52.63,0,0,1,11.46,1.42c9.2,2.19,15.38,7.92,18.14,17a41.17,41.17,0,0,1,.36,22.13c-2.17,8.79-7.92,14.14-17.2,16.6,1.43.47,2.3.83,3.21,1,7.87,1.79,12.15,6.91,13.5,14.63a68,68,0,0,1,.83,8.55c.33,6.83.48,13.68.8,20.52.18,3.88.6,7.73,4.16,10.3.12.08,0,.46.06.7-2.75.8-19.68,1.05-28.74.41a24,24,0,0,1-2.5-10.65c-.26-6.84-.32-13.69-.71-20.52a56.17,56.17,0,0,0-1.49-9.17c-.79-3.5-3.08-5.78-6.74-6C93.42,213.66,89.32,213.83,84.77,213.83Z" transform="translate(-11.79 0.11)"/><path class="cls-1" d="M370.42,178.4h-26c-.38-2.83-.58-5.43-1.11-8-1.12-5.29-4-7.79-9.38-7.82-5.82,0-9.48,3.35-10.21,8.87-1,7.56,1.06,12.28,7.8,15.81,5.37,2.81,11.16,4.83,16.69,7.37a92.34,92.34,0,0,1,10.61,5.46,26.58,26.58,0,0,1,12.69,19A47.58,47.58,0,0,1,369.92,242c-3.13,9.48-9.7,15.62-19.16,18.31a62,62,0,0,1-36.82-.5c-11.22-3.66-17.51-12.3-17.88-24-.11-3.23,0-6.47,0-9.68,2.68-.77,18.83-1,25.7-.36.1,1.26.23,2.59.31,3.92.11,1.86,0,3.75.29,5.59.86,5.93,4.68,9.28,10.63,9.5s10.38-3,11.72-8.43c2-8.07-.58-14.29-7.73-17.88-5-2.51-10.25-4.46-15.43-6.59-5.43-2.24-10.72-4.69-15.16-8.65a28.15,28.15,0,0,1-9.35-18.2,47,47,0,0,1,.54-16.37c2.72-11.48,9.83-18.76,21.15-21.85a54.73,54.73,0,0,1,33.09.79c10.32,3.61,16.31,11.05,17.78,21.94C370,172.27,370.12,175.11,370.42,178.4Z" transform="translate(-11.79 0.11)"/><path class="cls-1" d="M289.25,178.39H263.46c-.11-1.22-.19-2.17-.3-3.13a42.35,42.35,0,0,0-.6-4.79c-1.37-6-4.5-8.06-10.13-7.75-6,.32-9.12,4-9.68,9.86-.66,7,2.27,11.89,8.28,15,4.2,2.14,8.63,3.85,13,5.67,6.79,2.83,13.59,5.53,19,10.89a27.18,27.18,0,0,1,7.7,14.63,47.6,47.6,0,0,1-.9,21.1c-3.15,12-11.33,18.72-23.09,21.34a64.81,64.81,0,0,1-31.1-.63c-14-3.7-19.79-12.8-20.45-25.56-.16-3.08,0-6.17,0-9.44,1.1,0,1.82-.11,2.54-.11h23.26c.07,1.52.07,2.84.21,4.16a46,46,0,0,0,1,7.73c1.39,4.83,4.81,7.16,10,7.37,5,.2,9.16-2.12,10.93-6.35,2.9-7,1.9-14.86-5.7-19.17-4.62-2.62-9.73-4.37-14.59-6.59-4.18-1.91-8.45-3.69-12.44-6-8.76-5-13.23-13-14.3-22.8a42.86,42.86,0,0,1,1.18-17c3.14-10.62,10.17-17.19,20.69-20.08a56.48,56.48,0,0,1,31,.12c12.91,3.7,19.38,13,20.3,26C289.36,174.66,289.25,176.51,289.25,178.39Z" transform="translate(-11.79 0.11)"/><path class="cls-1" d="M143.44,146.9h65.5v22H170.45v22.24h36.23V213H170.45v25.6h40.4V260.2H143.58c-.31-9.32-.09-18.73-.14-28.13s0-19,0-28.45,0-18.71,0-28.07Z" transform="translate(-11.79 0.11)"/><path class="cls-1" d="M222.68,305.05l4.81,4.69A270.52,270.52,0,0,1,198,339.41l-4.37-5.3A260.74,260.74,0,0,1,222.68,305.05Z" transform="translate(-11.79 0.11)"/><path class="cls-1" d="M299.15,315c-.7-1.86-1.88-3.63-1.94-5.44-.11-3.68,4.38-6.58,8.78-6.06,4.69.56,7.43,3.65,6.57,7.7-.27,1.24-1.22,2.35-1.95,3.7,2.63,1.41,3.57,3.86,3,7-.6,3.27-2.94,4.7-5.86,5.56a10.91,10.91,0,0,1-7.64-.71C295.58,324.73,294.22,317.65,299.15,315Z" transform="translate(-11.79 0.11)"/><path class="cls-1" d="M289.09,318.67A7.39,7.39,0,0,0,288,319a7.24,7.24,0,0,1-9.74-3.48,8.93,8.93,0,0,1,3.23-10.86,8.37,8.37,0,0,1,11,2c3.27,4.42,2.91,14.16-.71,18.26a7.88,7.88,0,0,1-8.08,2.6c-3.27-.72-5.17-2.71-5.69-6.26h4.19c1.21.91,1.73,3.21,3.94,2.57s3.26-2.5,3.28-4.84C289.56,318.69,289.44,318.56,289.09,318.67Z" transform="translate(-11.79 0.11)"/><path class="cls-1" d="M318.55,314.83c-4.78-4.45-2-10.49,3.94-11.13a11.66,11.66,0,0,1,5.44.66c4.37,1.78,4.92,6.19,1.36,10.44a5.91,5.91,0,0,1,3.39,7,6.81,6.81,0,0,1-5.87,5.54,15.94,15.94,0,0,1-5.51.06c-3-.54-5.3-2.09-6-5.38A6.13,6.13,0,0,1,318.55,314.83Z" transform="translate(-11.79 0.11)"/><path class="cls-1" d="M125.49,321.33a34,34,0,0,0,4.85,1.68,7,7,0,0,0,3.6-.33c2-.76,2.27-2.69.55-4a15.49,15.49,0,0,0-2.62-1.37c-1.11-.55-2.29-1-3.34-1.64a6.5,6.5,0,0,1-3.15-7,6.68,6.68,0,0,1,5.7-4.73c2.71-.24,5.49-.58,8.26,1.28l.17,3.79a22.43,22.43,0,0,0-2.64-.8,19,19,0,0,0-4.35-.45,2.52,2.52,0,0,0-1.74,1.62,2.48,2.48,0,0,0,1,2.09,46.85,46.85,0,0,0,4.67,2.27c3.6,1.76,4.75,3.54,4.49,6.91-.23,3-2.07,5.23-5.72,6a18.3,18.3,0,0,1-6.6,0C124.9,326,124.78,325.54,125.49,321.33Z" transform="translate(-11.79 0.11)"/><path class="cls-1" d="M108.21,304.43a9.25,9.25,0,0,1,1.69-.37c4,0,8,0,12.32,0,.06,1.27.12,2.39.18,3.68h-8.92V313c1.7,0,3.52-.06,5.33,0,2.43.09,2.53.32,2,3.56H113.5v6.14c2,0,4.19-.05,6.37,0,2.72.06,2.79.2,2.33,3.59h-14Z" transform="translate(-11.79 0.11)"/><path class="cls-1" d="M236.16,315.37l-8.92-8c3.46-3.65,6.67-7,10.19-10.72l8.74,9.43Z" transform="translate(-11.79 0.11)"/><path class="cls-1" d="M200.91,307.36c-2.17,2.08-4.1,4-6.11,5.81-1,.91-2.15,1.66-3.31,2.55l-9-9.91c2.35-2.55,5.18-5.63,8.27-9C194.58,299.93,197.56,303.5,200.91,307.36Z" transform="translate(-11.79 0.11)"/><path class="cls-1" d="M211.42,296.18,203,305.36l-10.12-10.64,8.74-8Z" transform="translate(-11.79 0.11)"/><path class="cls-1" d="M216.63,295.76l9.74-9.26,9.24,8.21-10,10.39C222,302.61,219.78,299.07,216.63,295.76Z" transform="translate(-11.79 0.11)"/><path class="cls-1" d="M160.31,304.26v3.67l-6.41.4v18.15h-5.4V308.37c-1.41-.08-2.6-.17-3.79-.22-3-.13-3-.2-2.57-3.89Z" transform="translate(-11.79 0.11)"/><path class="cls-1" d="M221.47,319.76A108.44,108.44,0,0,1,235.19,335l-4.87,4.5-14.86-13.71C217.54,323.73,219.4,321.84,221.47,319.76Z" transform="translate(-11.79 0.11)"/><path class="cls-1" d="M269.45,304.06h3.34v23l-4.37.26V312.43h-5.89v-3.52C267.47,307.82,267.62,307.72,269.45,304.06Z" transform="translate(-11.79 0.11)"/><path class="cls-1" d="M212.8,311l-6.33,5.61L201,310l4.77-4.73Z" transform="translate(-11.79 0.11)"/><path class="cls-3" d="M284,98.6l-4,4.75-3.86-2.28L278.08,95l-2.66-2.37-5.9,1.84-2.27-3.76,4.65-4.08c-.12-3-1.51-4.45-4.46-4.38A8.37,8.37,0,0,1,265,81.4V77.3L270.83,76,272,72.44l-4.73-4.19,2.2-3.83,5.84,2,2.78-2.59-2-6,4.07-2.35a19.4,19.4,0,0,1,2,2.48c1.36,2.37,3.17,2.48,5.53,1.22.41-1.81.84-3.72,1.32-5.82h4.43l1.28,5.7c4.26,2.79,5.36-1.3,7.66-3.45l3.8,2c-.6,2-1.18,4-1.8,6.07l2.53,2.7,5.91-2L315,68.3l-4.62,4.11c.31,1.13.63,2.3,1,3.52l6,1.34V81.6l-5.92,1.34c-.37,1.1-.74,2.24-1.16,3.52l4.75,4.15-2.29,3.86-5.57-1.84-3,2.36c.59,1.88,1.18,3.74,1.89,6l-3.4,2.27c-2.78-1.3-3.44-6.31-8.09-3.39-.36,1.55-.79,3.45-1.27,5.57h-4.47c-.39-1.77-.78-3.56-1.23-5.62Z" transform="translate(-11.79 0.11)"/><path class="cls-3" d="M194.24,105.82l-4.71-5a243.24,243.24,0,0,1,29.71-30L224.1,76A293.09,293.09,0,0,1,194.24,105.82Z" transform="translate(-11.79 0.11)"/><path class="cls-3" d="M187.13,62.18,197.38,73l-9.46,8.55L178.23,72C180.45,68.44,183.74,65.48,187.13,62.18Z" transform="translate(-11.79 0.11)"/><path class="cls-3" d="M234.64,62.22l9.15,9.87-10.15,9.49L224.13,73Z" transform="translate(-11.79 0.11)"/><path class="cls-3" d="M232.55,60.12,222.2,71.05l-8.73-9.62L223.67,52Z" transform="translate(-11.79 0.11)"/><path class="cls-3" d="M198.27,51.57l9.32,9.86c-1.91,3.5-5.31,6.18-8.28,9.52L189,60.14Z" transform="translate(-11.79 0.11)"/><path class="cls-3" d="M232.11,101.35l-4.7,4.73-15.21-14,6.41-5.94C223.17,90.77,228.26,95.39,232.11,101.35Z" transform="translate(-11.79 0.11)"/><path class="cls-3" d="M203,82.74c-2-2.47-3.75-4.57-5.69-6.95L202,70.88l7.3,5.82Z" transform="translate(-11.79 0.11)"/><path class="cls-3" d="M87.13,194.62V166.24c4.12,0,8.12-.37,12,.1,4.73.57,7.82,3.38,8.93,8.27a21.79,21.79,0,0,1-.26,11.42,11.68,11.68,0,0,1-11,8.57C93.66,194.73,90.54,194.62,87.13,194.62Z" transform="translate(-11.79 0.11)"/><path class="cls-3" d="M301.24,320.33c-.06-2.28,1.32-3.65,3.68-3.64s3.86,1.4,3.87,3.54A3.91,3.91,0,0,1,305,324,3.68,3.68,0,0,1,301.24,320.33Z" transform="translate(-11.79 0.11)"/><path class="cls-3" d="M305.1,307.46c1.93,0,3.26,1.12,3.32,2.77a3.36,3.36,0,0,1-3.49,3.12c-1.62-.06-3.35-1.54-3.39-2.89C301.49,308.81,303.11,307.45,305.1,307.46Z" transform="translate(-11.79 0.11)"/><path class="cls-3" d="M289.41,312c0,2.42-1.33,3.93-3.43,3.92s-3.35-1.51-3.39-4,1.48-4.29,3.64-4.17C288.15,307.81,289.42,309.51,289.41,312Z" transform="translate(-11.79 0.11)"/><path class="cls-3" d="M289.09,318.67l.67-.32-.29.69Z" transform="translate(-11.79 0.11)"/><path class="cls-3" d="M328,320.46a4.06,4.06,0,0,1-4.05,3.57,4,4,0,0,1-3.86-4.09c.11-2,1.8-3.36,4.14-3.26A3.94,3.94,0,0,1,328,320.46Z" transform="translate(-11.79 0.11)"/><path class="cls-3" d="M324,313.35a3.07,3.07,0,1,1,0-6.12,3.57,3.57,0,0,1,3.42,2.87C327.56,311.7,325.86,313.32,324,313.35Z" transform="translate(-11.79 0.11)"/><path class="cls-1" d="M304.41,79.61a13.25,13.25,0,0,1-13.33,13.22,13.39,13.39,0,0,1-13.22-13.76,13.28,13.28,0,0,1,26.55.54Z" transform="translate(-11.79 0.11)"/></svg>