<?xml version="1.0" encoding="UTF-8" standalone="no"?>
<svg
   xmlns:dc="http://purl.org/dc/elements/1.1/"
   xmlns:cc="http://creativecommons.org/ns#"
   xmlns:rdf="http://www.w3.org/1999/02/22-rdf-syntax-ns#"
   xmlns:svg="http://www.w3.org/2000/svg"
   xmlns="http://www.w3.org/2000/svg"
   xmlns:sodipodi="http://sodipodi.sourceforge.net/DTD/sodipodi-0.dtd"
   xmlns:inkscape="http://www.inkscape.org/namespaces/inkscape"
   version="1.1"
   id="svg965"
   width="325.33655"
   height="200.10001"
   viewBox="0 0 325.33655 200.1"
   sodipodi:docname="rss_logo.svg"
   inkscape:version="1.0 (4035a4fb49, 2020-05-01)">
  <metadata
     id="metadata971">
    <rdf:RDF>
      <cc:Work
         rdf:about="">
        <dc:format>image/svg+xml</dc:format>
        <dc:type
           rdf:resource="http://purl.org/dc/dcmitype/StillImage" />
        <dc:title />
      </cc:Work>
    </rdf:RDF>
  </metadata>
  <defs
     id="defs969" />
  <sodipodi:namedview
     inkscape:document-rotation="0"
     pagecolor="#ffffff"
     bordercolor="#666666"
     borderopacity="1"
     objecttolerance="10"
     gridtolerance="10"
     guidetolerance="10"
     inkscape:pageopacity="0"
     inkscape:pageshadow="2"
     inkscape:window-width="1920"
     inkscape:window-height="1017"
     id="namedview967"
     showgrid="false"
     inkscape:zoom="2.3632118"
     inkscape:cx="247.48495"
     inkscape:cy="112.09422"
     inkscape:window-x="-8"
     inkscape:window-y="-8"
     inkscape:window-maximized="1"
     inkscape:current-layer="g995" />
  <g
     transform="translate(-15.666079,-80.749336)"
     inkscape:groupmode="layer"
     inkscape:label="Image"
     id="g973">
    <g
       id="g995"
       transform="translate(-1.4307673,0.47964983)">
      <path
         style="fill:#ffffff;fill-opacity:1"
         id="path5"
         d="m 17.096846,230.06969 v -99.6 l 86.600004,-50.200004 86.7,50.100004 v 43.5 l -13.3,7.9 -24.6,-14.4 -9.8,5.7 47.7,27.7 v 29.4 l -86.6,50.2 z m 100.000004,-2.9 21,-11.9 -21,-12 z m -26.700004,0 v -11.7 l -46.5,-26.2 v 10.9 z m 13.300004,-62.7 22.3,-12.7 -22.3,-12.7 -22.300004,12.8 z"
         class="st0" />
      <path
         style="fill:#b2b3b4;stroke-width:0.32"
         d="m 90.159997,269.1076 c -0.044,-0.007 -13.21877,-7.60281 -29.277266,-16.88 l -29.197264,-16.86761 -0.0027,-5.54666 c -0.0015,-3.05067 0.120084,-5.49867 0.270196,-5.44 0.150113,0.0587 13.326113,7.58994 29.28,16.73616 l 29.007054,16.62949 v 5.69051 c 0,3.12978 -0.036,5.68492 -0.08,5.67811 z m 28.505163,-0.86113 -1.54516,0.88647 v -5.56568 -5.56568 l 33.84,-19.53871 c 18.612,-10.74629 34.52399,-19.92096 35.35999,-20.38815 l 1.52,-0.84944 -0.003,5.54736 -0.003,5.54735 -33.8122,19.52 c -18.59672,10.736 -34.50753,19.91891 -35.35738,20.40648 z m 201.17483,-31.03434 c -0.704,0.0923 -1.784,0.064 -2.4,-0.0629 -0.616,-0.1269 -1.44427,-0.4066 -1.8406,-0.62156 l -0.72059,-0.39082 0.67993,-1.34842 c 0.37396,-0.74164 0.72021,-1.39441 0.76944,-1.45061 0.0492,-0.0562 0.67301,0.0726 1.38616,0.28631 1.10644,0.3315 1.41448,0.31128 2.0999,-0.13782 0.44179,-0.28947 0.94573,-0.79256 1.11991,-1.11797 0.24857,-0.4645 -0.47104,-2.47626 -3.34812,-9.36 -2.01562,-4.82259 -3.66505,-8.80434 -3.6654,-8.84834 -3.2e-4,-0.044 0.98749,-0.08 2.1952,-0.08 h 2.19582 l 2.17149,5.68 c 1.19433,3.124 2.33072,5.9973 2.52531,6.3851 0.30893,0.61565 0.63635,-0.10499 2.58077,-5.68 l 2.22694,-6.3851 h 2.15773 2.15773 l -0.43271,1.2 c -0.23798,0.66 -1.80384,4.728 -3.47965,9.04 -1.67584,4.312 -3.26166,8.344 -3.52406,8.96 -0.26237,0.616 -0.79085,1.51888 -1.1744,2.0064 -0.38352,0.48751 -1.08061,1.08249 -1.54905,1.32216 -0.46845,0.23967 -1.42775,0.51128 -2.13175,0.60358 z m -80.16853,-5.1059 c -0.96331,0.0936 -2.34997,0.0458 -3.08147,-0.10624 -0.7315,-0.15201 -1.90196,-0.56818 -2.60103,-0.92481 -0.69906,-0.35664 -1.86735,-1.3259 -2.5962,-2.15391 -0.84489,-0.95985 -1.51114,-2.14515 -1.83825,-3.27038 -0.33078,-1.13784 -0.45498,-2.40549 -0.34958,-3.56792 0.0911,-1.0047 0.52446,-2.51534 0.97873,-3.4118 0.44838,-0.88484 1.35716,-2.08461 2.01952,-2.66617 0.66237,-0.58156 1.85961,-1.34937 2.66055,-1.70623 1.04517,-0.46568 2.14401,-0.64995 3.89253,-0.65276 2.00784,-0.003 2.74962,0.1494 4.21812,0.86786 0.98001,0.47948 2.24447,1.39869 2.80992,2.04269 0.56544,0.64401 1.31826,1.82623 1.67292,2.62717 0.45877,1.03605 0.64073,2.12082 0.63057,3.75929 -0.0107,1.72417 -0.19828,2.68313 -0.74636,3.81533 -0.40266,0.83177 -1.25328,2.03348 -1.89027,2.67048 -0.63699,0.63699 -1.80393,1.46171 -2.5932,1.83271 -0.78926,0.371 -2.22319,0.75111 -3.1865,0.84469 z m -0.99983,-3.63352 c 0.7654,0.004 1.88424,-0.22647 2.4863,-0.51217 0.60207,-0.2857 1.36494,-0.89902 1.69528,-1.36293 0.33034,-0.46392 0.76242,-1.4444 0.96019,-2.17885 0.24393,-0.90589 0.26157,-1.77154 0.0548,-2.6916 -0.1676,-0.74593 -0.57976,-1.7277 -0.91591,-2.1817 -0.33615,-0.45401 -1.10194,-1.16221 -1.70176,-1.57379 -0.9104,-0.62469 -1.39527,-0.72699 -2.93488,-0.61927 -1.16919,0.0818 -2.16485,0.3626 -2.72,0.76706 -0.48163,0.3509 -1.20911,1.27757 -1.61661,2.05927 -0.57314,1.09942 -0.71247,1.79733 -0.61527,3.082 0.0822,1.08666 0.41015,2.09066 0.94867,2.90442 0.45266,0.68402 1.30554,1.48141 1.89527,1.77197 0.58973,0.29057 1.69848,0.53158 2.46388,0.53559 z m 22.90243,3.6493 c -1.04174,0.0913 -2.4363,0.031 -3.09904,-0.13402 -0.66273,-0.16503 -1.74273,-0.57723 -2.4,-0.91599 -0.65726,-0.33876 -1.65565,-1.09654 -2.21864,-1.68396 -0.56298,-0.58743 -1.34237,-1.78805 -1.73197,-2.66805 -0.51132,-1.15491 -0.70838,-2.22312 -0.70838,-3.84 0,-1.55229 0.19827,-2.68708 0.64579,-3.69626 0.35519,-0.80094 1.10843,-1.98316 1.67387,-2.62717 0.56544,-0.644 1.82991,-1.56321 2.80992,-2.04269 1.46815,-0.71829 2.21378,-0.87177 4.23531,-0.87177 1.88698,0 2.78199,0.16306 3.87627,0.70619 0.78254,0.3884 1.85467,1.06094 2.38251,1.49453 l 0.95972,0.78834 -1.33256,1.33256 -1.33256,1.33256 -1.52202,-1.00815 c -1.1321,-0.74987 -1.88497,-1.00814 -2.93879,-1.00814 -0.77923,0 -1.91145,0.23474 -2.51605,0.52165 -0.6697,0.31779 -1.43443,1.09353 -1.95693,1.98512 -0.6245,1.06562 -0.85729,1.90249 -0.85631,3.07836 9.6e-4,1.09058 0.238,2.03044 0.73023,2.89487 0.40088,0.704 1.11513,1.568 1.58722,1.92 0.65468,0.48815 1.35779,0.64 2.96325,0.64 1.80324,0 2.27026,-0.12612 3.25865,-0.88 0.63456,-0.484 1.2791,-0.88 1.43232,-0.88 0.15322,0 0.76547,0.50236 1.36057,1.11634 l 1.082,1.11634 -0.77923,0.83534 c -0.42857,0.45943 -1.43889,1.17118 -2.24515,1.58165 -0.81279,0.4138 -2.30983,0.8203 -3.36,0.91235 z m 28.98593,-0.015 c -0.968,0.0932 -2.361,0.0446 -3.09555,-0.10793 -0.73455,-0.15253 -1.76129,-0.49748 -2.28164,-0.76657 -0.52035,-0.26908 -1.40243,-0.87322 -1.96018,-1.34254 -0.55775,-0.46932 -1.40169,-1.59054 -1.87541,-2.49162 -0.74994,-1.42645 -0.86132,-2.01075 -0.86132,-4.51832 0,-2.50363 0.11192,-3.09285 0.8565,-4.5088 0.47107,-0.89585 1.39528,-2.10186 2.05378,-2.68003 0.6585,-0.57818 1.71175,-1.27452 2.34055,-1.54742 0.68082,-0.29549 2.05782,-0.49454 3.4042,-0.49209 1.88251,0.003 2.54506,0.15874 3.95848,0.92802 0.93365,0.50816 2.03578,1.36737 2.44917,1.90935 0.41339,0.54198 0.98207,1.53697 1.26374,2.21109 0.28166,0.67411 0.595,2.21436 0.69631,3.42277 l 0.18419,2.19711 h -6.6411 -6.6411 l 0.20915,0.83333 c 0.11504,0.45834 0.44064,1.18663 0.72358,1.61844 0.28293,0.4318 1.09355,1.08055 1.80138,1.44166 0.97182,0.49579 1.7002,0.6223 2.97448,0.51662 1.16371,-0.0965 2.0888,-0.41804 2.98034,-1.03588 l 1.29284,-0.89593 1.12381,0.85717 c 0.61809,0.47144 1.1238,0.97892 1.1238,1.12773 0,0.14881 -0.52952,0.7355 -1.17672,1.30374 -0.6472,0.56825 -1.6192,1.21712 -2.16,1.44194 -0.5408,0.22481 -1.77528,0.48498 -2.74328,0.57816 z m -1.6,-10.34698 h 4.56 l -0.20465,-1.02327 c -0.11256,-0.5628 -0.42639,-1.36167 -0.69739,-1.77528 -0.271,-0.4136 -0.95291,-1.03259 -1.51534,-1.37553 -0.56244,-0.34294 -1.49777,-0.62406 -2.07851,-0.62472 -0.58074,-6.4e-4 -1.46939,0.21263 -1.97477,0.47398 -0.50539,0.26134 -1.21941,0.89722 -1.58672,1.41306 -0.36732,0.51585 -0.75667,1.38202 -0.86523,1.92483 l -0.19739,0.98693 z m 18.78495,10.21972 c -1.09172,-0.0112 -2.27295,-0.13941 -2.62495,-0.28501 -0.352,-0.14559 -0.98194,-0.63284 -1.39987,-1.08278 -0.41793,-0.44993 -0.87966,-1.43768 -1.02606,-2.19499 -0.14641,-0.75732 -0.27247,-3.50094 -0.28013,-6.09694 l -0.0139,-4.72 h -1.12 -1.12 v -1.76 -1.76 h 1.12 1.12 v -2.56 -2.56 h 2.06654 2.06654 l 0.0935,2.48 0.0935,2.48 2.32,0.094 2.32,0.094 v 1.74598 1.74598 h -2.4 -2.4 v 4.29917 c 0,2.36455 0.14111,4.67032 0.31358,5.12393 0.17246,0.45363 0.66857,0.98652 1.10246,1.18421 0.56136,0.25577 1.16313,0.26445 2.08643,0.0301 l 1.29753,-0.32935 v 1.67461 c 0,1.48397 -0.0928,1.71689 -0.81505,2.04597 -0.44829,0.20426 -1.70829,0.36224 -2.8,0.35109 z m -33.82495,-0.29972 h -1.92 v -8.8 -8.8 h 1.92 1.92 v 8.8 8.8 z M 140.25387,213.43414 C 140.11424,213.43092 134.852,210.4586 128.56,206.829 l -11.44,-6.59929 v -5.5793 -5.57929 l 2.18466,1.22444 c 1.20156,0.67344 8.544,4.89643 16.31653,9.38443 7.77253,4.488 14.12927,8.232 14.1261,8.32 -0.003,0.088 -2.08338,1.348 -4.62267,2.8 -2.53928,1.452 -4.73112,2.63737 -4.87075,2.63415 z m -50.093873,-0.64069 c -0.044,-0.004 -13.219999,-7.59115 -29.279999,-16.86123 L 31.679999,179.07753 v -5.56544 c 0,-3.06098 0.12229,-5.51743 0.271755,-5.45876 0.149464,0.0587 13.325464,7.64515 29.279998,16.85885 l 29.008245,16.7522 v 5.5678 c 0,3.0623 -0.036,5.56487 -0.08,5.56127 z m 183.759993,-1.59346 h -2.24 v -1.92 -1.92 h 2.24 2.24 v 1.92 1.92 z M 239.0726,191.53666 c -1.16193,0.0465 -2.49236,0.0177 -2.9565,-0.0639 -0.46414,-0.0816 -1.61614,-0.6093 -2.56,-1.17264 -1.06629,-0.63641 -2.10826,-1.61027 -2.75176,-2.57188 -0.5696,-0.85119 -1.19766,-2.14628 -1.39568,-2.87797 -0.19803,-0.73169 -0.29123,-2.19715 -0.20712,-3.25658 0.0934,-1.17648 0.47295,-2.5578 0.97513,-3.54881 0.45222,-0.89241 1.33741,-2.07492 1.96709,-2.62778 0.62968,-0.55286 1.61093,-1.25913 2.18055,-1.56948 0.79424,-0.43272 1.78724,-0.56466 4.2595,-0.56598 3.02685,-0.002 3.3182,0.0569 4.76867,0.95828 0.84968,0.528 1.69985,1.20825 1.88928,1.51165 0.28098,0.45003 0.11977,0.78173 -0.87511,1.80057 l -1.21953,1.24892 -1.60572,-1.08057 c -1.15838,-0.77951 -1.96217,-1.08055 -2.8852,-1.08055 -0.70372,0 -1.7821,0.2385 -2.3964,0.53001 -0.61431,0.29151 -1.48146,1.08087 -1.92701,1.75414 -0.44555,0.67327 -0.88362,1.87646 -0.97348,2.67374 -0.10563,0.93712 0.024,1.94034 0.3667,2.83765 0.29155,0.76341 0.85243,1.69085 1.2464,2.06097 0.39398,0.37012 1.27263,0.90538 1.95257,1.18948 0.82699,0.34554 1.64257,0.44789 2.46365,0.30917 0.67508,-0.11406 1.82545,-0.64059 2.55639,-1.17008 l 1.32898,-0.96271 1.24178,1.21257 1.24178,1.21257 -0.80938,0.84481 c -0.44516,0.46465 -1.47394,1.17671 -2.28617,1.58236 -0.99945,0.49915 -2.15966,0.76486 -3.58941,0.82204 z m 28.14931,0.12186 c -0.80406,-0.0118 -2.06324,-0.20942 -2.79818,-0.43922 -0.73495,-0.22981 -1.85297,-0.73717 -2.4845,-1.12748 -0.63152,-0.3903 -1.55537,-1.30865 -2.05298,-2.04076 -0.49761,-0.73212 -1.07159,-1.82062 -1.2755,-2.41888 -0.20392,-0.59826 -0.36935,-2.18226 -0.36763,-3.52 0.003,-1.87292 0.17483,-2.80019 0.74978,-4.03225 0.41067,-0.88 1.34205,-2.13672 2.06975,-2.79272 0.7277,-0.656 1.84788,-1.412 2.48929,-1.68 0.66139,-0.27635 2.12043,-0.48728 3.37062,-0.48728 1.57979,0 2.61392,0.1925 3.64967,0.67936 0.7949,0.37364 1.94048,1.2579 2.54575,1.96502 0.60527,0.70712 1.31707,1.94941 1.58177,2.76065 0.2647,0.81123 0.52154,2.26697 0.57076,3.23497 l 0.0895,1.76 -6.51865,0.0867 -6.51865,0.0867 0.20357,1.01787 c 0.11197,0.55983 0.52536,1.36247 0.91866,1.78365 0.39329,0.42119 1.13416,0.98375 1.64638,1.25014 0.62904,0.32714 1.52513,0.44139 2.76092,0.352 1.11459,-0.0806 2.17507,-0.37558 2.71358,-0.75475 0.48618,-0.34232 1.07538,-0.76291 1.30933,-0.93463 0.30809,-0.22612 0.74353,-0.006 1.57923,0.8 l 1.15385,1.11222 -1.34497,1.19974 c -0.76419,0.68167 -2.04331,1.40712 -2.96219,1.68 -0.88947,0.26414 -2.27508,0.47063 -3.07914,0.45885 z m -0.33582,-10.53858 h 4.48609 l -0.20958,-0.88 C 271.04733,179.756 270.74444,179 270.4895,178.56 c -0.25494,-0.44 -0.82263,-1.06722 -1.26153,-1.39381 -0.4389,-0.32659 -1.32674,-0.65813 -1.97299,-0.73675 -0.75122,-0.0914 -1.57662,0.0651 -2.28861,0.4338 -0.61249,0.31722 -1.44049,1.06605 -1.84,1.66408 -0.39951,0.59803 -0.72638,1.42603 -0.72638,1.84 v 0.75267 z m 42.4154,10.44333 c -1.24382,0.0548 -2.6215,-0.0188 -3.0615,-0.16355 -0.44,-0.14479 -1.39653,-0.568 -2.12561,-0.94047 -0.7291,-0.37248 -1.83728,-1.27499 -2.46264,-2.00558 -0.62535,-0.73059 -1.36083,-1.98521 -1.63438,-2.78804 -0.27355,-0.80283 -0.49737,-2.27239 -0.49737,-3.26569 0,-0.99329 0.22925,-2.4788 0.50945,-3.30113 0.2802,-0.82234 1.13996,-2.19643 1.91058,-3.05355 0.86743,-0.96479 2.03828,-1.83249 3.07383,-2.27797 1.42269,-0.61203 2.08979,-0.69964 4.46322,-0.58616 2.5778,0.12324 2.92669,0.22382 4.57672,1.31938 0.98241,0.65229 1.7862,1.26827 1.7862,1.36885 0,0.10058 -0.51953,0.8169 -1.15452,1.59182 l -1.15453,1.40894 -1.44134,-1.03508 c -1.22935,-0.88286 -1.71499,-1.03509 -3.30201,-1.03509 -1.37238,0 -2.09776,0.17286 -2.76413,0.65873 -0.49691,0.3623 -1.22747,1.29281 -1.62347,2.0678 -0.41056,0.80349 -0.72,1.98986 -0.72,2.76044 0,0.74325 0.15283,1.75674 0.33963,2.25219 0.18679,0.49546 0.79374,1.37162 1.34877,1.94702 0.55502,0.5754 1.55632,1.19352 2.22511,1.37361 0.66879,0.18008 1.71854,0.23315 2.33279,0.11791 0.61424,-0.11523 1.70876,-0.63832 2.43225,-1.16242 l 1.31545,-0.95291 1.24028,1.21109 1.24027,1.21109 -0.65365,0.69578 c -0.35951,0.38268 -1.39261,1.09797 -2.29578,1.58953 -1.26593,0.68901 -2.16021,0.9166 -3.90362,0.99346 z m 19.2,0 c -1.24384,0.0548 -2.6215,-0.0188 -3.0615,-0.16355 -0.44,-0.14479 -1.376,-0.55978 -2.08,-0.9222 -0.704,-0.36243 -1.66016,-1.06815 -2.1248,-1.56827 -0.46464,-0.50012 -1.15459,-1.52728 -1.53327,-2.28259 -0.37867,-0.7553 -0.77276,-2.27569 -0.87575,-3.37864 -0.13036,-1.39594 -0.0282,-2.5524 0.33604,-3.80546 0.28781,-0.99005 0.99269,-2.41551 1.56639,-3.16768 0.59782,-0.78378 1.77334,-1.74908 2.75379,-2.26126 1.41027,-0.73673 2.11469,-0.89367 4.0113,-0.89367 1.83001,0 2.63865,0.16843 3.95299,0.8234 0.99385,0.49525 2.04336,1.35507 2.63344,2.15747 0.53961,0.73373 1.19232,2.04533 1.45046,2.91467 0.25818,0.86934 0.46941,2.27448 0.46941,3.12253 v 1.54192 h -6.38112 c -3.5096,0 -6.45702,0.12282 -6.54979,0.27292 -0.0928,0.15011 0.15075,0.89545 0.54112,1.65633 0.43747,0.85263 1.13757,1.60734 1.8248,1.96708 0.62989,0.32972 1.78544,0.58367 2.6559,0.58367 0.84749,0 2.00173,-0.23336 2.56499,-0.51858 0.56324,-0.28523 1.27008,-0.7341 1.57072,-0.99749 0.49303,-0.43196 0.67511,-0.37713 1.85751,0.55934 l 1.31088,1.03823 -0.67389,0.71731 c -0.37062,0.39452 -1.41283,1.1195 -2.316,1.61106 -1.26592,0.68901 -2.16022,0.9166 -3.90362,0.99346 z m -1.13619,-10.44333 h 4.55469 l -0.20464,-1.02327 c -0.11258,-0.5628 -0.42058,-1.35279 -0.68448,-1.75554 -0.26387,-0.40275 -0.82256,-0.95686 -1.2415,-1.23135 -0.41892,-0.2745 -1.26192,-0.58027 -1.87335,-0.67949 -0.71865,-0.11662 -1.5208,0.0137 -2.2688,0.3687 -0.63645,0.302 -1.43619,1.00176 -1.77725,1.55502 -0.34105,0.55327 -0.71894,1.40194 -0.83974,1.88593 l -0.21961,0.88 z m -75.68531,10.24 h -2.08 v -8.96 -8.95999 h 2.08 2.08 v 8.95999 8.96 z m 29.73459,0 h -2.05459 v -8.96 -8.95999 h 2.08 2.08 v 1.12 c 0,0.616 0.144,1.12 0.32,1.12 0.176,0 0.32,-0.14718 0.32,-0.32705 0,-0.17988 0.67619,-0.75588 1.50265,-1.28 1.26794,-0.80411 1.82586,-0.95295 3.57189,-0.95295 1.62668,0 2.35954,0.17012 3.42661,0.79547 0.90508,0.53042 1.58088,1.25717 2.02812,2.18103 0.61776,1.27613 0.67073,1.93359 0.67073,8.32453 v 6.93896 h -1.89458 -1.89459 l -0.10541,-5.84 c -0.0937,-5.18991 -0.17827,-5.96467 -0.75985,-6.95999 -0.4673,-0.79974 -1.03775,-1.24261 -1.99493,-1.54878 -1.19538,-0.38236 -1.46871,-0.36505 -2.52491,0.16 -0.65144,0.32382 -1.48172,0.99492 -1.84508,1.49132 -0.60032,0.82013 -0.67027,1.44107 -0.76606,6.8 l -0.10542,5.89745 z M 175.6,177.58373 c -0.044,-0.009 -4.53043,-2.59457 -9.96983,-5.74583 -5.43941,-3.15126 -10.0108,-5.85054 -10.15866,-5.99839 -0.14786,-0.14786 1.80091,-1.45024 4.33059,-2.89417 2.52968,-1.44394 4.74577,-2.62534 4.92464,-2.62534 l 10.95326,6.14547 v 5.56726 c 0,3.062 -0.036,5.55994 -0.08,5.551 z m 3.68,-0.69768 -1.36,0.76866 v -3.17908 c 0,-1.74849 0.0933,-4.28228 0.20723,-5.63065 l 0.20723,-2.45158 4.51277,-2.60183 c 2.48202,-1.43101 4.62076,-2.66203 4.75276,-2.73559 0.132,-0.0736 0.23837,2.35874 0.23637,5.40513 l -0.004,5.53889 -3.59636,2.05869 c -1.978,1.13228 -4.20837,2.40459 -4.95637,2.82736 z M 251.67999,170.56 h -2.08 v -1.92 -1.92 h 2.08 2.08 v 1.92 1.92 z m -15.24356,-14.42435 c -0.94404,-0.0134 -2.22044,-0.21216 -2.83644,-0.44172 -0.63831,-0.23787 -1.08221,-0.60587 -1.03214,-0.85565 0.0483,-0.24106 0.31178,-0.95522 0.58548,-1.58702 0.48855,-1.12777 0.51943,-1.14293 1.69148,-0.83009 0.65662,0.17526 1.57751,0.22237 2.04643,0.10468 0.46892,-0.11769 1.04931,-0.58948 1.28977,-1.04841 0.40924,-0.78105 0.2051,-1.38975 -3.19127,-9.51593 -1.99567,-4.77484 -3.62876,-8.78951 -3.62911,-8.92151 -3.2e-4,-0.132 0.97136,-0.23847 2.15936,-0.23661 l 2.16,0.003 2.4,6.39083 c 1.32,3.51496 2.472,6.39292 2.56,6.39546 0.088,0.003 1.16264,-2.87486 2.38808,-6.39423 L 245.25614,132.8 h 2.15773 2.15773 l -0.4319,1.2 c -0.23754,0.66 -1.94833,5.10951 -3.80175,9.8878 -1.85343,4.77829 -3.70468,9.1996 -4.11391,9.82514 -0.40922,0.62553 -1.26765,1.43202 -1.90761,1.79219 -0.79523,0.44756 -1.70693,0.64716 -2.88,0.63052 z m 25.03245,-5.12451 c -1.15989,-0.0159 -2.56037,-0.15971 -3.11218,-0.31964 -0.55181,-0.15993 -1.70075,-0.75894 -2.55321,-1.33114 -1.16221,-0.78013 -1.81966,-1.56065 -2.62832,-3.12036 -1.02558,-1.9781 -1.07218,-2.21428 -0.95107,-4.82091 0.10803,-2.32523 0.27552,-3.00465 1.10435,-4.48 0.53735,-0.9565 1.57791,-2.20133 2.31235,-2.76628 0.73445,-0.56496 1.87172,-1.17615 2.52728,-1.35822 0.65555,-0.18206 1.99409,-0.33183 2.97453,-0.33281 1.31323,-10e-4 2.23953,0.22993 3.51781,0.87822 1.04959,0.5323 2.1419,1.42054 2.76456,2.24808 0.56617,0.75244 1.18288,1.90444 1.37048,2.56 0.1876,0.65555 0.43019,2.09192 0.53909,3.19192 l 0.19799,2 h -6.60628 c -4.39921,0 -6.60627,0.11221 -6.60627,0.33589 0,0.18474 0.20232,0.72474 0.4496,1.2 0.24728,0.47526 0.78728,1.17037 1.2,1.54469 0.41272,0.37432 1.30059,0.85685 1.97304,1.07229 0.94853,0.30388 1.55834,0.30733 2.72,0.0154 0.82355,-0.20699 1.96215,-0.7304 2.53023,-1.16313 l 1.03286,-0.78678 1.20268,1.10217 c 1.19032,1.09084 1.19646,1.10904 0.59786,1.77049 -0.33265,0.36758 -1.46965,1.10048 -2.52666,1.62867 -1.58468,0.79188 -2.29179,0.95529 -4.03072,0.93149 z M 260.79468,140.48 h 4.5547 l -0.20914,-0.88 c -0.11502,-0.484 -0.46353,-1.23111 -0.77446,-1.66023 -0.31093,-0.42913 -0.94108,-1.06076 -1.40032,-1.40364 -0.49064,-0.36631 -1.34503,-0.62341 -2.07174,-0.62341 -0.68021,0 -1.67818,0.22828 -2.21771,0.50728 -0.53954,0.27901 -1.22208,0.87526 -1.51677,1.32501 -0.29469,0.44975 -0.62207,1.24911 -0.72752,1.77636 l -0.19173,0.95863 z m 33.1499,10.44937 c -1.32015,0.0619 -2.79841,-0.0711 -3.54459,-0.3189 -0.704,-0.23377 -1.88223,-0.7347 -2.61829,-1.11318 -0.73605,-0.37848 -1.42524,-0.82885 -1.53153,-1.00082 -0.10628,-0.17197 0.1797,-0.90344 0.63552,-1.62549 0.45581,-0.72206 0.929,-1.26051 1.05152,-1.19656 0.12253,0.0639 1.08497,0.53157 2.13875,1.03916 1.22098,0.58812 2.45643,0.93078 3.40594,0.94465 1.0389,0.0152 1.69404,-0.16278 2.16403,-0.58783 0.37074,-0.33528 0.67406,-0.92965 0.67406,-1.32082 0,-0.39117 -0.19872,-0.87614 -0.44159,-1.07771 -0.24288,-0.20157 -1.70631,-0.79399 -3.25206,-1.31649 -1.54575,-0.5225 -3.18304,-1.19239 -3.63841,-1.48864 -0.45536,-0.29626 -1.0056,-0.76547 -1.22275,-1.0427 -0.21714,-0.27722 -0.54669,-1.04404 -0.73233,-1.70404 -0.24218,-0.86101 -0.23467,-1.58199 0.0266,-2.55218 0.20914,-0.77668 0.80798,-1.7708 1.40702,-2.33577 0.5736,-0.54098 1.62001,-1.1565 2.32535,-1.36782 0.70535,-0.21133 1.8516,-0.38423 2.54724,-0.38423 0.69564,0 2.04693,0.23086 3.00287,0.51303 0.95595,0.28217 2.12384,0.73917 2.59533,1.01555 l 0.85724,0.50252 -0.77434,1.52807 -0.77433,1.52808 -1.77523,-0.81273 c -1.03461,-0.47366 -2.39229,-0.82205 -3.25429,-0.83508 -1.16833,-0.0177 -1.60272,0.13035 -2.06768,0.70455 -0.32374,0.3998 -0.58862,0.82743 -0.58862,0.95029 0,0.12287 0.18,0.46874 0.4,0.76861 0.22,0.29986 1.73941,1.04285 3.37646,1.65109 1.63705,0.60823 3.40323,1.40976 3.92483,1.78117 0.5216,0.37142 1.1622,1.0888 1.42354,1.59418 0.26135,0.50539 0.47517,1.51843 0.47517,2.25121 0,0.76413 -0.28902,1.84657 -0.67772,2.53816 -0.37548,0.66807 -1.25645,1.53111 -1.97541,1.93519 -0.92606,0.52047 -1.9462,0.75973 -3.56227,0.83548 z m 19.01541,0.0829 c -1.144,-0.015 -2.44,-0.13716 -2.88,-0.27149 -0.44,-0.13432 -1.376,-0.54076 -2.08,-0.90318 -0.704,-0.36243 -1.66016,-1.06815 -2.12479,-1.56827 -0.46464,-0.50012 -1.18291,-1.5573 -1.59616,-2.3493 -0.61662,-1.18175 -0.75137,-1.92781 -0.75137,-4.16 0,-2.20416 0.13623,-2.97631 0.71833,-4.0715 0.39508,-0.74333 1.22518,-1.85836 1.84466,-2.47784 0.61948,-0.61948 1.73451,-1.43688 2.47783,-1.81644 0.80925,-0.41323 2.19566,-0.75072 3.45549,-0.84116 1.39414,-0.10008 2.6991,0.022 3.86789,0.36174 1.13588,0.33021 2.31159,0.99487 3.30215,1.8668 0.87256,0.76807 1.86312,2.05168 2.28898,2.9662 0.57942,1.24432 0.74986,2.15984 0.74685,4.0122 -0.003,1.64348 -0.19018,2.81007 -0.59479,3.70092 -0.32499,0.7155 -1.07651,1.85402 -1.67006,2.53004 -0.59356,0.67602 -1.9445,1.6385 -3.0021,2.13883 -1.53328,0.72537 -2.34436,0.90418 -4.00291,0.88245 z m -0.0697,-3.50477 c 0.57765,0.007 1.51365,-0.18491 2.08,-0.42623 0.56635,-0.24132 1.37329,-0.81143 1.7932,-1.26691 0.41991,-0.45548 0.94802,-1.53955 1.17356,-2.40905 0.25916,-0.99909 0.31543,-2.00058 0.15289,-2.72126 -0.14146,-0.62719 -0.52742,-1.60305 -0.85771,-2.16858 -0.33028,-0.56553 -1.24665,-1.37416 -2.03637,-1.79697 -1.0813,-0.57891 -1.77251,-0.73263 -2.79924,-0.62253 -0.74986,0.0804 -1.868,0.48772 -2.48475,0.90513 -0.61674,0.41741 -1.40722,1.34439 -1.75661,2.05996 -0.34939,0.71556 -0.63525,1.89419 -0.63525,2.61916 0,0.72498 0.15316,1.72352 0.34036,2.21897 0.1872,0.49546 0.7272,1.31437 1.2,1.81981 0.4728,0.50543 1.29164,1.11179 1.81964,1.34747 0.528,0.23568 1.43263,0.43414 2.01028,0.44103 z m -37.2103,3.2125 h -2.08 v -8.96 -8.96 h 2.08 2.08 v 1.6576 1.6576 l 1.18058,-1.37924 c 0.64932,-0.75858 1.65269,-1.5765 2.22972,-1.8176 0.57703,-0.2411 1.41377,-0.43836 1.85942,-0.43836 0.78987,0 0.81028,0.0564 0.81028,2.24 0,2.16002 -0.0278,2.24 -0.77917,2.24 -0.42854,0 -1.18454,0.15359 -1.68,0.34131 -0.49546,0.18773 -1.24382,0.65573 -1.66304,1.04 -0.41922,0.38428 -1.02806,1.27469 -1.35297,1.97869 -0.48549,1.0519 -0.59201,2.09258 -0.59779,5.84 l -0.007,4.56 z m 52.8,0 h -2.08 v -8.96 -8.96 h 2.08 2.08 v 1.12 c 0,0.616 0.11891,1.12 0.26422,1.12 0.14532,0 0.59479,-0.35189 0.99885,-0.78197 0.40403,-0.43009 1.20691,-1.00609 1.78413,-1.28 0.57725,-0.27392 1.81978,-0.49781 2.76115,-0.49754 0.99693,2.9e-4 2.16983,0.23413 2.8089,0.56 0.60349,0.30773 1.53949,1.11251 2.08,1.78841 l 0.98275,1.2289 0.0967,7.3311 0.0967,7.3311 h -1.9113 -1.91132 l -0.10541,-5.84 c -0.0851,-4.7168 -0.20851,-6.02805 -0.64141,-6.8177 -0.29482,-0.53774 -0.91357,-1.14974 -1.37507,-1.36 -0.46147,-0.21027 -1.39722,-0.3823 -2.07943,-0.3823 -0.86451,0 -1.5359,0.24866 -2.21558,0.82057 -0.53635,0.45131 -1.12259,1.35131 -1.30278,2 -0.18016,0.64868 -0.32839,3.51943 -0.32935,6.37943 l -0.002,5.2 z M 79.174129,150.06058 c -0.161773,-0.0107 -2.210182,-1.14194 -4.552025,-2.5139 -2.341844,-1.37196 -4.390106,-2.62668 -4.5517,-2.78828 -0.178409,-0.17841 6.011955,-3.93568 15.7608,-9.5661 8.830035,-5.09977 16.170296,-9.3203 16.311706,-9.37897 0.14139,-0.0587 0.25709,2.39732 0.25709,5.45774 v 5.5644 l -11.465871,6.62226 c -6.306231,3.64225 -11.59823,6.61353 -11.76,6.60285 z m 48.886041,0.0136 C 127.93907,150.07092 122.692,147.0986 116.4,143.469 l -11.44,-6.59929 v -5.57374 c 0,-3.06556 0.108,-5.51725 0.24,-5.4482 0.132,0.069 7.47357,4.28683 16.3146,9.37285 12.22547,7.03301 15.98011,9.33325 15.67999,9.6062 -0.21702,0.19738 -2.31152,1.46009 -4.65442,2.80602 -2.3429,1.34594 -4.3589,2.44452 -4.48,2.4413 z"
         id="path1001"
         sodipodi:nodetypes="sscssscsssccccsscccsccssscsssssssscssscccsssssssssssssssscssssssssssssssssssssssssssssssssssscccssssssssssscsssssssssssscsssscccssssscsssssccsssssssccssssscccccccccccccccccccsssscsssscccccccccsscccsscsscscssscsccccccccccssssssssscssscsssssssssscccssscsssscsssssssscccssssssccssccccsssssssccssssssssssssscsssssssssscccssssssssssssssssscsssssssscsssccssssssscccccccccccccccccsssssssscccsssssscccsssccscccsccssccscccccccccccsssssssssccscccccssssssssssssscsssscssssssscsssssccsssssssccssssssssssssssssssssscccsssssssssssssssssssssssssscsssscssssssssssssscccccccccsssssssssccccccccssssssscccccsssssscccsssscscsscscscssscc" />
      <path
         style="fill:#3599aa;stroke-width:0.32"
         d="m 118.65687,254.16647 -1.53687,0.88647 v -5.52792 -5.52792 l 34.60918,-19.99855 c 19.03505,-10.99921 34.94705,-20.18315 35.36,-20.40878 l 0.75081,-0.41021 -0.005,5.53021 -0.005,5.53022 -33.81801,19.52 c -18.59991,10.736 -34.50961,19.91891 -35.35489,20.40648 z m -28.496873,0.54618 c -0.044,-0.004 -13.111999,-7.47464 -29.039999,-16.60135 l -28.959999,-16.59402 -0.08768,-5.50787 c -0.05714,-3.58906 0.02442,-5.46982 0.234093,-5.39864 0.176972,0.0601 13.282956,7.59722 29.124408,16.74922 l 28.802636,16.64 0.0033,5.36 c 0.0019,2.948 -0.03273,5.3567 -0.07673,5.35266 z m 0,-13.76881 c -0.044,-0.009 -12.727666,-7.33575 -28.185928,-16.28193 -15.458262,-8.94618 -28.22918,-16.39091 -28.379824,-16.54385 -0.153782,-0.15612 1.755424,-1.44637 4.353607,-2.94217 2.545123,-1.46526 4.752723,-2.61726 4.905772,-2.56 0.15305,0.0573 10.877136,6.2241 23.831305,13.7041 l 23.553033,13.6 9.6e-4,5.52 c 6.4e-4,3.036 -0.03498,5.51274 -0.07898,5.50385 z m 28.200673,-0.68571 -1.24067,0.73814 v -5.54563 -5.54562 l 14.48,-8.35379 c 7.964,-4.59458 19.19322,-11.07121 24.95382,-14.39251 5.7606,-3.3213 10.4766,-6.11078 10.48,-6.19884 0.003,-0.0881 -8.11421,-4.90989 -18.03912,-10.71517 l -18.0453,-10.55506 2.9253,-1.71361 c 1.60891,-0.94248 3.7173,-2.1486 4.6853,-2.68027 l 1.76,-0.96667 22.94745,13.23545 c 12.6211,7.27949 22.94726,13.30744 22.94701,13.39544 -2.5e-4,0.088 -14.9883,8.8 -33.30679,19.36 -18.31848,10.56 -33.86463,19.53217 -34.547,19.93814 z m 34.00648,-33.88314 c -0.11393,-0.0138 -7.72654,-4.36975 -16.9169,-9.68 -9.19036,-5.31025 -16.71372,-9.727 -16.71859,-9.815 -0.005,-0.088 2.05568,-1.348 4.57899,-2.8 2.52331,-1.452 4.77176,-2.64 4.99655,-2.64 0.22479,0 7.86752,4.356 16.98384,9.68 9.11633,5.324 16.46678,9.79327 16.33434,9.93171 -0.13244,0.13844 -2.22311,1.39844 -4.64593,2.8 -2.42283,1.40156 -4.49836,2.53704 -4.6123,2.52329 z m -62.199399,-13.19165 -0.08775,5.4345 -28.866268,-16.66892 C 45.337285,172.78101 32.193689,165.1252 32.00574,164.93601 c -0.222232,-0.22371 -0.310955,-2.20582 -0.253732,-5.66848 l 0.08799,-5.32447 29.119999,16.81573 c 16.016,9.24865 29.159487,16.85495 29.207753,16.90288 0.04826,0.0479 0.04826,2.53269 10e-7,5.52167 z m 85.121559,-34.35154 -0.0893,4.35985 -3.75573,-2.15583 c -2.06565,-1.1857 -3.75765,-2.23611 -3.76,-2.33424 -0.002,-0.0981 1.67078,-1.14708 3.71807,-2.331 2.04729,-1.18391 3.77948,-2.09543 3.84931,-2.02559 0.0698,0.0698 0.0868,2.0889 0.0377,4.48681 z m 3.07693,4.3682 c -0.0694,0 -0.12624,-2.42987 -0.12624,-5.3997 v -5.3997 l 4.71999,-2.7237 4.72,-2.72369 0.0883,5.15111 c 0.0485,2.83311 0.0239,5.31867 -0.0546,5.52346 -0.0786,0.20479 -2.18549,1.54232 -4.68201,2.97229 -2.49651,1.42996 -4.59593,2.59993 -4.66536,2.59993 z M 67.234907,142.96095 c -0.110339,0.0445 -2.213267,-1.07661 -4.673171,-2.49141 -2.459904,-1.4148 -4.572531,-2.67522 -4.694726,-2.80095 -0.122199,-0.12573 9.091734,-5.59743 20.475404,-12.15933 11.38367,-6.5619 21.453583,-12.36979 22.377586,-12.90641 l 1.68,-0.97568 -0.006,5.54641 -0.006,5.54642 -17.475764,10.08 c -9.61167,5.544 -17.566041,10.11642 -17.676383,10.16095 z m 72.925093,0.0506 c -0.088,-0.0144 -8.042,-4.58591 -17.67554,-10.1589 L 104.96892,122.72 l -0.004,-5.54642 -0.004,-5.54641 1.68,0.97429 c 0.924,0.53585 10.99189,6.34374 22.3731,12.90641 11.38121,6.56267 20.59721,12.02865 20.48,12.14663 -0.11721,0.11797 -2.2291,1.37747 -4.6931,2.79888 -2.464,1.42142 -4.552,2.57261 -4.64,2.55821 z"
         id="path999"
         sodipodi:nodetypes="ccccsscccsccsscsssccsscsssssccccscccsscscsscsssssscssssssscssscsssccscssccsscccccssscsssscccscccccccsssscc" />
      <path
         style="fill:#065293;stroke-width:0.32"
         d="m 102.16,275.83343 c -0.132,-0.004 -2.28958,-1.19162 -4.794617,-2.64 l -4.554611,-2.63344 -0.0054,-42.25194 -0.0054,-42.25194 -31.555855,-18.22806 C 43.888421,157.80262 29.560423,149.552 29.404144,149.49333 c -0.164628,-0.0618 -0.284145,17.61552 -0.284145,42.02666 0,24.61867 -0.118899,42.089 -0.286025,42.02667 -0.157314,-0.0587 -2.31267,-1.25867 -4.78968,-2.66667 l -4.503655,-2.56 -0.01032,-47.76647 -0.01032,-47.76647 1.537276,0.88647 C 21.902777,134.16108 40.550229,144.928 62.496062,157.6 l 39.901508,23.03999 0.001,47.6 c 6.4e-4,26.18 -0.10679,47.59705 -0.23879,47.59344 z m 2.99412,0.007 c -0.10677,0 -0.19412,-21.42214 -0.19412,-47.60476 V 180.6309 l 39.89424,-23.03523 c 21.94183,-12.66938 40.59325,-23.4361 41.4476,-23.92605 l 1.55336,-0.89081 -0.0876,5.52095 -0.0876,5.52096 -12.95999,7.47943 c -7.128,4.1137 -17.28,9.96903 -22.56,13.01186 -5.28,3.04283 -10.824,6.2408 -12.32,7.10659 -1.496,0.8658 -7.796,4.51149 -14,8.10154 l -11.28,6.52736 -0.006,42.25647 -0.006,42.25646 -4.60017,2.64 c -2.5301,1.452 -4.68753,2.64 -4.7943,2.64 z M 216.98191,231.9784 c -1.15605,-0.0119 -2.74992,-0.19801 -3.54192,-0.41362 -0.792,-0.21561 -2.088,-0.72008 -2.88,-1.12104 -0.792,-0.40097 -1.82322,-1.04284 -2.2916,-1.42639 l -0.85161,-0.69736 1.19144,-1.37289 1.19143,-1.37289 1.88702,1.13631 c 1.03786,0.62497 2.39694,1.27797 3.02017,1.45111 0.62324,0.17313 1.78115,0.31537 2.57315,0.31608 0.792,6.4e-4 1.94384,-0.25049 2.55964,-0.55821 0.61579,-0.30773 1.3101,-0.9606 1.54289,-1.45083 0.28674,-0.60384 0.33195,-1.16523 0.14019,-1.74053 -0.15569,-0.46706 -0.65357,-1.12583 -1.10641,-1.46392 -0.45284,-0.33809 -2.38776,-1.0392 -4.29983,-1.55801 -1.91206,-0.51881 -4.07594,-1.29368 -4.80863,-1.72192 -0.73268,-0.42825 -1.66868,-1.31991 -2.08,-1.98146 -0.58865,-0.94678 -0.74785,-1.65678 -0.74785,-3.33527 0,-1.8493 0.12773,-2.31667 0.96198,-3.52 0.63009,-0.90885 1.56071,-1.69117 2.69738,-2.26757 1.47818,-0.74956 2.1284,-0.88 4.38684,-0.88 1.57778,0 3.27147,0.20717 4.18262,0.5116 0.84215,0.28137 2.1304,0.88602 2.86276,1.34365 l 1.33159,0.83205 -0.98344,1.45635 c -0.54089,0.801 -1.00931,1.49356 -1.04094,1.53904 -0.0316,0.0455 -1.02675,-0.42252 -2.21139,-1.04 -1.80268,-0.93962 -2.48528,-1.12269 -4.1861,-1.12269 -1.72796,0 -2.18203,0.12609 -3.03308,0.8422 -0.86525,0.72806 -0.98784,1.01936 -0.90456,2.14955 0.0779,1.05734 0.29031,1.43764 1.11056,1.98855 0.55783,0.37464 2.40879,1.06805 4.11325,1.5409 1.70447,0.47285 3.62407,1.12982 4.26578,1.45996 0.64171,0.33012 1.55359,1.00942 2.0264,1.50954 0.4728,0.50012 1.0128,1.31468 1.2,1.81014 0.18719,0.49545 0.33719,1.57545 0.33333,2.4 -0.004,0.82454 -0.27138,2.08112 -0.59447,2.7924 -0.32309,0.71128 -1.04676,1.67973 -1.60814,2.15211 -0.5614,0.47238 -1.76002,1.07842 -2.66362,1.34676 -0.9036,0.26834 -2.58877,0.47818 -3.74483,0.4663 z m -183.621911,-27.25182 -1.36,0.76813 v -11.57402 c 0,-6.36572 0.118256,-11.52603 0.262794,-11.46736 0.144537,0.0587 2.232537,1.24059 4.64,2.62649 l 4.377206,2.51983 v 6.29198 6.29197 l -3.28,1.88742 c -1.804,1.03808 -3.892,2.23309 -4.64,2.65556 z M 216.92287,191.33859 c -1.47558,-0.0118 -3.25888,-0.20357 -3.96288,-0.42622 -0.704,-0.22264 -1.784,-0.66732 -2.4,-0.98817 -0.616,-0.32085 -1.516,-0.87613 -2,-1.23396 -0.484,-0.35783 -0.8761,-0.80352 -0.87134,-0.99042 0.005,-0.18691 0.5072,-0.87601 1.11653,-1.53134 l 1.10788,-1.19152 1.43375,0.96763 c 0.78856,0.5322 2.09413,1.19264 2.90126,1.46766 0.95692,0.32606 2.18143,0.45458 3.51938,0.36938 1.58463,-0.1009 2.23023,-0.29821 2.83513,-0.86649 0.4308,-0.40471 0.86768,-1.07219 0.97086,-1.48328 0.10318,-0.4111 0.0492,-1.11156 -0.12003,-1.55658 -0.1692,-0.44502 -0.87311,-1.09761 -1.56425,-1.4502 -0.69114,-0.3526 -2.4642,-0.94395 -3.94014,-1.31413 -1.47594,-0.37017 -3.39568,-1.05958 -4.2661,-1.532 -0.87042,-0.47242 -1.89906,-1.33031 -2.28588,-1.90641 -0.38682,-0.5761 -0.80076,-1.62427 -0.91987,-2.32927 -0.12193,-0.72167 -0.0454,-1.99529 0.17512,-2.91454 0.27395,-1.14195 0.75223,-1.99326 1.59119,-2.83222 0.71973,-0.71973 1.87451,-1.42371 2.88715,-1.76005 1.29141,-0.42894 2.31939,-0.52113 4.37832,-0.39268 2.16575,0.13511 3.09685,0.36783 4.77272,1.19286 1.14514,0.56375 2.16019,1.22859 2.25568,1.47744 0.0955,0.24885 -0.22707,0.99098 -0.71681,1.64918 -0.48974,0.6582 -0.92313,1.24216 -0.96311,1.29769 -0.04,0.0555 -0.97922,-0.35667 -2.08721,-0.91598 -1.25575,-0.63391 -2.69184,-1.07835 -3.81277,-1.18 -1.29697,-0.1176 -2.07983,-0.0174 -2.80837,0.3593 -0.55556,0.28729 -1.15838,0.79939 -1.3396,1.138 -0.18122,0.33861 -0.32949,1.04432 -0.32949,1.56824 0,0.65989 0.28724,1.19429 0.93482,1.73919 0.5323,0.4479 2.0824,1.09564 3.6,1.50434 1.46585,0.39477 3.3926,0.98925 4.28166,1.32108 0.88906,0.33183 2.06823,1.07167 2.62037,1.6441 0.55215,0.57243 1.15673,1.44615 1.34353,1.94161 0.18679,0.49545 0.33646,1.57545 0.3326,2.4 -0.004,0.82454 -0.27327,2.08535 -0.59868,2.8018 -0.3254,0.71645 -1.12234,1.74008 -1.77097,2.27474 -0.64863,0.53466 -1.72794,1.13647 -2.39846,1.33737 -0.67051,0.20089 -2.42641,0.35562 -3.90199,0.34385 z M 103.84,178.09605 C 103.664,178.15787 85.09651,167.56086 62.578913,154.54713 40.061317,141.53341 21.533694,130.77651 21.40642,130.64291 21.279145,130.50931 37.523058,120.968 57.504005,109.44 77.484951,97.911997 96.046452,87.203882 98.75178,85.644183 l 4.91878,-2.835814 41.25316,23.795811 c 22.68924,13.0877 41.15937,23.89616 41.04472,24.01879 -0.11464,0.12264 -18.56844,10.82896 -41.00844,23.79183 -22.44,12.96287 -40.944,23.61943 -41.12,23.68125 z m -0.18635,-11.0608 c 0.2495,0.003 14.61165,-8.16725 31.91589,-18.15525 17.30423,-9.988 31.46409,-18.25349 31.46635,-18.36774 0.002,-0.11426 -14.25546,-8.43813 -31.68382,-18.49749 L 103.66414,93.725028 72.078625,111.96285 c -17.372038,10.03081 -31.62453,18.35486 -31.67221,18.4979 -0.04768,0.14304 14.061372,8.42975 31.353445,18.41491 17.292077,9.98516 31.64428,18.15698 31.89379,18.15959 z m -47.009812,-32.08998 -1.805824,1.02528 -4.459007,-2.57078 c -2.452455,-1.41392 -4.552189,-2.6673 -4.66608,-2.78527 -0.113888,-0.11798 12.033225,-7.2705 26.993586,-15.8945 14.960361,-8.624 27.761537,-16.012166 28.447067,-16.41814 l 1.24642,-0.738138 -0.0139,5.538138 -0.0139,5.53814 -21.961282,12.64 c -12.078707,6.952 -22.773906,13.10137 -23.76711,13.66527 z m 95.978512,0.9202 c -0.0977,0.0524 -10.7537,-6.01311 -23.68,-13.47884 -12.92629,-7.46574 -23.6139,-13.61408 -23.75024,-13.66298 -0.13634,-0.0489 -0.20834,-2.5509 -0.16,-5.55999 l 0.0879,-5.471084 28.41052,16.403524 28.41053,16.40353 -4.57053,2.63531 c -2.51379,1.44943 -4.65046,2.67817 -4.74817,2.73053 z M 211.03999,150.72 h -2.08 v -11.84 -11.84 h 5.90425 c 3.24734,0 6.63753,0.15726 7.53376,0.34946 0.89801,0.19259 2.23385,0.80517 2.97575,1.3646 0.74044,0.55833 1.67024,1.65558 2.06624,2.43834 0.51402,1.01605 0.71799,1.97598 0.71298,3.3554 -0.004,1.17783 -0.23638,2.4371 -0.59447,3.22543 -0.32309,0.71128 -1.05731,1.68862 -1.6316,2.17185 -0.5743,0.48324 -1.54115,1.08626 -2.14857,1.34006 -0.75066,0.31364 -1.02526,0.59171 -0.85733,0.86815 0.13588,0.22369 1.51424,2.17182 3.06302,4.32919 1.54879,2.15736 2.81597,3.99336 2.81597,4.08 0,0.0866 -1.044,0.1528 -2.32,0.14704 l -2.32,-0.0105 -2.88,-4.14342 -2.88,-4.14342 -2.64,-0.006 -2.64,-0.006 v 4.16 4.16 z m 5.48288,-11.84 c 1.87158,0 3.96811,-0.16935 4.65895,-0.37633 0.69084,-0.20699 1.60755,-0.79404 2.03713,-1.30456 0.58565,-0.69601 0.78104,-1.30453 0.78104,-2.43246 0,-0.8452 -0.21881,-1.81664 -0.49942,-2.21728 -0.27469,-0.39216 -0.95868,-0.95518 -1.52,-1.25115 -0.73927,-0.38979 -2.10105,-0.57634 -4.94058,-0.6768 l -3.92,-0.13868 v 4.19863 4.19863 z"
         id="path997" />
    </g>
  </g>
</svg>
