<?xml version="1.0" encoding="UTF-8" standalone="no"?>
<svg
   xmlns:dc="http://purl.org/dc/elements/1.1/"
   xmlns:cc="http://creativecommons.org/ns#"
   xmlns:rdf="http://www.w3.org/1999/02/22-rdf-syntax-ns#"
   xmlns:svg="http://www.w3.org/2000/svg"
   xmlns="http://www.w3.org/2000/svg"
   xmlns:sodipodi="http://sodipodi.sourceforge.net/DTD/sodipodi-0.dtd"
   xmlns:inkscape="http://www.inkscape.org/namespaces/inkscape"
   inkscape:version="1.0 (4035a4fb49, 2020-05-01)"
   height="143.75999"
   width="296.92001"
   sodipodi:docname="ru_logo.svg"
   xml:space="preserve"
   viewBox="0 0 296.92001 143.76"
   y="0px"
   x="0px"
   id="Logo"
   version="1.1"><metadata
   id="metadata59"><rdf:RDF><cc:Work
       rdf:about=""><dc:format>image/svg+xml</dc:format><dc:type
         rdf:resource="http://purl.org/dc/dcmitype/StillImage" /></cc:Work></rdf:RDF></metadata><defs
   id="defs57" /><sodipodi:namedview
   inkscape:current-layer="Logo"
   inkscape:window-maximized="1"
   inkscape:window-y="-8"
   inkscape:window-x="-8"
   inkscape:cy="71.884995"
   inkscape:cx="147.92"
   inkscape:zoom="2.7973333"
   showgrid="false"
   id="namedview55"
   inkscape:window-height="1017"
   inkscape:window-width="1920"
   inkscape:pageshadow="2"
   inkscape:pageopacity="0"
   guidetolerance="10"
   gridtolerance="10"
   objecttolerance="10"
   borderopacity="1"
   bordercolor="#666666"
   pagecolor="#ffffff" />
<style
   id="style2"
   type="text/css">
	.st0{fill:#004C9B;}
	.st1{fill:#FFDC00;}
	.st2{fill:#FFFFFF;}
</style>
<g
   transform="translate(-39.580002,-39.580002)"
   id="g52">
	<rect
   id="rect4"
   height="119.82"
   width="281.28"
   class="st0"
   y="63.52"
   x="39.580002" />
	<rect
   id="rect6"
   height="119.82"
   width="39.580002"
   class="st1"
   y="39.580002"
   x="296.92001" />
	<g
   id="g50">
		<path
   id="path8"
   d="m 83.83,102.3 c 3.42,-0.83 7.27,-3.84 7.27,-9.51 0,-6.23 -4.26,-9.94 -11.39,-9.94 h -15.8 l -0.39,0.39 v 32.56 l 0.39,0.39 h 5.64 l 0.39,-0.39 v -12.6 l 0.41,-0.46 5.22,0.02 0.84,0.46 9.64,12.53 0.9,0.45 h 2.79 l 0.39,-0.39 v -4.69 l -6.31,-8.24 v -0.58 z m -4.12,-5.03 h -9.38 l -0.38,-0.38 v -8.17 l 0.37,-0.4 h 9.39 c 3.43,0 4.96,1.38 4.96,4.48 0,3.09 -1.53,4.47 -4.96,4.47 z"
   class="st2" />
		<path
   id="path10"
   d="m 98.17,125.64 c 6.87,0 8.66,-4.43 10.43,-8.88 l 7.68,-19.2 v -4.72 l -0.39,-0.39 h -4.2 l -0.41,0.41 -5.87,16.62 h -0.56 L 99,92.87 98.59,92.46 h -4.2 L 94,92.85 v 4.71 l 7.69,18.77 -0.01,0.53 c -0.46,1.74 -1.04,3.39 -3.51,3.31 h -2.83 l -0.39,0.39 v 4.68 l 0.39,0.39 h 2.83 z"
   class="st2" />
		<path
   id="path12"
   d="m 140.95,106.58 0.39,-0.39 v -1.86 c 0,-9.11 -6.13,-12.35 -11.39,-12.35 -5.25,0 -11.39,3.23 -11.39,12.35 0,5.7 3.11,12.35 11.87,12.35 8.01,0 9.62,-5.26 9.93,-7.01 l -0.38,-0.38 h -5.64 l -0.42,0.42 c -0.47,0.91 -1.84,1.5 -3.49,1.5 -4.11,0 -4.96,-3.09 -4.96,-4.23 l 0.37,-0.4 z m -15.47,-4.88 c 0,-1.18 0.76,-4.26 4.47,-4.26 3.72,0 4.48,3.15 4.48,4.24 l -0.36,0.38 h -8.2 z"
   class="st2" />
		<path
   id="path14"
   d="m 151.75,94.63 -0.59,-1.76 -0.41,-0.41 h -5.16 l -0.39,0.39 v 22.95 l 0.39,0.39 h 5.64 l 0.39,-0.39 v -11.47 c 0,-4.54 1.58,-6.4 5.44,-6.4 h 3.3 l 0.39,-0.39 v -4.68 l -0.39,-0.39 h -2.82 c -4.41,0 -5.34,2.15 -5.35,2.17 h -0.44 z"
   class="st2" />
		<path
   id="path16"
   d="m 175.49,102.07 c -0.49,-0.08 -0.99,-0.15 -1.47,-0.22 -2.38,-0.33 -4.43,-0.61 -4.43,-2.33 0,-1.73 1.34,-2.07 3.51,-2.07 2.38,0 3.47,0.47 3.51,1.53 l 0.39,0.39 h 5.64 l 0.39,-0.39 c -0.04,-4.32 -3.84,-7 -9.94,-7 -6.23,0 -9.94,2.64 -9.94,7.06 0,4.01 3.03,6.55 9.01,7.54 0.38,0.06 0.74,0.12 1.08,0.17 2.32,0.35 3.85,0.58 3.85,2.38 0,1.86 -2.28,2.07 -3.99,2.07 -2.06,0 -3.96,-0.3 -3.99,-2.49 l -0.39,-0.39 h -5.64 l -0.39,0.39 c 0.03,4.91 4.02,7.96 10.42,7.96 5.04,0 10.42,-1.98 10.42,-7.54 0,-5.72 -5.43,-6.62 -8.04,-7.06 z"
   class="st2" />
		<path
   id="path18"
   d="m 198.12,91.98 c -7.21,0 -11.87,4.85 -11.87,12.35 0,7.5 4.66,12.35 11.87,12.35 7.21,0 11.87,-4.85 11.87,-12.35 0,-7.5 -4.66,-12.35 -11.87,-12.35 z m 0,19.22 c -3.45,0 -5.44,-2.51 -5.44,-6.88 0,-4.37 1.98,-6.88 5.44,-6.88 3.45,0 5.44,2.51 5.44,6.88 0,4.38 -1.98,6.88 -5.44,6.88 z"
   class="st2" />
		<path
   id="path20"
   d="m 229.97,116.19 h 5.64 L 236,115.8 v -14.36 c 0,-5.84 -3.44,-9.46 -8.98,-9.46 -2.48,0 -4.8,0.87 -6.35,2.59 h -0.44 l -0.55,-1.7 -0.41,-0.41 h -5.16 l -0.39,0.39 v 22.95 l 0.39,0.39 h 5.64 l 0.39,-0.39 v -11.95 c 0,-4.25 1.83,-6.4 5.44,-6.4 2.61,0 3.99,1.55 3.99,4.48 v 13.88 z"
   class="st2" />
		<path
   id="path22"
   d="m 90.14,126.41 -0.39,-0.39 H 84.1 l -0.39,0.39 v 20.12 c 0,5.2 -2.31,7.84 -6.88,7.84 -4.57,0 -6.88,-2.64 -6.88,-7.84 v -20.12 l -0.39,-0.39 h -5.64 l -0.39,0.39 v 20.12 c 0,8.58 4.73,13.31 13.31,13.31 8.58,0 13.31,-4.73 13.31,-13.31 v -20.12 z"
   class="st2" />
		<g
   id="g28">
			<polygon
   id="polygon24"
   points="122.02,131.1 122.41,131.49 128.05,131.49 128.45,131.1 128.45,126.41 128.05,126.02 122.41,126.02 122.02,126.41 "
   class="st2" />
			<polygon
   id="polygon26"
   points="128.45,136.03 128.05,135.63 122.41,135.63 122.02,136.03 122.02,158.97 122.41,159.36 128.05,159.36 128.45,158.97 "
   class="st2" />
		</g>
		<polygon
   id="polygon30"
   points="143.68,151.27 143.2,151.27 137.31,136.05 136.89,135.63 132.69,135.63 132.3,136.03 132.3,140.74 140.45,158.95 140.86,159.36 146.03,159.36 146.44,158.95 154.59,140.74 154.59,136.03 154.2,135.63 150,135.63 149.58,136.05 "
   class="st2" />
		<path
   id="path32"
   d="m 213.67,145.24 c -0.49,-0.08 -0.99,-0.15 -1.47,-0.22 -2.38,-0.33 -4.43,-0.61 -4.43,-2.33 0,-1.73 1.34,-2.07 3.51,-2.07 2.38,0 3.47,0.47 3.51,1.53 l 0.39,0.39 h 5.64 l 0.39,-0.39 c -0.04,-4.32 -3.84,-7 -9.94,-7 -6.23,0 -9.94,2.64 -9.94,7.06 0,4.01 3.03,6.55 9.01,7.54 0.38,0.06 0.74,0.12 1.08,0.17 2.32,0.35 3.85,0.58 3.85,2.38 0,1.86 -2.28,2.07 -3.99,2.07 -2.06,0 -3.96,-0.3 -3.99,-2.49 l -0.39,-0.39 h -5.64 l -0.39,0.39 c 0.03,4.91 4.02,7.96 10.42,7.96 5.04,0 10.43,-1.98 10.43,-7.54 0,-5.72 -5.44,-6.62 -8.05,-7.06 z"
   class="st2" />
		<g
   id="g38">
			<polygon
   id="polygon34"
   points="232,136.03 231.61,135.63 225.96,135.63 225.57,136.03 225.57,158.97 225.96,159.36 231.61,159.36 232,158.97 "
   class="st2" />
			<polygon
   id="polygon36"
   points="225.57,131.1 225.96,131.49 231.61,131.49 232,131.1 232,126.41 231.61,126.02 225.96,126.02 225.57,126.41 "
   class="st2" />
		</g>
		<path
   id="path40"
   d="m 247.72,159.36 h 4.26 l 0.39,-0.39 v -4.68 l -0.39,-0.39 h -4.26 c -1.04,0 -1.59,-0.55 -1.59,-1.59 V 141.5 l 0.39,-0.39 h 5.47 l 0.39,-0.39 v -4.68 l -0.39,-0.39 h -5.48 l -0.38,-0.39 v -4.51 l -0.39,-0.39 h -5.64 l -0.39,0.39 v 4.51 l -0.4,0.39 h -3.54 l -0.39,0.39 v 4.68 l 0.39,0.39 h 3.56 l 0.38,0.38 v 10.82 c -0.01,6.37 5.6,7.05 8.01,7.05 z"
   class="st2" />
		<path
   id="path42"
   d="m 111.17,159.36 h 5.64 l 0.39,-0.39 v -14.36 c 0,-5.84 -3.44,-9.46 -8.98,-9.46 -2.48,0 -4.8,0.87 -6.35,2.59 h -0.44 l -0.55,-1.7 -0.41,-0.41 h -5.16 l -0.39,0.39 v 22.95 l 0.39,0.39 h 5.64 l 0.39,-0.39 v -11.95 c 0,-4.25 1.83,-6.4 5.44,-6.4 2.61,0 3.99,1.55 3.99,4.48 v 13.88 z"
   class="st2" />
		<path
   id="path44"
   d="m 179.13,149.75 0.39,-0.39 v -1.86 c 0,-9.11 -6.13,-12.35 -11.39,-12.35 -5.25,0 -11.39,3.23 -11.39,12.35 0,5.7 3.11,12.35 11.87,12.35 8.01,0 9.62,-5.26 9.93,-7.01 l -0.38,-0.38 h -5.64 l -0.42,0.42 c -0.47,0.91 -1.84,1.5 -3.49,1.5 -4.11,0 -4.96,-3.09 -4.96,-4.23 l 0.37,-0.4 z m -15.47,-4.87 c 0,-1.18 0.76,-4.26 4.47,-4.26 3.72,0 4.48,3.15 4.48,4.24 l -0.36,0.38 h -8.2 z"
   class="st2" />
		<path
   id="path46"
   d="m 189.94,137.81 -0.59,-1.76 -0.41,-0.41 h -5.16 l -0.39,0.39 v 22.95 l 0.39,0.39 h 5.64 l 0.39,-0.39 V 147.5 c 0,-4.54 1.58,-6.4 5.44,-6.4 h 3.3 l 0.39,-0.39 v -4.68 l -0.39,-0.39 h -2.82 c -4.41,0 -5.34,2.15 -5.35,2.17 z"
   class="st2" />
		<path
   id="path48"
   d="m 259.47,168.82 c 6.87,0 8.66,-4.43 10.43,-8.88 l 7.68,-19.2 v -4.72 l -0.39,-0.39 h -4.2 l -0.41,0.41 -5.87,16.62 h -0.56 l -5.85,-16.62 -0.41,-0.41 h -4.2 l -0.39,0.39 v 4.71 l 7.69,18.77 -0.01,0.53 c -0.55,1.76 -1.27,3.31 -3.51,3.31 h -2.34 l -0.39,0.39 v 4.68 l 0.39,0.39 h 2.34 z"
   class="st2" />
	</g>
</g>
</svg>
