<?xml version="1.0" encoding="utf-8"?>
<!-- Generator: Adobe Illustrator 24.1.3, SVG Export Plug-In . SVG Version: 6.00 Build 0)  -->
<svg version="1.1" id="Logo" xmlns="http://www.w3.org/2000/svg" xmlns:xlink="http://www.w3.org/1999/xlink" x="0px" y="0px"
	 viewBox="0 0 375 222.93" style="enable-background:new 0 0 375 222.93;" xml:space="preserve">
<style type="text/css">
	.st0{fill:#004C9B;}
	.st1{fill:#FFDC00;}
	.st2{fill:#FFFFFF;}
</style>
<g>
	<rect x="39.58" y="63.52" class="st0" width="281.28" height="119.82"/>
	<rect x="296.92" y="39.58" class="st1" width="39.58" height="119.82"/>
	<g>
		<path class="st2" d="M83.83,102.3c3.42-0.83,7.27-3.84,7.27-9.51c0-6.23-4.26-9.94-11.39-9.94h-15.8l-0.39,0.39v32.56l0.39,0.39
			h5.64l0.39-0.39v-12.6l0.41-0.46l5.22,0.02l0.84,0.46l9.64,12.53l0.9,0.45h2.79l0.39-0.39v-4.69l-6.31-8.24V102.3z M79.71,97.27
			h-9.38l-0.38-0.38v-8.17l0.37-0.4h9.39c3.43,0,4.96,1.38,4.96,4.48C84.67,95.89,83.14,97.27,79.71,97.27z"/>
		<path class="st2" d="M98.17,125.64c6.87,0,8.66-4.43,10.43-8.88l7.68-19.2v-4.72l-0.39-0.39h-4.2l-0.41,0.41l-5.87,16.62h-0.56
			L99,92.87l-0.41-0.41h-4.2l-0.39,0.39v4.71l7.69,18.77l-0.01,0.53c-0.46,1.74-1.04,3.39-3.51,3.31h-2.83l-0.39,0.39v4.68
			l0.39,0.39H98.17z"/>
		<path class="st2" d="M140.95,106.58l0.39-0.39v-1.86c0-9.11-6.13-12.35-11.39-12.35c-5.25,0-11.39,3.23-11.39,12.35
			c0,5.7,3.11,12.35,11.87,12.35c8.01,0,9.62-5.26,9.93-7.01l-0.38-0.38h-5.64l-0.42,0.42c-0.47,0.91-1.84,1.5-3.49,1.5
			c-4.11,0-4.96-3.09-4.96-4.23l0.37-0.4H140.95z M125.48,101.7c0-1.18,0.76-4.26,4.47-4.26c3.72,0,4.48,3.15,4.48,4.24l-0.36,0.38
			h-8.2L125.48,101.7z"/>
		<path class="st2" d="M151.75,94.63l-0.59-1.76l-0.41-0.41h-5.16l-0.39,0.39v22.95l0.39,0.39h5.64l0.39-0.39v-11.47
			c0-4.54,1.58-6.4,5.44-6.4h3.3l0.39-0.39v-4.68l-0.39-0.39h-2.82c-4.41,0-5.34,2.15-5.35,2.17H151.75z"/>
		<path class="st2" d="M175.49,102.07c-0.49-0.08-0.99-0.15-1.47-0.22c-2.38-0.33-4.43-0.61-4.43-2.33c0-1.73,1.34-2.07,3.51-2.07
			c2.38,0,3.47,0.47,3.51,1.53l0.39,0.39h5.64l0.39-0.39c-0.04-4.32-3.84-7-9.94-7c-6.23,0-9.94,2.64-9.94,7.06
			c0,4.01,3.03,6.55,9.01,7.54c0.38,0.06,0.74,0.12,1.08,0.17c2.32,0.35,3.85,0.58,3.85,2.38c0,1.86-2.28,2.07-3.99,2.07
			c-2.06,0-3.96-0.3-3.99-2.49l-0.39-0.39h-5.64l-0.39,0.39c0.03,4.91,4.02,7.96,10.42,7.96c5.04,0,10.42-1.98,10.42-7.54
			C183.53,103.41,178.1,102.51,175.49,102.07z"/>
		<path class="st2" d="M198.12,91.98c-7.21,0-11.87,4.85-11.87,12.35s4.66,12.35,11.87,12.35c7.21,0,11.87-4.85,11.87-12.35
			S205.33,91.98,198.12,91.98z M198.12,111.2c-3.45,0-5.44-2.51-5.44-6.88c0-4.37,1.98-6.88,5.44-6.88c3.45,0,5.44,2.51,5.44,6.88
			C203.56,108.7,201.58,111.2,198.12,111.2z"/>
		<path class="st2" d="M229.97,116.19h5.64l0.39-0.39v-14.36c0-5.84-3.44-9.46-8.98-9.46c-2.48,0-4.8,0.87-6.35,2.59h-0.44
			l-0.55-1.7l-0.41-0.41h-5.16l-0.39,0.39v22.95l0.39,0.39h5.64l0.39-0.39v-11.95c0-4.25,1.83-6.4,5.44-6.4
			c2.61,0,3.99,1.55,3.99,4.48v13.88L229.97,116.19z"/>
		<path class="st2" d="M90.14,126.41l-0.39-0.39H84.1l-0.39,0.39v20.12c0,5.2-2.31,7.84-6.88,7.84s-6.88-2.64-6.88-7.84v-20.12
			l-0.39-0.39h-5.64l-0.39,0.39v20.12c0,8.58,4.73,13.31,13.31,13.31s13.31-4.73,13.31-13.31V126.41z"/>
		<g>
			<polygon class="st2" points="122.41,126.02 122.02,126.41 122.02,131.1 122.41,131.49 128.05,131.49 128.45,131.1 128.45,126.41 
				128.05,126.02 			"/>
			<polygon class="st2" points="128.05,159.36 128.45,158.97 128.45,136.03 128.05,135.63 122.41,135.63 122.02,136.03 
				122.02,158.97 122.41,159.36 			"/>
		</g>
		<polygon class="st2" points="150,135.63 149.58,136.05 143.68,151.27 143.2,151.27 137.31,136.05 136.89,135.63 132.69,135.63 
			132.3,136.03 132.3,140.74 140.45,158.95 140.86,159.36 146.03,159.36 146.44,158.95 154.59,140.74 154.59,136.03 154.2,135.63 		
			"/>
		<path class="st2" d="M213.67,145.24c-0.49-0.08-0.99-0.15-1.47-0.22c-2.38-0.33-4.43-0.61-4.43-2.33c0-1.73,1.34-2.07,3.51-2.07
			c2.38,0,3.47,0.47,3.51,1.53l0.39,0.39h5.64l0.39-0.39c-0.04-4.32-3.84-7-9.94-7c-6.23,0-9.94,2.64-9.94,7.06
			c0,4.01,3.03,6.55,9.01,7.54c0.38,0.06,0.74,0.12,1.08,0.17c2.32,0.35,3.85,0.58,3.85,2.38c0,1.86-2.28,2.07-3.99,2.07
			c-2.06,0-3.96-0.3-3.99-2.49l-0.39-0.39h-5.64l-0.39,0.39c0.03,4.91,4.02,7.96,10.42,7.96c5.04,0,10.43-1.98,10.43-7.54
			C221.72,146.58,216.28,145.68,213.67,145.24z"/>
		<g>
			<polygon class="st2" points="231.61,159.36 232,158.97 232,136.03 231.61,135.63 225.96,135.63 225.57,136.03 225.57,158.97 
				225.96,159.36 			"/>
			<polygon class="st2" points="225.96,126.02 225.57,126.41 225.57,131.1 225.96,131.49 231.61,131.49 232,131.1 232,126.41 
				231.61,126.02 			"/>
		</g>
		<path class="st2" d="M247.72,159.36h4.26l0.39-0.39v-4.68l-0.39-0.39h-4.26c-1.04,0-1.59-0.55-1.59-1.59v-10.81l0.39-0.39h5.47
			l0.39-0.39v-4.68l-0.39-0.39h-5.48l-0.38-0.39v-4.51l-0.39-0.39h-5.64l-0.39,0.39v4.51l-0.4,0.39h-3.54l-0.39,0.39v4.68l0.39,0.39
			h3.56l0.38,0.38v10.82C239.7,158.68,245.31,159.36,247.72,159.36z"/>
		<path class="st2" d="M111.17,159.36h5.64l0.39-0.39v-14.36c0-5.84-3.44-9.46-8.98-9.46c-2.48,0-4.8,0.87-6.35,2.59h-0.44
			l-0.55-1.7l-0.41-0.41h-5.16l-0.39,0.39v22.95l0.39,0.39h5.64l0.39-0.39v-11.95c0-4.25,1.83-6.4,5.44-6.4
			c2.61,0,3.99,1.55,3.99,4.48v13.88L111.17,159.36z"/>
		<path class="st2" d="M179.13,149.75l0.39-0.39v-1.86c0-9.11-6.13-12.35-11.39-12.35c-5.25,0-11.39,3.23-11.39,12.35
			c0,5.7,3.11,12.35,11.87,12.35c8.01,0,9.62-5.26,9.93-7.01l-0.38-0.38h-5.64l-0.42,0.42c-0.47,0.91-1.84,1.5-3.49,1.5
			c-4.11,0-4.96-3.09-4.96-4.23l0.37-0.4H179.13z M163.66,144.88c0-1.18,0.76-4.26,4.47-4.26c3.72,0,4.48,3.15,4.48,4.24l-0.36,0.38
			h-8.2L163.66,144.88z"/>
		<path class="st2" d="M189.94,137.81l-0.59-1.76l-0.41-0.41h-5.16l-0.39,0.39v22.95l0.39,0.39h5.64l0.39-0.39V147.5
			c0-4.54,1.58-6.4,5.44-6.4h3.3l0.39-0.39v-4.68l-0.39-0.39h-2.82c-4.41,0-5.34,2.15-5.35,2.17H189.94z"/>
		<path class="st2" d="M259.47,168.82c6.87,0,8.66-4.43,10.43-8.88l7.68-19.2v-4.72l-0.39-0.39h-4.2l-0.41,0.41l-5.87,16.62h-0.56
			l-5.85-16.62l-0.41-0.41h-4.2l-0.39,0.39v4.71l7.69,18.77l-0.01,0.53c-0.55,1.76-1.27,3.31-3.51,3.31h-2.34l-0.39,0.39v4.68
			l0.39,0.39H259.47z"/>
	</g>
</g>
</svg>
