<?xml version="1.0" encoding="UTF-8" standalone="no"?>
<svg
   xmlns:dc="http://purl.org/dc/elements/1.1/"
   xmlns:cc="http://creativecommons.org/ns#"
   xmlns:rdf="http://www.w3.org/1999/02/22-rdf-syntax-ns#"
   xmlns:svg="http://www.w3.org/2000/svg"
   xmlns="http://www.w3.org/2000/svg"
   xmlns:sodipodi="http://sodipodi.sourceforge.net/DTD/sodipodi-0.dtd"
   xmlns:inkscape="http://www.inkscape.org/namespaces/inkscape"
   inkscape:version="1.0 (4035a4fb49, 2020-05-01)"
   sodipodi:docname="solidworks_logo.svg"
   xml:space="preserve"
   enable-background="new 0 0 1000.949 226.771"
   viewBox="0 0 967.72732 198.91181"
   height="198.9118"
   width="967.72729"
   y="0px"
   x="0px"
   id="Layer_1"
   version="1.1"><metadata
   id="metadata52"><rdf:RDF><cc:Work
       rdf:about=""><dc:format>image/svg+xml</dc:format><dc:type
         rdf:resource="http://purl.org/dc/dcmitype/StillImage" /></cc:Work></rdf:RDF></metadata><defs
   id="defs50" /><sodipodi:namedview
   inkscape:current-layer="Layer_1"
   inkscape:window-maximized="1"
   inkscape:window-y="-8"
   inkscape:window-x="-8"
   inkscape:cy="99.455565"
   inkscape:cx="484.96523"
   inkscape:zoom="1.0480055"
   showgrid="false"
   id="namedview48"
   inkscape:window-height="1017"
   inkscape:window-width="1920"
   inkscape:pageshadow="2"
   inkscape:pageopacity="0"
   guidetolerance="10"
   gridtolerance="10"
   objecttolerance="10"
   borderopacity="1"
   bordercolor="#666666"
   pagecolor="#ffffff" />
<g
   transform="translate(-15.509261,-13.929933)"
   id="g4"
   display="none">
	<path
   id="path2"
   d="m 1176.772,153.039 v 27.882 c 0,6.104 3.959,8.688 10.559,8.688 h 12.098 v -4.345 h -11.878 c -3.024,0 -5.004,-1.1 -5.004,-4.289 v -7.919 h 14.572 v -4.345 h -14.572 v -11.328 h 16.167 v -4.345 h -21.942 z m -22.058,0.385 c -2.64,-0.494 -6.049,-0.935 -9.184,-0.935 -10.448,0 -16.498,4.399 -16.498,18.808 0,14.409 6.104,18.917 16.278,18.917 3.079,0 6.653,-0.385 9.568,-1.154 l -0.439,-4.345 c -2.805,0.605 -6.215,1.155 -8.964,1.155 -6.93,0 -10.394,-3.08 -10.394,-14.628 0,-11.109 3.354,-14.408 10.173,-14.408 2.805,0 6.215,0.439 8.799,0.989 z m -78.702,-0.385 v 36.57 h 5.555 v -28.376 l 19.027,20.127 v 8.249 h 5.609 v -36.57 h -5.609 v 21.393 l -19.963,-21.393 z m -45.54,0 v 27.882 c 0,6.104 3.959,8.688 10.559,8.688 h 12.098 v -4.345 h -11.878 c -3.024,0 -5.005,-1.1 -5.005,-4.289 v -7.919 h 14.573 v -4.345 h -14.573 v -11.328 h 16.168 v -4.345 h -21.942 z m -41.855,0 v 36.57 h 21.393 v -4.345 h -15.618 v -32.226 h -5.775 z m -42.295,0 v 36.57 h 21.393 v -4.345 h -15.618 v -32.226 h -5.775 z m -45.539,0 v 27.882 c 0,6.104 3.959,8.688 10.559,8.688 h 12.098 v -4.345 h -11.878 c -3.024,0 -5.005,-1.1 -5.005,-4.289 v -7.919 h 14.573 v -4.345 h -14.573 v -11.328 h 16.168 v -4.345 h -21.942 z m -22.058,0.385 c -2.64,-0.494 -6.049,-0.935 -9.184,-0.935 -10.448,0 -16.498,4.399 -16.498,18.808 0,14.409 6.104,18.917 16.278,18.917 3.079,0 6.653,-0.385 9.568,-1.154 l -0.439,-4.345 c -2.805,0.605 -6.215,1.155 -8.964,1.155 -6.93,0 -10.394,-3.08 -10.394,-14.628 0,-11.109 3.354,-14.408 10.173,-14.408 2.805,0 6.215,0.439 8.799,0.989 z m -61.873,17.653 -12.648,18.532 h 6.104 l 9.568,-14.298 9.349,14.298 h 6.765 l -12.538,-18.697 12.373,-17.873 h -6.159 l -9.239,13.583 -8.854,-13.583 h -6.654 z m -52.908,-18.038 v 27.882 c 0,6.104 3.959,8.688 10.559,8.688 H 786.6 v -4.345 h -11.878 c -3.024,0 -5.004,-1.1 -5.004,-4.289 v -7.919 h 14.572 v -4.345 h -14.572 v -11.328 h 16.167 v -4.345 h -21.941 z m -53.738,0.495 c -2.53,-0.495 -7.425,-1.045 -11.823,-1.045 -11.109,0 -17.488,5.06 -17.488,18.643 0,14.683 6.379,19.082 16.883,19.082 4.564,0 9.789,-0.824 13.363,-1.814 v -19.247 h -13.748 v 4.454 h 7.974 v 11.549 c -1.814,0.385 -5.169,0.715 -7.754,0.715 -6.874,0 -10.669,-3.245 -10.669,-14.684 0,-10.394 3.575,-14.353 11.494,-14.353 4.564,0 8.579,0.66 11.273,1.21 z m -82.331,-0.495 v 36.57 h 5.554 v -28.376 l 19.028,20.127 v 8.249 h 5.608 v -36.57 h -5.608 v 21.393 l -19.963,-21.393 z m -31.075,0 v 36.57 h 5.774 v -36.57 z m -50.324,0 v 4.345 h 11.988 v 32.226 h 5.774 v -32.226 h 11.988 v -4.345 z m -37.621,4.345 h 6.049 c 5.719,0 8.139,1.43 8.139,6.984 0,5.004 -2.2,7.259 -8.359,7.259 -1.76,0 -3.685,-0.11 -5.829,-0.495 z m -5.775,-4.345 v 36.57 h 5.774 v -14.133 c 1.98,0.33 3.85,0.439 5.609,0.439 4.125,0 5.609,2.475 6.874,5.939 l 2.859,7.754 h 5.995 l -3.245,-9.019 c -1.265,-3.41 -2.475,-5.39 -5.169,-6.435 4.069,-1.265 7.094,-3.959 7.094,-9.788 0,-8.689 -4.784,-11.329 -13.968,-11.329 H 503.08 Z m -28.878,18.312 c 0,10.889 -3.299,14.519 -9.624,14.519 -6.379,0 -9.679,-3.63 -9.679,-14.519 0,-10.889 3.3,-14.518 9.679,-14.518 6.325,0.001 9.624,3.63 9.624,14.518 z m 6.05,0 c 0,-13.528 -5.499,-18.862 -15.673,-18.862 -10.229,0 -15.728,5.334 -15.728,18.862 0,13.474 5.5,18.862 15.728,18.862 10.174,0.001 15.673,-5.388 15.673,-18.862 z M 402.76,153.039 v 36.57 h 5.774 v -13.693 c 2.255,0.385 4.455,0.605 6.434,0.605 8.359,0 13.583,-3.189 13.583,-11.879 0,-8.744 -4.785,-11.604 -13.968,-11.604 H 402.76 Z m 5.775,4.345 h 6.049 c 5.719,0 8.139,1.649 8.139,7.259 0,5.005 -2.2,7.479 -8.359,7.479 -1.76,0 -3.685,-0.165 -5.829,-0.55 z m -54.339,-4.345 v 36.57 h 5.774 v -13.693 c 2.255,0.385 4.455,0.605 6.434,0.605 8.359,0 13.583,-3.189 13.583,-11.879 0,-8.744 -4.784,-11.604 -13.968,-11.604 h -11.823 z m 5.774,4.345 h 6.049 c 5.719,0 8.139,1.649 8.139,7.259 0,5.005 -2.2,7.479 -8.359,7.479 -1.76,0 -3.685,-0.165 -5.829,-0.55 z m -59.178,-4.345 v 24.032 c 0,7.919 3.904,13.143 14.463,13.143 6.324,0 10.889,-1.319 14.078,-2.254 v -34.921 h -5.774 v 31.786 c -1.87,0.495 -4.785,1.045 -8.139,1.045 -6.324,0 -8.854,-3.465 -8.854,-8.579 v -24.252 z m -23.928,0.33 c -1.98,-0.439 -5.884,-0.88 -9.184,-0.88 -7.479,0 -13.528,2.09 -13.528,8.744 0,9.349 18.367,13.583 18.367,20.457 0,3.189 -2.805,4.18 -6.709,4.18 -4.179,0 -7.864,-1.045 -10.668,-1.87 l -0.715,4.289 c 2.75,0.881 6.874,1.925 11.438,1.925 7.534,0 12.593,-2.419 12.593,-9.019 0,-10.448 -18.258,-14.353 -18.258,-20.347 0,-3.41 3.135,-4.015 7.479,-4.015 2.53,0 6.544,0.495 8.689,0.935 z"
   fill="#565555"
   display="inline" />
</g>
<g
   transform="translate(-15.509261,-13.929933)"
   display="none"
   id="Solid_Solutions">
	<path
   id="path6"
   d="m 367.817,43.573 c -28.46,0 -43.774,18.942 -47.488,41.544 -3.684,22.634 5.372,41.561 33.871,41.561 28.438,0 43.75,-18.927 47.465,-41.561 3.738,-22.601 -5.38,-41.544 -33.848,-41.544 z m 16.271,41.545 c -3.03,18.52 -11.521,27.896 -27.682,27.896 -16.139,0 -21.51,-9.377 -18.495,-27.896 3.047,-18.486 11.505,-27.888 27.667,-27.888 16.178,0.001 21.526,9.401 18.51,27.888 z"
   fill="#da291c"
   display="inline" />
	<path
   id="path8"
   d="m 505.665,48.27 -14.049,76.953 h -17.702 l 14.554,-79.662 h 14.882 c 1.6,0 2.575,1.444 2.315,2.709"
   fill="#da291c"
   display="inline" />
	<path
   id="path10"
   d="m 464.789,117.236 -1.483,8.011 h -56.05 l 14.537,-79.686 h 14.913 c 1.563,0 2.536,1.443 2.285,2.731 L 427.29,112.28 h 33.878 c 3.055,0.001 4.241,1.436 3.621,4.956"
   fill="#da291c"
   display="inline" />
	<path
   id="path12"
   d="m 562.969,45.561 h -42.861 l -0.212,1.287 c -1.014,5.402 -0.573,11.654 7.986,11.654 h 31.75 c 12.598,0 17.401,9.095 14.293,26.183 -2.866,15.659 -11.301,27.597 -24.094,27.597 h -17.23 l 8.176,-44.794 h -14.639 c -1.971,0 -3.36,1.414 -3.582,2.701 l -10.06,55.034 H 546.1 c 24.832,0 42.103,-11.646 47.449,-41.135 4.179,-22.609 -5.284,-38.527 -30.58,-38.527"
   fill="#da291c"
   display="inline" />
	<path
   id="path14"
   d="m 273.186,45.561 h 40.884 v 8.487 c -0.566,3.825 -2.741,7.681 -6.511,7.681 h -30.95 c -3.078,0 -4.846,0.826 -5.088,2.772 -0.126,1.153 0.408,1.972 2.575,3.524 l 27.047,19.258 c 5.788,4.073 8.804,10.506 7.39,19.475 -1.547,9.544 -9.063,18.486 -24.243,18.486 h -34.695 v -11.05 c 0.565,-3.598 2.293,-5.104 5.436,-5.104 h 29.63 c 5.293,0 6.855,-1.217 7.303,-4.192 0.339,-2.144 -0.974,-3.416 -3.65,-5.271 L 262.837,81.889 c -7.139,-5.002 -9.125,-12.563 -8.12,-18.957 1.482,-9.244 9.406,-17.371 18.469,-17.371"
   fill="#da291c"
   display="inline" />
	<path
   id="path16"
   d="m 1030.672,43.975 v -0.031 c -25.664,-1.979 -41.912,15.911 -47.552,38.536 -5.09,20.395 1.83,41.755 26.08,44.575 26.033,1.985 42.354,-15.89 47.738,-38.521 4.808,-20.41 -2.329,-41.748 -26.266,-44.559 z m 17.716,43.869 c -5.545,23.204 -21.267,31.844 -36.047,31.051 l -1.478,-0.078 c -14.346,-1.838 -24.879,-12.881 -19.256,-35.652 5.773,-23.19 22.469,-31.838 37.084,-31.037 14.498,1.49 25.108,12.949 19.697,35.716 z"
   fill="#da291c"
   display="inline" />
	<path
   id="path18"
   d="m 708.027,43.975 v -0.031 c -25.664,-1.979 -41.912,15.911 -47.551,38.536 -5.09,20.395 1.828,41.755 26.08,44.575 26.033,1.985 42.354,-15.89 47.738,-38.521 4.809,-20.41 -2.329,-41.748 -26.267,-44.559 z m 17.717,43.869 c -5.545,23.204 -21.266,31.844 -36.047,31.051 l -1.477,-0.078 c -14.349,-1.838 -24.879,-12.881 -19.256,-35.652 5.772,-23.19 22.469,-31.838 37.084,-31.037 14.497,1.49 25.106,12.949 19.696,35.716 z"
   fill="#da291c"
   display="inline" />
	<path
   id="path20"
   d="m 905.34,125.246 h 7.797 c 0.981,-0.188 1.944,-1.431 1.932,-2.41 l 14.064,-77.274 h -9.258 z"
   fill="#da291c"
   display="inline" />
	<path
   id="path22"
   d="m 872.871,45.566 -8.053,44.382 c -2.824,15.47 -17.783,28.054 -33.346,28.054 -7.139,0 -13.324,-2.694 -17.416,-7.59 -4.156,-4.97 -5.73,-11.675 -4.428,-18.906 l 8.33,-45.938 h -9.109 l -8.047,44.378 c -1.775,9.863 0.49,19.175 6.377,26.216 5.824,6.967 14.453,10.805 24.293,10.805 19.684,0 38.598,-15.883 42.172,-35.459 l 8.334,-45.938 h -9.107 z"
   fill="#da291c"
   display="inline" />
	<polygon
   id="polygon24"
   points="952.062,125.246 961.349,125.246 974.195,54.681 966.597,45.561 "
   fill="#da291c"
   display="inline" />
	<path
   id="path26"
   d="m 1141.627,45.561 h -6.437 l -11.965,65.593 -36.135,-64.414 -0.011,0.01 c -0.381,-0.682 -1.1,-1.188 -2.024,-1.188 h -6.476 l -14.537,79.686 h 7.8 c 0.981,-0.188 1.944,-1.431 1.93,-2.41 l 11.16,-61.313 35.723,63.725 h 9.287 l 14.002,-76.897 c 0.286,-1.539 -0.757,-2.792 -2.317,-2.792 z"
   fill="#da291c"
   display="inline" />
	<polygon
   id="polygon28"
   points="890.902,53.984 952.504,53.984 954.039,45.566 892.463,45.566 "
   fill="#da291c"
   display="inline" />
	<path
   id="path30"
   d="m 791.535,119.57 c 0.285,-1.532 -0.758,-2.786 -2.317,-2.786 h -38.021 l 0.586,-3.21 11.08,-60.579 1.359,-7.435 h -9.43 l -14.537,79.686 50.227,0.008 z"
   fill="#da291c"
   display="inline" />
	<path
   id="path32"
   d="m 605.669,64.163 c 0,6.241 4.53,11.237 6.784,13.248 l 22.39,21.947 c 2.647,2.593 3.967,5.646 3.967,8.521 0,4.886 -3.707,8.938 -9.685,8.906 h -27.928 c -1.561,0 -3.063,1.256 -3.345,2.789 l -1.034,5.676 h 33.651 c 15.393,-0.056 16.994,-12.646 17.059,-18.58 v -0.03 c 0,-8.271 -7.578,-14.632 -7.61,-14.632 L 618.682,71.087 c -2.646,-2.592 -4.277,-5.271 -4.312,-8.183 0.031,-4.885 3.714,-8.874 9.72,-8.875 h 0.075 c 1.468,0.006 28.505,0.089 28.75,0.005 1.56,0 3.066,-1.255 3.353,-2.787 l 1.055,-5.683 h -34.611 c -15.358,0.041 -16.989,12.63 -17.043,18.599 z"
   fill="#da291c"
   display="inline" />
	<path
   id="path34"
   d="m 1156.094,64.163 c 0,6.241 4.531,11.237 6.785,13.248 l 22.391,21.947 c 2.646,2.593 3.967,5.646 3.967,8.521 0,4.886 -3.707,8.938 -9.686,8.906 h -27.931 c -1.559,0 -3.063,1.256 -3.344,2.789 l -1.035,5.676 h 33.652 c 15.391,-0.056 16.994,-12.646 17.057,-18.58 v -0.03 c 0,-8.271 -7.578,-14.632 -7.61,-14.632 l -21.232,-20.921 c -2.646,-2.592 -4.279,-5.271 -4.313,-8.183 0.03,-4.885 3.713,-8.874 9.719,-8.875 h 0.076 c 1.469,0.006 28.504,0.089 28.75,0.005 1.561,0 3.065,-1.255 3.354,-2.787 l 1.053,-5.683 h -34.608 c -15.358,0.041 -16.991,12.63 -17.045,18.599 z"
   fill="#da291c"
   display="inline" />
	<path
   id="path36"
   d="m 973.031,45.561 h -6.434 l -4.385,24.029 h 6.364 c 1.562,0 3.068,-1.254 3.353,-2.786 l 3.42,-18.456 c 0.286,-1.534 -0.757,-2.787 -2.318,-2.787 z"
   fill="#da291c"
   display="inline" />
</g>
<g
   transform="translate(-15.509261,-13.929933)"
   display="none"
   id="Boomerangs">
	<path
   id="path39"
   d="m 116.067,96.207 c 2.572,2.925 15.676,12.411 29.391,22.732 17.884,13.459 36.99,26.226 36.99,46.313 0,26.718 -29.943,30.087 -52.254,30.087 -62.208,0 -103.6,-40.107 -112.855,-48.957 -2.451,-2.344 -7.214,-2.396 -4.465,2.518 10.312,18.431 64.897,60.814 127.903,60.814 63.005,0 67.79,-29.593 67.79,-36.372 0,-28.908 -32.582,-55.864 -59.211,-71.695 -11.636,-6.918 -21.723,-12.09 -27.2,-13.56 -7.284,-1.954 -12.015,1.38 -6.089,8.12 z"
   fill="#da291c"
   display="inline" />
	<path
   id="path41"
   d="M 108.01,131.42 C 105.439,128.496 92.334,119.008 78.619,108.689 60.734,95.228 41.629,82.463 41.629,62.376 c 0,-26.719 29.943,-30.088 52.253,-30.088 62.208,0 103.6,40.107 112.855,48.958 2.452,2.345 7.215,2.396 4.465,-2.518 C 200.891,60.298 146.305,17.913 83.3,17.913 c -63.005,0 -67.79,29.592 -67.79,36.371 0,28.909 32.581,55.864 59.212,71.696 11.636,6.918 21.723,12.09 27.198,13.561 7.286,1.953 12.018,-1.382 6.09,-8.121 z"
   fill="#da291c"
   display="inline" />
</g>
<g
   transform="translate(-15.509261,-13.929933)"
   display="none"
   id="Guides">
</g>
<path
   id="path45"
   d="m 68.777739,8.9710668 c -1.07,-3.479 16.23,-8.01999999 35.209001,-8.85999999 19.111,-0.84 41.729,2.96299999 45.943,15.57700019 6.906,20.667 -28.095,50.8 -58.596001,65.603 -7.486,3.624 -12.017,4.623 -13.906,4.368 -1.799,-0.235 -2.079,-1.92 -1.491,-3.075 1.083,-2.171 6.006,-6.604 12.587,-11.411 34.334001,-25.08 45.500001,-43.471 39.013001,-50.926 -4.161,-4.778 -21.562,-8.098 -39.633001,-8.098 -4.907,0.002 -17.8,1.069 -19.126,-3.1780002 z M 107.28874,103.41007 C 96.462739,95.985067 77.160739,93.497067 61.276739,94.321067 c -14.143,0.751 -38.475,5.246 -37.556,9.723003 0.854,4.836 16.259,3.337 23.315,3.337 15.511,0 40.138,0.955 44.012,10.95 8.368,21.539 -48.348,60.213 -60.449,56.498 -5.468,-1.672 11.114,-29.784 17.132,-39.897 3.577,-6.034 9.027,-15.518 4.374,-16.161 -5.195,-0.715 -10.922,8.207 -14.635,13.358 -10.094,13.985 -20.434,29.247 -28.7190003,44.933 -2.566,4.843 -11.068,19.419 -8.14800002,21.307 2.72700002,1.747 15.69400032,-0.735 32.19400032,-7.279 51.875,-20.544 75.222001,-47.297 81.477001,-69.411 2.194,-7.786 -1.595,-14.581 -6.985,-18.269 z m 77.815,-35.195003 c -16.876,-2.769 -47.063,-3.844 -57.382,11.973 -7.974,12.224 7.095,28.958003 20.813,45.172003 10.991,12.986 22.961,25.398 18.074,32.649 -3.989,5.919 -29.555,5.911 -38.362,6.371 -10.707,0.572 -26.104,0.604 -28.794001,2.068 -2.416,1.3 -3.765,5.333 5.296001,6.95 7.265,1.305 24.578,3.962 42.848,3.945 19.062,0 39.095,-3.131 43.439,-17.895 3.489,-11.855 -8.61,-24.563 -19.256,-37.451 -11.649,-14.107 -23.452,-24.173003 -22.46,-34.164003 0.764,-7.769 16.009,-8.214 41.303,-8.663 5.267,-0.097 15.744,-0.35 13.719,-4.502 -1.791,-3.672 -9.625,-4.887 -19.238,-6.453 z m 206.417,69.102003 c -3.706,22.56 -18.971,41.441 -47.357,41.441 -28.401,0 -37.464,-18.882 -33.763,-41.441 3.701,-22.557 18.983,-41.422003 47.366,-41.422003 28.391,-0.003 37.462,18.865003 33.754,41.422003 z m -35.995,-27.807 c -16.115,0 -24.557,9.361 -27.58,27.804 -3.029,18.46 2.336,27.81 18.456,27.81 16.11,0 24.548,-9.35 27.58,-27.81 3.03,-18.442 -2.337,-27.804 -18.456,-27.804 z m 137.402,-13.625003 h -14.865 l -14.503,79.456003 h 17.664 l 14.018,-76.757003 c 0.236,-1.281 -0.719,-2.699 -2.314,-2.699 z m -42.077,66.547003 h -33.752 l 11.663,-63.841003 c 0.223,-1.279 -0.729,-2.699 -2.317,-2.699 h -14.862 l -14.504,79.449003 h 55.932 l 1.446,-7.938 c 0.637,-3.559 -0.554,-4.971 -3.606,-4.971 z m 101.53,-66.547003 h -42.76 l -0.223,1.276 c -0.995,5.392003 -0.55,11.646003 7.979,11.646003 h 31.678 c 12.549,0 17.345,9.071 14.239,26.107 -2.852,15.596 -11.255,27.512 -24.027,27.512 h -17.175 l 8.156,-44.697 h -14.609 c -1.959,0 -3.318,1.43 -3.554,2.707 l -10.015,54.905 h 33.494 c 24.737,0 41.972,-11.636 47.32,-41.004 4.126,-22.562 -5.27,-38.452003 -30.503,-38.452003 z m -307.395,17.320003 c -0.997,6.392 0.968,13.907 8.095,18.888 l 25.395,17.722 c 2.666,1.841 3.981,3.102 3.659,5.253 -0.479,2.961 -2.028,4.169 -7.293,4.169 h -29.54 c -3.157,0 -4.876,1.541 -5.451,5.105 v 11.006 h 34.602 c 15.164,0 22.668,-8.939 24.182,-18.448 1.417,-8.931 -1.588,-15.317 -7.357,-19.431 l -26.987,-19.162 c -2.169,-1.559 -2.711,-2.365 -2.563,-3.531 0.246,-1.951 2.019,-2.752 5.093,-2.752 h 30.838 c 3.775,0 5.917,-3.85 6.521,-7.672 v -8.460003 h -40.785 c -9.041,0 -16.945,8.093003 -18.409,17.313003 z m 587.522,-9.707 c 3.537,4.01 3.795,11.484 2.795,16.068 -1.227,5.615 -6.57,19.791 -26.59,21.59 l 16.865,28.881 c 0,0 1.154,1.733 1.154,2.867 0.018,0.764 -0.328,1.695 -1.008,2.168 -0.676,0.499 -1.402,0.627 -2.164,0.627 h -4.453 l -19.773,-34.078 -15.926,-0.072 -6.184,34.145 h -8.74 l 14.779,-79.458003 h 20.408 c 12.064,-0.001 22.654,0.175 28.837,7.262003 z m -8.029,4.791 c -1.605,-1.549 -4.033,-2.283 -7.805,-2.995 -0.986,-0.185 -2.6,-0.332 -4.439,-0.421 -4.549,-0.252 -18.057,-0.053 -22.195,-0.01 l -5.236,28.902 c 3.107,0.043 6.676,0.086 9.182,0.105 7.068,0 13.906,-0.227 18.748,-1.553 12.434,-3.377 18.604,-17.485 11.745,-24.028 z m 82.09,-11.296003 c -0.674,-0.508 -1.42,-0.606 -2.18,-0.617 h -3.881 l -40.881,34.968003 5.443,-30.896 c 0.332,-1.715003 -0.494,-2.879003 -1.197,-3.369003 -0.721,-0.562 -1.607,-0.84 -2.49,-0.84 h -3.938 l -14.768,79.442003 h 8.742 l 6.467,-35.161 32.379,35.177 h 3.881 c 0.77,-0.016 1.502,-0.124 2.164,-0.623 0.684,-0.476 1.035,-1.412 1.012,-2.172 0,-1.427 -1.16,-2.869 -1.16,-2.869 l -30.635,-33.282 40.898,-34.733 c 0,0 1.145,-0.981 1.145,-2.871003 0.009,-0.754 -0.327,-1.668 -1.001,-2.154 z m -144.672,43.500003 c -5.357,22.58 -21.629,40.398 -47.609,38.402 v -0.016 c -24.172,-2.791 -31.098,-24.057 -25.992,-44.438 5.625,-22.566 21.842,-40.388003 47.445,-38.399003 v 0.019 c 23.849,2.785 30.986,24.070003 26.156,44.432003 z m -28.168,-36.298 c -14.578,-0.796 -31.234,7.776 -36.951,30.95 -5.641,22.699 4.9,33.726 19.18,35.563 l 1.484,0.069 c 14.738,0.776 30.428,-7.809 35.939,-30.974 5.391,-22.72 -5.17,-34.126 -19.652,-35.608 z m 233.986,-7.960003 h -32.793 c -15.311,0.035 -16.928,12.606003 -16.998,18.541003 -0.006,6.232 4.533,11.21 6.785,13.215 l 22.33,21.868 c 2.648,2.601 3.938,5.673 3.938,8.538 0,4.833 -3.699,8.793 -9.672,8.767 -0.016,0.033 -28.902,0.046 -29.168,0.122 -0.941,0.173 -1.934,1.418 -1.918,2.408 h -0.082 l 0.082,0.036 c 0,0.036 0.006,4.828 0.006,5.964 h 32.449 c 15.314,-0.057 16.936,-12.612 17.01,-18.531 0,-0.027 -0.014,-0.039 -0.014,-0.053 0.023,-8.217 -7.537,-14.563 -7.588,-14.586 l -21.17,-20.826 c -2.643,-2.603 -4.275,-5.283 -4.289,-8.168 0.014,-4.859 3.713,-8.791 9.666,-8.791 0.039,-0.016 29.248,-0.043 29.5,-0.112 l 0.068,0.218 -0.064,-0.218 c 0.953,-0.177 1.961,-1.424 1.934,-2.401 0,0 -0.012,-0.02 0,-0.036 0,-0.043 -0.012,-4.826003 -0.012,-5.955003 z m -279.388,3.152 c 0.023,-0.824 -0.344,-1.886 -1.059,-2.45 -0.738,-0.587 -1.539,-0.699 -2.311,-0.708 h -4 l -30.846,69.890003 -8.031,-37.442 c -0.473,-3.284 -3.105,-5.526 -6.232,-5.353 h -5.186 l -24.342,42.392 0.232,-66.127003 c 0.023,-0.884 -0.326,-1.968 -1.102,-2.584 -0.762,-0.622 -1.609,-0.77 -2.459,-0.78 h -5.193 v 79.452003 h 6.621 v -0.011 c 0.043,0 0.096,0.011 0.148,0.011 1.938,0.017 3.707,-0.467 5.148,-1.517 1.305,-0.938 2.434,-2.241 3.426,-3.81 l 21.316,-38.032 8.881,43.358 c 0,0 5.395,0 5.527,0 0.055,0 0.117,0 0.166,0 3.627,0 6.654,-2.113 8.25,-5.712 l 30.635,-68.921 c 0.223,-0.56 0.397,-0.936 0.411,-1.656003 z"
   fill="#da291c" />
</svg>
