<?xml version="1.0" encoding="utf-8"?>
<!-- Generator: Adobe Illustrator 16.0.3, SVG Export Plug-In . SVG Version: 6.00 Build 0)  -->
<!DOCTYPE svg PUBLIC "-//W3C//DTD SVG 1.1//EN" "http://www.w3.org/Graphics/SVG/1.1/DTD/svg11.dtd">
<svg version="1.1" id="Layer_1" xmlns="http://www.w3.org/2000/svg" xmlns:xlink="http://www.w3.org/1999/xlink" x="0px" y="0px"
	 width="1000.949px" height="226.771px" viewBox="0 0 1000.949 226.771" enable-background="new 0 0 1000.949 226.771"
	 xml:space="preserve">
<g display="none">
	<path display="inline" fill="#565555" d="M1176.772,153.039v27.882c0,6.104,3.959,8.688,10.559,8.688h12.098v-4.345h-11.878
		c-3.024,0-5.004-1.1-5.004-4.289v-7.919h14.572v-4.345h-14.572v-11.328h16.167v-4.345H1176.772z M1154.714,153.424
		c-2.64-0.494-6.049-0.935-9.184-0.935c-10.448,0-16.498,4.399-16.498,18.808s6.104,18.917,16.278,18.917
		c3.079,0,6.653-0.385,9.568-1.154l-0.439-4.345c-2.805,0.605-6.215,1.155-8.964,1.155c-6.93,0-10.394-3.08-10.394-14.628
		c0-11.109,3.354-14.408,10.173-14.408c2.805,0,6.215,0.439,8.799,0.989L1154.714,153.424z M1076.012,153.039v36.57h5.555v-28.376
		l19.027,20.127v8.249h5.609v-36.57h-5.609v21.393l-19.963-21.393H1076.012z M1030.472,153.039v27.882
		c0,6.104,3.959,8.688,10.559,8.688h12.098v-4.345h-11.878c-3.024,0-5.005-1.1-5.005-4.289v-7.919h14.573v-4.345h-14.573v-11.328
		h16.168v-4.345H1030.472z M988.617,153.039v36.57h21.393v-4.345h-15.618v-32.226H988.617z M946.322,153.039v36.57h21.393v-4.345
		h-15.618v-32.226H946.322z M900.783,153.039v27.882c0,6.104,3.959,8.688,10.559,8.688h12.098v-4.345h-11.878
		c-3.024,0-5.005-1.1-5.005-4.289v-7.919h14.573v-4.345h-14.573v-11.328h16.168v-4.345H900.783z M878.725,153.424
		c-2.64-0.494-6.049-0.935-9.184-0.935c-10.448,0-16.498,4.399-16.498,18.808s6.104,18.917,16.278,18.917
		c3.079,0,6.653-0.385,9.568-1.154l-0.439-4.345c-2.805,0.605-6.215,1.155-8.964,1.155c-6.93,0-10.394-3.08-10.394-14.628
		c0-11.109,3.354-14.408,10.173-14.408c2.805,0,6.215,0.439,8.799,0.989L878.725,153.424z M816.852,171.077l-12.648,18.532h6.104
		l9.568-14.298l9.349,14.298h6.765l-12.538-18.697l12.373-17.873h-6.159l-9.239,13.583l-8.854-13.583h-6.654L816.852,171.077z
		 M763.944,153.039v27.882c0,6.104,3.959,8.688,10.559,8.688H786.6v-4.345h-11.878c-3.024,0-5.004-1.1-5.004-4.289v-7.919h14.572
		v-4.345h-14.572v-11.328h16.167v-4.345H763.944z M710.206,153.534c-2.53-0.495-7.425-1.045-11.823-1.045
		c-11.109,0-17.488,5.06-17.488,18.643c0,14.683,6.379,19.082,16.883,19.082c4.564,0,9.789-0.824,13.363-1.814v-19.247h-13.748
		v4.454h7.974v11.549c-1.814,0.385-5.169,0.715-7.754,0.715c-6.874,0-10.669-3.245-10.669-14.684
		c0-10.394,3.575-14.353,11.494-14.353c4.564,0,8.579,0.66,11.273,1.21L710.206,153.534z M627.875,153.039v36.57h5.554v-28.376
		l19.028,20.127v8.249h5.608v-36.57h-5.608v21.393l-19.963-21.393H627.875z M596.8,153.039v36.57h5.774v-36.57H596.8z
		 M546.476,153.039v4.345h11.988v32.226h5.774v-32.226h11.988v-4.345H546.476z M508.855,157.384h6.049
		c5.719,0,8.139,1.43,8.139,6.984c0,5.004-2.2,7.259-8.359,7.259c-1.76,0-3.685-0.11-5.829-0.495V157.384z M503.08,153.039v36.57
		h5.774v-14.133c1.98,0.33,3.85,0.439,5.609,0.439c4.125,0,5.609,2.475,6.874,5.939l2.859,7.754h5.995l-3.245-9.019
		c-1.265-3.41-2.475-5.39-5.169-6.435c4.069-1.265,7.094-3.959,7.094-9.788c0-8.689-4.784-11.329-13.968-11.329H503.08z
		 M474.202,171.351c0,10.889-3.299,14.519-9.624,14.519c-6.379,0-9.679-3.63-9.679-14.519s3.3-14.518,9.679-14.518
		C470.903,156.834,474.202,160.463,474.202,171.351z M480.252,171.351c0-13.528-5.499-18.862-15.673-18.862
		c-10.229,0-15.728,5.334-15.728,18.862c0,13.474,5.5,18.862,15.728,18.862C474.753,190.214,480.252,184.825,480.252,171.351z
		 M402.76,153.039v36.57h5.774v-13.693c2.255,0.385,4.455,0.605,6.434,0.605c8.359,0,13.583-3.189,13.583-11.879
		c0-8.744-4.785-11.604-13.968-11.604H402.76z M408.535,157.384h6.049c5.719,0,8.139,1.649,8.139,7.259
		c0,5.005-2.2,7.479-8.359,7.479c-1.76,0-3.685-0.165-5.829-0.55V157.384z M354.196,153.039v36.57h5.774v-13.693
		c2.255,0.385,4.455,0.605,6.434,0.605c8.359,0,13.583-3.189,13.583-11.879c0-8.744-4.784-11.604-13.968-11.604H354.196z
		 M359.97,157.384h6.049c5.719,0,8.139,1.649,8.139,7.259c0,5.005-2.2,7.479-8.359,7.479c-1.76,0-3.685-0.165-5.829-0.55V157.384z
		 M300.792,153.039v24.032c0,7.919,3.904,13.143,14.463,13.143c6.324,0,10.889-1.319,14.078-2.254v-34.921h-5.774v31.786
		c-1.87,0.495-4.785,1.045-8.139,1.045c-6.324,0-8.854-3.465-8.854-8.579v-24.252H300.792z M276.864,153.369
		c-1.98-0.439-5.884-0.88-9.184-0.88c-7.479,0-13.528,2.09-13.528,8.744c0,9.349,18.367,13.583,18.367,20.457
		c0,3.189-2.805,4.18-6.709,4.18c-4.179,0-7.864-1.045-10.668-1.87l-0.715,4.289c2.75,0.881,6.874,1.925,11.438,1.925
		c7.534,0,12.593-2.419,12.593-9.019c0-10.448-18.258-14.353-18.258-20.347c0-3.41,3.135-4.015,7.479-4.015
		c2.53,0,6.544,0.495,8.689,0.935L276.864,153.369z"/>
</g>
<g id="Solid_Solutions" display="none">
	<path display="inline" fill="#DA291C" d="M367.817,43.573c-28.46,0-43.774,18.942-47.488,41.544
		c-3.684,22.634,5.372,41.561,33.871,41.561c28.438,0,43.75-18.927,47.465-41.561C405.403,62.516,396.285,43.573,367.817,43.573z
		 M384.088,85.118c-3.03,18.52-11.521,27.896-27.682,27.896c-16.139,0-21.51-9.377-18.495-27.896
		c3.047-18.486,11.505-27.888,27.667-27.888C381.756,57.231,387.104,66.631,384.088,85.118z"/>
	<path display="inline" fill="#DA291C" d="M505.665,48.27l-14.049,76.953h-17.702l14.554-79.662h14.882
		C504.95,45.561,505.925,47.005,505.665,48.27"/>
	<path display="inline" fill="#DA291C" d="M464.789,117.236l-1.483,8.011h-56.05l14.537-79.686h14.913
		c1.563,0,2.536,1.443,2.285,2.731L427.29,112.28h33.878C464.223,112.281,465.409,113.716,464.789,117.236"/>
	<path display="inline" fill="#DA291C" d="M562.969,45.561h-42.861l-0.212,1.287c-1.014,5.402-0.573,11.654,7.986,11.654h31.75
		c12.598,0,17.401,9.095,14.293,26.183c-2.866,15.659-11.301,27.597-24.094,27.597h-17.23l8.176-44.794h-14.639
		c-1.971,0-3.36,1.414-3.582,2.701l-10.06,55.034H546.1c24.832,0,42.103-11.646,47.449-41.135
		C597.728,61.479,588.265,45.561,562.969,45.561"/>
	<path display="inline" fill="#DA291C" d="M273.186,45.561h40.884v8.487c-0.566,3.825-2.741,7.681-6.511,7.681h-30.95
		c-3.078,0-4.846,0.826-5.088,2.772c-0.126,1.153,0.408,1.972,2.575,3.524l27.047,19.258c5.788,4.073,8.804,10.506,7.39,19.475
		c-1.547,9.544-9.063,18.486-24.243,18.486h-34.695v-11.05c0.565-3.598,2.293-5.104,5.436-5.104h29.63
		c5.293,0,6.855-1.217,7.303-4.192c0.339-2.144-0.974-3.416-3.65-5.271l-25.477-17.738c-7.139-5.002-9.125-12.563-8.12-18.957
		C256.199,53.688,264.123,45.561,273.186,45.561"/>
	<path display="inline" fill="#DA291C" d="M1030.672,43.975v-0.031c-25.664-1.979-41.912,15.911-47.552,38.536
		c-5.09,20.395,1.83,41.755,26.08,44.575c26.033,1.985,42.354-15.89,47.738-38.521C1061.746,68.124,1054.609,46.786,1030.672,43.975
		z M1048.388,87.844c-5.545,23.204-21.267,31.844-36.047,31.051l-1.478-0.078c-14.346-1.838-24.879-12.881-19.256-35.652
		c5.773-23.19,22.469-31.838,37.084-31.037C1043.189,53.618,1053.799,65.077,1048.388,87.844z"/>
	<path display="inline" fill="#DA291C" d="M708.027,43.975v-0.031c-25.664-1.979-41.912,15.911-47.551,38.536
		c-5.09,20.395,1.828,41.755,26.08,44.575c26.033,1.985,42.354-15.89,47.738-38.521C739.103,68.124,731.965,46.786,708.027,43.975z
		 M725.744,87.844c-5.545,23.204-21.266,31.844-36.047,31.051l-1.477-0.078c-14.349-1.838-24.879-12.881-19.256-35.652
		c5.772-23.19,22.469-31.838,37.084-31.037C720.545,53.618,731.154,65.077,725.744,87.844z"/>
	<path display="inline" fill="#DA291C" d="M905.34,125.246h7.797c0.981-0.188,1.944-1.431,1.932-2.41l14.064-77.274h-9.258
		L905.34,125.246z"/>
	<path display="inline" fill="#DA291C" d="M872.871,45.566l-8.053,44.382c-2.824,15.47-17.783,28.054-33.346,28.054
		c-7.139,0-13.324-2.694-17.416-7.59c-4.156-4.97-5.73-11.675-4.428-18.906l8.33-45.938h-9.109l-8.047,44.378
		c-1.775,9.863,0.49,19.175,6.377,26.216c5.824,6.967,14.453,10.805,24.293,10.805c19.684,0,38.598-15.883,42.172-35.459
		l8.334-45.938h-9.107V45.566z"/>
	<polygon display="inline" fill="#DA291C" points="974.195,54.681 966.597,45.561 952.062,125.246 961.349,125.246 	"/>
	<path display="inline" fill="#DA291C" d="M1141.627,45.561h-6.437l-11.965,65.593l-36.135-64.414l-0.011,0.01
		c-0.381-0.682-1.1-1.188-2.024-1.188h-6.476l-14.537,79.686h7.8c0.981-0.188,1.944-1.431,1.93-2.41l11.16-61.313l35.723,63.725
		h9.287l14.002-76.897C1144.23,46.814,1143.187,45.561,1141.627,45.561z"/>
	<polygon display="inline" fill="#DA291C" points="954.039,45.566 892.463,45.566 890.902,53.984 952.504,53.984 	"/>
	<path display="inline" fill="#DA291C" d="M791.535,119.57c0.285-1.532-0.758-2.786-2.317-2.786h-38.021l0.586-3.21l11.08-60.579
		l1.359-7.435h-9.43l-14.537,79.686l50.227,0.008L791.535,119.57z"/>
	<path display="inline" fill="#DA291C" d="M605.669,64.163c0,6.241,4.53,11.237,6.784,13.248l22.39,21.947
		c2.647,2.593,3.967,5.646,3.967,8.521c0,4.886-3.707,8.938-9.685,8.906h-27.928c-1.561,0-3.063,1.256-3.345,2.789l-1.034,5.676
		h33.651c15.393-0.056,16.994-12.646,17.059-18.58v-0.03c0-8.271-7.578-14.632-7.61-14.632l-21.236-20.921
		c-2.646-2.592-4.277-5.271-4.312-8.183c0.031-4.885,3.714-8.874,9.72-8.875h0.075c1.468,0.006,28.505,0.089,28.75,0.005
		c1.56,0,3.066-1.255,3.353-2.787l1.055-5.683h-34.611C607.354,45.605,605.723,58.194,605.669,64.163z"/>
	<path display="inline" fill="#DA291C" d="M1156.094,64.163c0,6.241,4.531,11.237,6.785,13.248l22.391,21.947
		c2.646,2.593,3.967,5.646,3.967,8.521c0,4.886-3.707,8.938-9.686,8.906h-27.931c-1.559,0-3.063,1.256-3.344,2.789l-1.035,5.676
		h33.652c15.391-0.056,16.994-12.646,17.057-18.58v-0.03c0-8.271-7.578-14.632-7.61-14.632l-21.232-20.921
		c-2.646-2.592-4.279-5.271-4.313-8.183c0.03-4.885,3.713-8.874,9.719-8.875h0.076c1.469,0.006,28.504,0.089,28.75,0.005
		c1.561,0,3.065-1.255,3.354-2.787l1.053-5.683h-34.608C1157.781,45.605,1156.148,58.194,1156.094,64.163z"/>
	<path display="inline" fill="#DA291C" d="M973.031,45.561h-6.434l-4.385,24.029h6.364c1.562,0,3.068-1.254,3.353-2.786l3.42-18.456
		C975.635,46.814,974.592,45.561,973.031,45.561z"/>
</g>
<g id="Boomerangs" display="none">
	<path display="inline" fill="#DA291C" d="M116.067,96.207c2.572,2.925,15.676,12.411,29.391,22.732
		c17.884,13.459,36.99,26.226,36.99,46.313c0,26.718-29.943,30.087-52.254,30.087c-62.208,0-103.6-40.107-112.855-48.957
		c-2.451-2.344-7.214-2.396-4.465,2.518c10.312,18.431,64.897,60.814,127.903,60.814c63.005,0,67.79-29.593,67.79-36.372
		c0-28.908-32.582-55.864-59.211-71.695c-11.636-6.918-21.723-12.09-27.2-13.56C114.872,86.133,110.141,89.467,116.067,96.207z"/>
	<path display="inline" fill="#DA291C" d="M108.01,131.42c-2.571-2.924-15.676-12.412-29.391-22.731
		c-17.885-13.461-36.99-26.226-36.99-46.313c0-26.719,29.943-30.088,52.253-30.088c62.208,0,103.6,40.107,112.855,48.958
		c2.452,2.345,7.215,2.396,4.465-2.518C200.891,60.298,146.305,17.913,83.3,17.913c-63.005,0-67.79,29.592-67.79,36.371
		c0,28.909,32.581,55.864,59.212,71.696c11.636,6.918,21.723,12.09,27.198,13.561C109.206,141.494,113.938,138.159,108.01,131.42z"
		/>
</g>
<g id="Guides" display="none">
</g>
<path fill="#DA291C" d="M84.287,22.901c-1.07-3.479,16.23-8.02,35.209-8.86c19.111-0.84,41.729,2.963,45.943,15.577
	c6.906,20.667-28.095,50.8-58.596,65.603c-7.486,3.624-12.017,4.623-13.906,4.368c-1.799-0.235-2.079-1.92-1.491-3.075
	c1.083-2.171,6.006-6.604,12.587-11.411c34.334-25.08,45.5-43.471,39.013-50.926c-4.161-4.778-21.562-8.098-39.633-8.098
	C98.506,26.081,85.613,27.148,84.287,22.901z M122.798,117.34c-10.826-7.425-30.128-9.913-46.012-9.089
	c-14.143,0.751-38.475,5.246-37.556,9.723c0.854,4.836,16.259,3.337,23.315,3.337c15.511,0,40.138,0.955,44.012,10.95
	c8.368,21.539-48.348,60.213-60.449,56.498c-5.468-1.672,11.114-29.784,17.132-39.897c3.577-6.034,9.027-15.518,4.374-16.161
	c-5.195-0.715-10.922,8.207-14.635,13.358c-10.094,13.985-20.434,29.247-28.719,44.933c-2.566,4.843-11.068,19.419-8.148,21.307
	c2.727,1.747,15.694-0.735,32.194-7.279c51.875-20.544,75.222-47.297,81.477-69.411C131.977,127.823,128.188,121.028,122.798,117.34
	z M200.613,82.145c-16.876-2.769-47.063-3.844-57.382,11.973c-7.974,12.224,7.095,28.958,20.813,45.172
	c10.991,12.986,22.961,25.398,18.074,32.649c-3.989,5.919-29.555,5.911-38.362,6.371c-10.707,0.572-26.104,0.604-28.794,2.068
	c-2.416,1.3-3.765,5.333,5.296,6.95c7.265,1.305,24.578,3.962,42.848,3.945c19.062,0,39.095-3.131,43.439-17.895
	c3.489-11.855-8.61-24.563-19.256-37.451c-11.649-14.107-23.452-24.173-22.46-34.164c0.764-7.769,16.009-8.214,41.303-8.663
	c5.267-0.097,15.744-0.35,13.719-4.502C218.06,84.926,210.226,83.711,200.613,82.145z M407.03,151.247
	c-3.706,22.56-18.971,41.441-47.357,41.441c-28.401,0-37.464-18.882-33.763-41.441c3.701-22.557,18.983-41.422,47.366-41.422
	C401.667,109.822,410.738,128.69,407.03,151.247z M371.035,123.44c-16.115,0-24.557,9.361-27.58,27.804
	c-3.029,18.46,2.336,27.81,18.456,27.81c16.11,0,24.548-9.35,27.58-27.81C392.521,132.802,387.154,123.44,371.035,123.44z
	 M508.437,109.815h-14.865l-14.503,79.456h17.664l14.018-76.757C510.987,111.233,510.032,109.815,508.437,109.815z M466.36,176.362
	h-33.752l11.663-63.841c0.223-1.279-0.729-2.699-2.317-2.699h-14.862l-14.504,79.449h55.932l1.446-7.938
	C470.603,177.774,469.412,176.362,466.36,176.362z M567.89,109.815h-42.76l-0.223,1.276c-0.995,5.392-0.55,11.646,7.979,11.646
	h31.678c12.549,0,17.345,9.071,14.239,26.107c-2.852,15.596-11.255,27.512-24.027,27.512h-17.175l8.156-44.697h-14.609
	c-1.959,0-3.318,1.43-3.554,2.707l-10.015,54.905h33.494c24.737,0,41.972-11.636,47.32-41.004
	C602.519,125.705,593.123,109.815,567.89,109.815z M260.495,127.135c-0.997,6.392,0.968,13.907,8.095,18.888l25.395,17.722
	c2.666,1.841,3.981,3.102,3.659,5.253c-0.479,2.961-2.028,4.169-7.293,4.169h-29.54c-3.157,0-4.876,1.541-5.451,5.105v11.006h34.602
	c15.164,0,22.668-8.939,24.182-18.448c1.417-8.931-1.588-15.317-7.357-19.431L279.8,132.237c-2.169-1.559-2.711-2.365-2.563-3.531
	c0.246-1.951,2.019-2.752,5.093-2.752h30.838c3.775,0,5.917-3.85,6.521-7.672v-8.46h-40.785
	C269.863,109.822,261.959,117.915,260.495,127.135z M848.017,117.428c3.537,4.01,3.795,11.484,2.795,16.068
	c-1.227,5.615-6.57,19.791-26.59,21.59l16.865,28.881c0,0,1.154,1.733,1.154,2.867c0.018,0.764-0.328,1.695-1.008,2.168
	c-0.676,0.499-1.402,0.627-2.164,0.627h-4.453l-19.773-34.078l-15.926-0.072l-6.184,34.145h-8.74l14.779-79.458h20.408
	C831.244,110.165,841.834,110.341,848.017,117.428z M839.988,122.219c-1.605-1.549-4.033-2.283-7.805-2.995
	c-0.986-0.185-2.6-0.332-4.439-0.421c-4.549-0.252-18.057-0.053-22.195-0.01l-5.236,28.902c3.107,0.043,6.676,0.086,9.182,0.105
	c7.068,0,13.906-0.227,18.748-1.553C840.677,142.87,846.847,128.762,839.988,122.219z M922.078,110.923
	c-0.674-0.508-1.42-0.606-2.18-0.617h-3.881l-40.881,34.968l5.443-30.896c0.332-1.715-0.494-2.879-1.197-3.369
	c-0.721-0.562-1.607-0.84-2.49-0.84h-3.938l-14.768,79.442h8.742l6.467-35.161l32.379,35.177h3.881
	c0.77-0.016,1.502-0.124,2.164-0.623c0.684-0.476,1.035-1.412,1.012-2.172c0-1.427-1.16-2.869-1.16-2.869l-30.635-33.282
	l40.898-34.733c0,0,1.145-0.981,1.145-2.871C923.088,112.323,922.752,111.409,922.078,110.923z M777.406,154.423
	c-5.357,22.58-21.629,40.398-47.609,38.402v-0.016c-24.172-2.791-31.098-24.057-25.992-44.438
	c5.625-22.566,21.842-40.388,47.445-38.399v0.019C775.099,112.776,782.236,134.061,777.406,154.423z M749.238,118.125
	c-14.578-0.796-31.234,7.776-36.951,30.95c-5.641,22.699,4.9,33.726,19.18,35.563l1.484,0.069
	c14.738,0.776,30.428-7.809,35.939-30.974C774.281,131.013,763.72,119.607,749.238,118.125z M983.224,110.165h-32.793
	c-15.311,0.035-16.928,12.606-16.998,18.541c-0.006,6.232,4.533,11.21,6.785,13.215l22.33,21.868
	c2.648,2.601,3.938,5.673,3.938,8.538c0,4.833-3.699,8.793-9.672,8.767c-0.016,0.033-28.902,0.046-29.168,0.122
	c-0.941,0.173-1.934,1.418-1.918,2.408h-0.082l0.082,0.036c0,0.036,0.006,4.828,0.006,5.964h32.449
	c15.314-0.057,16.936-12.612,17.01-18.531c0-0.027-0.014-0.039-0.014-0.053c0.023-8.217-7.537-14.563-7.588-14.586l-21.17-20.826
	c-2.643-2.603-4.275-5.283-4.289-8.168c0.014-4.859,3.713-8.791,9.666-8.791c0.039-0.016,29.248-0.043,29.5-0.112l0.068,0.218
	l-0.064-0.218c0.953-0.177,1.961-1.424,1.934-2.401c0,0-0.012-0.02,0-0.036C983.236,116.077,983.224,111.294,983.224,110.165z
	 M703.836,113.317c0.023-0.824-0.344-1.886-1.059-2.45c-0.738-0.587-1.539-0.699-2.311-0.708h-4l-30.846,69.89l-8.031-37.442
	c-0.473-3.284-3.105-5.526-6.232-5.353h-5.186l-24.342,42.392l0.232-66.127c0.023-0.884-0.326-1.968-1.102-2.584
	c-0.762-0.622-1.609-0.77-2.459-0.78h-5.193v79.452h6.621v-0.011c0.043,0,0.096,0.011,0.148,0.011
	c1.938,0.017,3.707-0.467,5.148-1.517c1.305-0.938,2.434-2.241,3.426-3.81l21.316-38.032l8.881,43.358c0,0,5.395,0,5.527,0
	c0.055,0,0.117,0,0.166,0c3.627,0,6.654-2.113,8.25-5.712l30.635-68.921C703.648,114.413,703.822,114.037,703.836,113.317z"/>
</svg>
